<?xml version="1.0" standalone="no"?>
 <!DOCTYPE svg PUBLIC "-//W3C//DTD SVG 1.1//EN" 
 "http://www.w3.org/Graphics/SVG/1.1/DTD/svg11.dtd"> 
<svg xmlns="http://www.w3.org/2000/svg" version="1.1" 
    width="11.4452cm" height="9.8044cm" viewBox="0 0 45060 38600 ">
<title>SVG Picture created as minidox-routed-brd.svg date 2020/04/20 20:32:52 </title>
  <desc>Picture generated by PCBNEW </desc>
<g style="fill:#000000; fill-opacity:1;stroke:#000000; stroke-opacity:1;
stroke-linecap:round; stroke-linejoin:round; "
 transform="translate(0 0) scale(1 1)">
</g>
<g style="fill:#000000; fill-opacity:0.0; 
stroke:#000000; stroke-width:-0.000393701; stroke-opacity:1; 
stroke-linecap:round; stroke-linejoin:round;">
</g>
<g style="fill:#000000; fill-opacity:0.0; 
stroke:#000000; stroke-width:19.685; stroke-opacity:1; 
stroke-linecap:round; stroke-linejoin:round;">
<path d="M44979.8 29060 A197.231 197.231 0.0 0 0 44921.6 28797.5 " />
<path d="M39289.8 38510 A197.231 197.231 0.0 0 0 39552.4 38451.7 " />
<path d="M19.8429 26290 A210 210 0.0 0 0 229.843 26500 " />
<path d="M229.843 4030 A220 220 0.0 0 0 9.84291 4250 " />
<path d="M7199.84 4030 A220 220 0.0 0 0 7419.84 3810 " />
<path d="M7639.84 700 A220 220 0.0 0 0 7419.84 920 " />
<path d="M37489.8 3310 A220 220 0.0 0 0 37269.8 3090 " />
<path d="M9 4250
L19 26290
" />
<path d="M7199 4030
L229 4030
" />
<path d="M7419 920
L7419 3810
" />
<path d="M15009 26500
L18169 32777
" />
<path d="M229 26500
L15009 26500
" />
<path d="M18229 32810
L32959 34860
" />
<path d="M18169.8 32777.9 A72.111 72.111 0.0 0 0 18229.8 32810 " />
<path d="M39289 38510
L32959 34860
" />
<path d="M44979 29060
L39552 38451
" />
<path d="M30799 700
L7639 700
" />
<path d="M31959 700
L34679 3090
" />
<path d="M30799 700
L31959 700
" />
<path d="M37269 3090
L34679 3090
" />
<path d="M37489 24500
L37489 3310
" />
<path d="M44921 28797
L37489 24500
" />
<g >
</g>
<g >
</g>
<g >
</g>
<g >
</g>
<g >
</g>
<g >
</g>
<g >
</g>
<g >
</g>
<g >
</g>
<g >
</g>
<g >
</g>
<g >
</g>
<g >
</g>
<g >
</g>
<g >
</g>
<g >
</g>
<g >
</g>
<g >
</g>
<g >
</g>
<g >
</g>
<g >
</g>
<g >
</g>
<g >
</g>
<g >
</g>
<g >
</g>
<g >
</g>
<g >
</g>
<g >
</g>
<g >
</g>
<g >
</g>
<g >
</g>
<g >
</g>
<g >
</g>
<g >
</g>
<g >
</g>
<g >
</g>
<g >
</g>
<g >
</g>
<g >
</g>
<g >
</g>
<g >
</g>
<g >
</g>
<g >
</g>
<g >
</g>
<g >
</g>
<g >
</g>
<g >
</g>
<g >
</g>
</g> 
</svg>
