<?xml version="1.0" standalone="no"?>
 <!DOCTYPE svg PUBLIC "-//W3C//DTD SVG 1.1//EN" 
 "http://www.w3.org/Graphics/SVG/1.1/DTD/svg11.dtd"> 
<svg xmlns="http://www.w3.org/2000/svg" version="1.1" 
    width="11.4452cm" height="9.8044cm" viewBox="0 0 45060 38600 ">
<title>SVG Picture created as minidox-routed-brd.svg date 2020/04/20 21:18:31 </title>
  <desc>Picture generated by PCBNEW </desc>
<g style="fill:#000000; fill-opacity:1;stroke:#000000; stroke-opacity:1;
stroke-linecap:round; stroke-linejoin:round; "
 transform="translate(0 0) scale(1 1)">
</g>
<g style="fill:#000000; fill-opacity:0.0; 
stroke:#000000; stroke-width:-0.000393701; stroke-opacity:1; 
stroke-linecap:round; stroke-linejoin:round;">
</g>
<g style="fill:#000000; fill-opacity:0.0; 
stroke:#000000; stroke-width:59.0551; stroke-opacity:1; 
stroke-linecap:round; stroke-linejoin:round;">
<circle cx="29790.8" cy="9678" r="433.071" /> 
<circle cx="15640.8" cy="8728" r="433.071" /> 
<circle cx="7299.84" cy="19080" r="433.071" /> 
<circle cx="25840.8" cy="31478" r="433.071" /> 
<circle cx="41240.8" cy="28278" r="433.071" /> 
<g >
</g>
<g >
</g>
<g >
</g>
<g >
</g>
<g >
</g>
<g >
</g>
<g >
</g>
<g >
</g>
<g >
</g>
<g >
</g>
<g >
</g>
<g >
</g>
<g >
</g>
<g >
</g>
<g >
</g>
<g >
</g>
<g >
</g>
<g >
</g>
<g >
</g>
<g >
</g>
<g >
</g>
<g >
</g>
<g >
</g>
<g >
</g>
<g >
</g>
<g >
</g>
<g >
</g>
<g >
</g>
<g >
</g>
<g >
</g>
<g >
</g>
<g >
</g>
<g >
</g>
<g >
</g>
<g >
</g>
<g >
</g>
<g >
</g>
<g >
</g>
<g >
</g>
<g >
</g>
<g >
</g>
<g >
</g>
<g >
</g>
<g >
</g>
<g >
</g>
<g >
</g>
<g >
</g>
<g >
</g>
</g>
<g style="fill:#000000; fill-opacity:0.0; 
stroke:#000000; stroke-width:59.0551; stroke-opacity:1; 
stroke-linecap:round; stroke-linejoin:round;">
</g>
<g style="fill:#000000; fill-opacity:0.0; 
stroke:#000000; stroke-width:60; stroke-opacity:1; 
stroke-linecap:round; stroke-linejoin:round;">
<path d="M999 25517
L999 20017
" />
<path d="M6499 25517
L999 25517
" />
<path d="M6499 20017
L6499 25517
" />
<path d="M6499 20017
L999 20017
" />
<path d="M6499 25517
L6499 20017
" />
<path d="M999 18017
L999 12517
" />
<path d="M6499 18017
L999 18017
" />
<path d="M6499 12517
L6499 18017
" />
<path d="M6499 12517
L999 12517
" />
<path d="M6499 18017
L6499 12517
" />
<path d="M6499 10517
L6499 5017
" />
<path d="M6499 5017
L999 5017
" />
<path d="M6499 5017
L6499 10517
" />
<path d="M6499 10517
L999 10517
" />
<path d="M999 10517
L999 5017
" />
<path d="M13999 8642
L13999 3142
" />
<path d="M13999 3142
L8499 3142
" />
<path d="M13999 3142
L13999 8642
" />
<path d="M13999 8642
L8499 8642
" />
<path d="M8499 8642
L8499 3142
" />
<path d="M21499 7704
L21499 2204
" />
<path d="M21499 2204
L15999 2204
" />
<path d="M21499 2204
L21499 7704
" />
<path d="M21499 7704
L15999 7704
" />
<path d="M15999 7704
L15999 2204
" />
<path d="M28999 8642
L28999 3142
" />
<path d="M28999 3142
L23499 3142
" />
<path d="M28999 3142
L28999 8642
" />
<path d="M28999 8642
L23499 8642
" />
<path d="M23499 8642
L23499 3142
" />
<path d="M36499 9580
L36499 4080
" />
<path d="M36499 4080
L30999 4080
" />
<path d="M36499 4080
L36499 9580
" />
<path d="M36499 9580
L30999 9580
" />
<path d="M30999 9580
L30999 4080
" />
<path d="M13999 16142
L13999 10642
" />
<path d="M13999 10642
L8499 10642
" />
<path d="M13999 10642
L13999 16142
" />
<path d="M13999 16142
L8499 16142
" />
<path d="M8499 16142
L8499 10642
" />
<path d="M21499 15204
L21499 9704
" />
<path d="M21499 9704
L15999 9704
" />
<path d="M21499 9704
L21499 15204
" />
<path d="M21499 15204
L15999 15204
" />
<path d="M15999 15204
L15999 9704
" />
<path d="M28999 16142
L28999 10642
" />
<path d="M28999 10642
L23499 10642
" />
<path d="M28999 10642
L28999 16142
" />
<path d="M28999 16142
L23499 16142
" />
<path d="M23499 16142
L23499 10642
" />
<path d="M36499 17080
L36499 11580
" />
<path d="M36499 11580
L30999 11580
" />
<path d="M36499 11580
L36499 17080
" />
<path d="M36499 17080
L30999 17080
" />
<path d="M30999 17080
L30999 11580
" />
<path d="M8499 23642
L8499 18142
" />
<path d="M13999 23642
L8499 23642
" />
<path d="M13999 18142
L13999 23642
" />
<path d="M13999 18142
L8499 18142
" />
<path d="M13999 23642
L13999 18142
" />
<path d="M15999 22704
L15999 17204
" />
<path d="M21499 22704
L15999 22704
" />
<path d="M21499 17204
L21499 22704
" />
<path d="M21499 17204
L15999 17204
" />
<path d="M21499 22704
L21499 17204
" />
<path d="M23499 23642
L23499 18142
" />
<path d="M28999 23642
L23499 23642
" />
<path d="M28999 18142
L28999 23642
" />
<path d="M28999 18142
L23499 18142
" />
<path d="M28999 23642
L28999 18142
" />
<path d="M30999 24580
L30999 19080
" />
<path d="M36499 24580
L30999 24580
" />
<path d="M36499 19080
L36499 24580
" />
<path d="M36499 19080
L30999 19080
" />
<path d="M36499 24580
L36499 19080
" />
<path d="M19148 31830
L19148 26330
" />
<path d="M24648 31830
L19148 31830
" />
<path d="M24648 26330
L24648 31830
" />
<path d="M24648 26330
L19148 26330
" />
<path d="M24648 31830
L24648 26330
" />
<path d="M26899 32211
L28323 26899
" />
<path d="M32212 33635
L26899 32211
" />
<path d="M33636 28322
L32212 33635
" />
<path d="M33636 28322
L28323 26899
" />
<path d="M32212 33635
L33636 28322
" />
<path d="M42786 30873
L40036 35636
" />
<path d="M40036 35636
L35273 32886
" />
<path d="M35273 32886
L38023 28123
" />
<path d="M38023 28123
L42786 30873
" />
<g >
</g>
<g >
</g>
<g >
</g>
<g >
</g>
<g >
</g>
<g >
</g>
<g >
</g>
<g >
</g>
<g >
</g>
<g >
</g>
<g >
</g>
<g >
</g>
<g >
</g>
<g >
</g>
<g >
</g>
<g >
</g>
<g >
</g>
<g >
</g>
<g >
</g>
<g >
</g>
<g >
</g>
<g >
</g>
<g >
</g>
<g >
</g>
<g >
</g>
<g >
</g>
<g >
</g>
<g >
</g>
<g >
</g>
<g >
</g>
<g >
</g>
<g >
</g>
<g >
</g>
<g >
</g>
<g >
</g>
<g >
</g>
<g >
</g>
<g >
</g>
<g >
</g>
<g >
</g>
<g >
</g>
<g >
</g>
<g >
</g>
<g >
</g>
<g >
</g>
<g >
</g>
<g >
</g>
<g >
</g>
</g>
<g style="fill:#000000; fill-opacity:0.0; 
stroke:#000000; stroke-width:60; stroke-opacity:1; 
stroke-linecap:round; stroke-linejoin:round;">
</g>
<g style="fill:#000000; fill-opacity:0.0; 
stroke:#000000; stroke-width:19.685; stroke-opacity:1; 
stroke-linecap:round; stroke-linejoin:round;">
<path d="M44979.8 29060 A197.231 197.231 0.0 0 0 44921.6 28797.5 " />
<path d="M39289.8 38510 A197.231 197.231 0.0 0 0 39552.4 38451.7 " />
<path d="M19.8429 26290 A210 210 0.0 0 0 229.843 26500 " />
<path d="M229.843 4030 A220 220 0.0 0 0 9.84291 4250 " />
<path d="M7199.84 4030 A220 220 0.0 0 0 7419.84 3810 " />
<path d="M7639.84 700 A220 220 0.0 0 0 7419.84 920 " />
<path d="M37489.8 3310 A220 220 0.0 0 0 37269.8 3090 " />
<path d="M9 4250
L19 26290
" />
<path d="M7199 4030
L229 4030
" />
<path d="M7419 920
L7419 3810
" />
<path d="M15009 26500
L18169 32777
" />
<path d="M229 26500
L15009 26500
" />
<path d="M18229 32810
L32959 34860
" />
<path d="M18169.8 32777.9 A72.111 72.111 0.0 0 0 18229.8 32810 " />
<path d="M39289 38510
L32959 34860
" />
<path d="M44979 29060
L39552 38451
" />
<path d="M30799 700
L7639 700
" />
<path d="M31959 700
L34679 3090
" />
<path d="M30799 700
L31959 700
" />
<path d="M37269 3090
L34679 3090
" />
<path d="M37489 24500
L37489 3310
" />
<path d="M44921 28797
L37489 24500
" />
<g >
</g>
<g >
</g>
<g >
</g>
<g >
</g>
<g >
</g>
<g >
</g>
<g >
</g>
<g >
</g>
<g >
</g>
<g >
</g>
<g >
</g>
<g >
</g>
<g >
</g>
<g >
</g>
<g >
</g>
<g >
</g>
<g >
</g>
<g >
</g>
<g >
</g>
<g >
</g>
<g >
</g>
<g >
</g>
<g >
</g>
<g >
</g>
<g >
</g>
<g >
</g>
<g >
</g>
<g >
</g>
<g >
</g>
<g >
</g>
<g >
</g>
<g >
</g>
<g >
</g>
<g >
</g>
<g >
</g>
<g >
</g>
<g >
</g>
<g >
</g>
<g >
</g>
<g >
</g>
<g >
</g>
<g >
</g>
<g >
</g>
<g >
</g>
<g >
</g>
<g >
</g>
<g >
</g>
<g >
</g>
</g> 
</svg>
