G04 #@! TF.GenerationSoftware,KiCad,Pcbnew,(5.1.5-0-10_14)*
G04 #@! TF.CreationDate,2020-04-20T20:44:16-04:00*
G04 #@! TF.ProjectId,minidox-routed,6d696e69-646f-4782-9d72-6f757465642e,rev?*
G04 #@! TF.SameCoordinates,Original*
G04 #@! TF.FileFunction,Soldermask,Top*
G04 #@! TF.FilePolarity,Negative*
%FSLAX46Y46*%
G04 Gerber Fmt 4.6, Leading zero omitted, Abs format (unit mm)*
G04 Created by KiCad (PCBNEW (5.1.5-0-10_14)) date 2020-04-20 20:44:16*
%MOMM*%
%LPD*%
G04 APERTURE LIST*
%ADD10C,0.100000*%
G04 APERTURE END LIST*
D10*
G36*
X154044527Y-199200903D02*
G01*
X154199399Y-199265053D01*
X154338780Y-199358185D01*
X154457314Y-199476719D01*
X154550446Y-199616100D01*
X154614596Y-199770972D01*
X154647299Y-199935384D01*
X154647299Y-200103016D01*
X154614596Y-200267428D01*
X154550446Y-200422300D01*
X154457314Y-200561681D01*
X154338780Y-200680215D01*
X154199399Y-200773347D01*
X154044527Y-200837497D01*
X153880115Y-200870200D01*
X153712483Y-200870200D01*
X153548071Y-200837497D01*
X153393199Y-200773347D01*
X153253818Y-200680215D01*
X153135284Y-200561681D01*
X153042152Y-200422300D01*
X152978002Y-200267428D01*
X152945299Y-200103016D01*
X152945299Y-199935384D01*
X152978002Y-199770972D01*
X153042152Y-199616100D01*
X153135284Y-199476719D01*
X153253818Y-199358185D01*
X153393199Y-199265053D01*
X153548071Y-199200903D01*
X153712483Y-199168200D01*
X153880115Y-199168200D01*
X154044527Y-199200903D01*
G37*
G36*
X152672073Y-198618417D02*
G01*
X152021073Y-199745983D01*
X150893507Y-199094983D01*
X151544507Y-197967417D01*
X152672073Y-198618417D01*
G37*
G36*
X155441527Y-196864103D02*
G01*
X155596399Y-196928253D01*
X155735780Y-197021385D01*
X155854314Y-197139919D01*
X155947446Y-197279300D01*
X156011596Y-197434172D01*
X156044299Y-197598584D01*
X156044299Y-197766216D01*
X156011596Y-197930628D01*
X155947446Y-198085500D01*
X155854314Y-198224881D01*
X155735780Y-198343415D01*
X155596399Y-198436547D01*
X155441527Y-198500697D01*
X155277115Y-198533400D01*
X155109483Y-198533400D01*
X154945071Y-198500697D01*
X154790199Y-198436547D01*
X154650818Y-198343415D01*
X154532284Y-198224881D01*
X154439152Y-198085500D01*
X154375002Y-197930628D01*
X154342299Y-197766216D01*
X154342299Y-197598584D01*
X154375002Y-197434172D01*
X154439152Y-197279300D01*
X154532284Y-197139919D01*
X154650818Y-197021385D01*
X154790199Y-196928253D01*
X154945071Y-196864103D01*
X155109483Y-196831400D01*
X155277115Y-196831400D01*
X155441527Y-196864103D01*
G37*
G36*
X149944093Y-197043417D02*
G01*
X149293093Y-198170983D01*
X148165527Y-197519983D01*
X148816527Y-196392417D01*
X149944093Y-197043417D01*
G37*
G36*
X154069073Y-196281617D02*
G01*
X153418073Y-197409183D01*
X152290507Y-196758183D01*
X152941507Y-195630617D01*
X154069073Y-196281617D01*
G37*
G36*
X148203789Y-195807712D02*
G01*
X147352789Y-197281688D01*
X145878813Y-196430688D01*
X146729813Y-194956712D01*
X148203789Y-195807712D01*
G37*
G36*
X151341093Y-194706617D02*
G01*
X150690093Y-195834183D01*
X149562527Y-195183183D01*
X150213527Y-194055617D01*
X151341093Y-194706617D01*
G37*
G36*
X149600789Y-193470912D02*
G01*
X148749789Y-194944888D01*
X147275813Y-194093888D01*
X148126813Y-192619912D01*
X149600789Y-193470912D01*
G37*
G36*
X159113018Y-190578133D02*
G01*
X159192156Y-190586136D01*
X159437195Y-190661169D01*
X159437197Y-190661170D01*
X159606341Y-190752149D01*
X159645951Y-190778766D01*
X160193831Y-191146925D01*
X160341979Y-191269157D01*
X160504039Y-191467685D01*
X160624253Y-191694012D01*
X160698004Y-191939444D01*
X160722455Y-192194550D01*
X160696669Y-192449524D01*
X160621635Y-192694569D01*
X160500237Y-192920265D01*
X160337140Y-193117942D01*
X160138612Y-193280002D01*
X160138610Y-193280003D01*
X160138609Y-193280004D01*
X159912284Y-193400217D01*
X159666852Y-193473967D01*
X159625815Y-193477900D01*
X159411745Y-193498419D01*
X159156771Y-193472633D01*
X159156768Y-193472632D01*
X159156767Y-193472632D01*
X159090966Y-193452483D01*
X158911728Y-193397599D01*
X158770683Y-193321733D01*
X158737175Y-193303710D01*
X158737077Y-193303893D01*
X158722751Y-193296189D01*
X158699320Y-193289016D01*
X158674940Y-193286552D01*
X158640329Y-193291349D01*
X158484235Y-193335887D01*
X158436380Y-193339800D01*
X158292817Y-193351540D01*
X158292814Y-193351540D01*
X156495252Y-193321733D01*
X156304456Y-193299742D01*
X156304453Y-193299741D01*
X156304452Y-193299741D01*
X156060485Y-193221294D01*
X155836503Y-193096755D01*
X155641121Y-192930914D01*
X155481853Y-192730146D01*
X155481851Y-192730144D01*
X155364808Y-192502158D01*
X155294491Y-192255718D01*
X155273604Y-192000298D01*
X155302948Y-191745710D01*
X155302949Y-191745706D01*
X155381396Y-191501739D01*
X155505935Y-191277757D01*
X155671776Y-191082375D01*
X155850208Y-190940826D01*
X155872546Y-190923105D01*
X156100532Y-190806062D01*
X156346972Y-190735745D01*
X156372848Y-190733629D01*
X156538390Y-190720092D01*
X156538392Y-190720092D01*
X156934069Y-190726653D01*
X158234585Y-190748218D01*
X158259007Y-190746221D01*
X158282571Y-190739497D01*
X158295285Y-190733633D01*
X158374099Y-190691771D01*
X158436643Y-190658550D01*
X158682073Y-190584801D01*
X158702592Y-190582834D01*
X158937178Y-190560349D01*
X159113018Y-190578133D01*
G37*
G36*
X160565434Y-184132694D02*
G01*
X160708542Y-184153889D01*
X160949853Y-184240173D01*
X161169694Y-184371875D01*
X161169695Y-184371876D01*
X161359621Y-184543939D01*
X161474064Y-184698178D01*
X161729109Y-185123484D01*
X162398661Y-186240011D01*
X162480814Y-186413612D01*
X162520288Y-186571057D01*
X162528548Y-186594127D01*
X162541150Y-186615142D01*
X162557610Y-186633295D01*
X162579707Y-186648275D01*
X162579414Y-186648749D01*
X162584634Y-186651976D01*
X162584638Y-186651978D01*
X162748001Y-186752971D01*
X162935505Y-186927669D01*
X163008646Y-187029175D01*
X163085323Y-187135587D01*
X163191701Y-187368743D01*
X163250548Y-187618168D01*
X163259604Y-187874285D01*
X163218522Y-188127239D01*
X163128877Y-188367325D01*
X163106759Y-188403102D01*
X162994117Y-188585308D01*
X162819420Y-188772813D01*
X162739824Y-188830167D01*
X162611502Y-188922631D01*
X162378345Y-189029009D01*
X162187767Y-189073972D01*
X162128920Y-189087856D01*
X161872806Y-189096912D01*
X161872804Y-189096912D01*
X161619845Y-189055829D01*
X161439927Y-188988650D01*
X161305165Y-188922631D01*
X160804286Y-188677254D01*
X160640924Y-188576261D01*
X160453420Y-188401563D01*
X160303600Y-188193643D01*
X160261050Y-188100382D01*
X160197224Y-187960493D01*
X160138376Y-187711063D01*
X160132720Y-187551108D01*
X160129458Y-187526822D01*
X160121521Y-187503639D01*
X160115000Y-187491239D01*
X159242547Y-186036359D01*
X159160391Y-185862753D01*
X159098069Y-185614177D01*
X159090432Y-185459407D01*
X159085438Y-185358213D01*
X159101791Y-185247811D01*
X159122986Y-185104703D01*
X159209270Y-184863392D01*
X159340972Y-184643551D01*
X159368336Y-184613346D01*
X159513036Y-184453624D01*
X159623212Y-184371875D01*
X159718846Y-184300915D01*
X159950490Y-184191295D01*
X160199068Y-184128972D01*
X160222061Y-184127837D01*
X160455032Y-184116341D01*
X160565434Y-184132694D01*
G37*
G36*
X123384394Y-184458738D02*
G01*
X123757651Y-184613346D01*
X123757653Y-184613347D01*
X123802856Y-184643551D01*
X124093576Y-184837804D01*
X124379256Y-185123484D01*
X124603714Y-185459409D01*
X124758322Y-185832666D01*
X124837140Y-186228913D01*
X124837140Y-186632927D01*
X124758322Y-187029174D01*
X124714244Y-187135587D01*
X124603713Y-187402433D01*
X124379256Y-187738356D01*
X124093576Y-188024036D01*
X123757653Y-188248493D01*
X123757652Y-188248494D01*
X123757651Y-188248494D01*
X123384394Y-188403102D01*
X122988147Y-188481920D01*
X122584133Y-188481920D01*
X122187886Y-188403102D01*
X121814629Y-188248494D01*
X121814628Y-188248494D01*
X121814627Y-188248493D01*
X121478704Y-188024036D01*
X121193024Y-187738356D01*
X120968567Y-187402433D01*
X120858036Y-187135587D01*
X120813958Y-187029174D01*
X120735140Y-186632927D01*
X120735140Y-186228913D01*
X120813958Y-185832666D01*
X120968566Y-185459409D01*
X121193024Y-185123484D01*
X121478704Y-184837804D01*
X121769424Y-184643551D01*
X121814627Y-184613347D01*
X121814629Y-184613346D01*
X122187886Y-184458738D01*
X122584133Y-184379920D01*
X122988147Y-184379920D01*
X123384394Y-184458738D01*
G37*
G36*
X137972840Y-177811416D02*
G01*
X138222266Y-177870263D01*
X138444782Y-177971787D01*
X138455421Y-177976641D01*
X138663343Y-178126461D01*
X138838035Y-178313958D01*
X138972799Y-178531946D01*
X139045706Y-178727206D01*
X139062442Y-178772028D01*
X139103526Y-179024988D01*
X139094470Y-179281104D01*
X139050369Y-179468031D01*
X139050366Y-179468039D01*
X139048958Y-179474008D01*
X139049161Y-179474056D01*
X139045428Y-179489876D01*
X139044563Y-179514364D01*
X139048491Y-179538552D01*
X139062086Y-179570753D01*
X139145505Y-179709998D01*
X139210167Y-179890838D01*
X139210169Y-179890846D01*
X139646621Y-181634871D01*
X139674761Y-181824858D01*
X139674761Y-181824859D01*
X139662130Y-182080823D01*
X139599807Y-182329401D01*
X139490187Y-182561046D01*
X139337478Y-182766855D01*
X139337477Y-182766856D01*
X139147553Y-182938918D01*
X139147551Y-182938919D01*
X139147550Y-182938920D01*
X138927710Y-183070622D01*
X138686400Y-183156906D01*
X138432889Y-183194453D01*
X138176925Y-183181823D01*
X137928346Y-183119499D01*
X137696703Y-183009879D01*
X137601067Y-182938918D01*
X137490893Y-182857170D01*
X137490890Y-182857167D01*
X137318830Y-182667246D01*
X137187127Y-182447404D01*
X137122464Y-182266560D01*
X136710624Y-180620883D01*
X136702373Y-180597810D01*
X136689780Y-180576789D01*
X136680820Y-180566020D01*
X136571716Y-180448917D01*
X136436953Y-180230932D01*
X136347310Y-179990849D01*
X136306226Y-179737891D01*
X136315282Y-179481775D01*
X136359382Y-179294851D01*
X136359383Y-179294848D01*
X136588655Y-178625199D01*
X136668377Y-178450467D01*
X136706531Y-178397517D01*
X136818196Y-178242547D01*
X137005699Y-178067850D01*
X137005700Y-178067849D01*
X137060195Y-178034159D01*
X137223685Y-177933087D01*
X137463766Y-177843444D01*
X137716724Y-177802361D01*
X137716725Y-177802361D01*
X137972840Y-177811416D01*
G37*
G36*
X133144122Y-176509578D02*
G01*
X133284126Y-176551648D01*
X133389556Y-176583328D01*
X133615883Y-176703541D01*
X133814414Y-176865603D01*
X133977506Y-177063273D01*
X133977509Y-177063279D01*
X134098908Y-177288975D01*
X134098909Y-177288978D01*
X134168635Y-177516681D01*
X134173943Y-177534018D01*
X134199730Y-177788993D01*
X134181406Y-177980176D01*
X134045138Y-178674744D01*
X134045136Y-178674749D01*
X133989867Y-178858681D01*
X133869654Y-179085008D01*
X133855088Y-179102852D01*
X133707593Y-179283538D01*
X133637621Y-179341270D01*
X133509917Y-179446635D01*
X133284219Y-179568034D01*
X133131180Y-179614896D01*
X133108566Y-179624333D01*
X133088227Y-179638000D01*
X133077938Y-179647507D01*
X132745796Y-179990849D01*
X131898436Y-180866784D01*
X131798675Y-180951462D01*
X131752012Y-180991070D01*
X131528031Y-181115608D01*
X131292392Y-181191376D01*
X131284059Y-181194056D01*
X131167071Y-181207540D01*
X131029469Y-181223400D01*
X130774051Y-181202513D01*
X130527611Y-181132196D01*
X130495298Y-181115607D01*
X130299625Y-181015153D01*
X130098854Y-180855881D01*
X129933013Y-180660501D01*
X129898156Y-180597810D01*
X129808475Y-180436520D01*
X129730028Y-180192551D01*
X129730027Y-180192548D01*
X129716543Y-180075560D01*
X129700683Y-179937958D01*
X129721570Y-179682540D01*
X129791887Y-179436100D01*
X129798009Y-179424175D01*
X129908930Y-179208114D01*
X129935942Y-179174064D01*
X130028291Y-179057652D01*
X130862058Y-178195768D01*
X131278285Y-177765504D01*
X131424709Y-177641218D01*
X131566574Y-177562338D01*
X131586720Y-177548389D01*
X131603757Y-177530777D01*
X131617031Y-177510179D01*
X131625783Y-177484959D01*
X131626315Y-177485119D01*
X131683353Y-177295301D01*
X131803566Y-177068974D01*
X131965628Y-176870443D01*
X132163300Y-176707349D01*
X132317141Y-176624601D01*
X132388999Y-176585949D01*
X132634043Y-176510914D01*
X132889017Y-176485127D01*
X133144122Y-176509578D01*
G37*
G36*
X162500394Y-176330738D02*
G01*
X162873651Y-176485346D01*
X162873653Y-176485347D01*
X163209576Y-176709804D01*
X163495256Y-176995484D01*
X163695588Y-177295301D01*
X163719714Y-177331409D01*
X163874322Y-177704666D01*
X163953140Y-178100913D01*
X163953140Y-178504927D01*
X163874322Y-178901174D01*
X163790784Y-179102852D01*
X163719713Y-179274433D01*
X163495256Y-179610356D01*
X163209576Y-179896036D01*
X162873653Y-180120493D01*
X162873652Y-180120494D01*
X162873651Y-180120494D01*
X162500394Y-180275102D01*
X162104147Y-180353920D01*
X161700133Y-180353920D01*
X161303886Y-180275102D01*
X160930629Y-180120494D01*
X160930628Y-180120494D01*
X160930627Y-180120493D01*
X160594704Y-179896036D01*
X160309024Y-179610356D01*
X160084567Y-179274433D01*
X160013496Y-179102852D01*
X159929958Y-178901174D01*
X159851140Y-178504927D01*
X159851140Y-178100913D01*
X159929958Y-177704666D01*
X160084566Y-177331409D01*
X160108693Y-177295301D01*
X160309024Y-176995484D01*
X160594704Y-176709804D01*
X160930627Y-176485347D01*
X160930629Y-176485346D01*
X161303886Y-176330738D01*
X161700133Y-176251920D01*
X162104147Y-176251920D01*
X162500394Y-176330738D01*
G37*
G36*
X115653379Y-173998813D02*
G01*
X115892991Y-174089713D01*
X116110265Y-174225613D01*
X116296852Y-174401288D01*
X116408209Y-174557550D01*
X116445580Y-174609990D01*
X116550735Y-174843697D01*
X116550736Y-174843701D01*
X116608276Y-175093428D01*
X116614243Y-175291540D01*
X116614450Y-175291534D01*
X116614942Y-175307796D01*
X116620447Y-175331674D01*
X116630504Y-175354019D01*
X116651962Y-175381592D01*
X116768579Y-175494503D01*
X116877846Y-175652451D01*
X117750813Y-177224089D01*
X117827166Y-177400320D01*
X117881213Y-177650831D01*
X117885351Y-177907072D01*
X117872676Y-177976641D01*
X117839419Y-178159196D01*
X117745180Y-178397517D01*
X117606262Y-178612870D01*
X117527392Y-178694328D01*
X117427996Y-178796986D01*
X117329668Y-178865008D01*
X117217239Y-178942785D01*
X117141547Y-178975579D01*
X116982086Y-179044667D01*
X116731575Y-179098714D01*
X116475334Y-179102852D01*
X116387117Y-179086780D01*
X116223210Y-179056920D01*
X115984889Y-178962682D01*
X115769537Y-178823763D01*
X115585423Y-178645499D01*
X115585421Y-178645497D01*
X115476154Y-178487549D01*
X114652413Y-177004534D01*
X114638477Y-176984389D01*
X114620872Y-176967344D01*
X114609430Y-176959261D01*
X114473735Y-176874387D01*
X114287148Y-176698712D01*
X114152365Y-176509578D01*
X114138420Y-176490010D01*
X114033265Y-176256303D01*
X113975724Y-176006571D01*
X113974948Y-175980804D01*
X113969942Y-175814608D01*
X114018084Y-175108428D01*
X114030044Y-175037148D01*
X114049865Y-174919017D01*
X114140765Y-174679405D01*
X114276665Y-174462131D01*
X114333950Y-174401288D01*
X114452340Y-174275544D01*
X114608602Y-174164187D01*
X114661042Y-174126816D01*
X114894749Y-174021661D01*
X114894753Y-174021660D01*
X115144479Y-173964120D01*
X115400634Y-173956406D01*
X115400638Y-173956406D01*
X115653379Y-173998813D01*
G37*
G36*
X110399521Y-173964120D02*
G01*
X110649247Y-174021660D01*
X110649251Y-174021661D01*
X110882958Y-174126816D01*
X110935398Y-174164187D01*
X111091660Y-174275544D01*
X111210050Y-174401288D01*
X111267335Y-174462131D01*
X111403235Y-174679405D01*
X111494135Y-174919017D01*
X111525916Y-175108429D01*
X111554460Y-175527130D01*
X111574058Y-175814606D01*
X111569052Y-175980804D01*
X111568276Y-176006571D01*
X111510735Y-176256303D01*
X111405580Y-176490010D01*
X111391635Y-176509578D01*
X111256852Y-176698712D01*
X111070265Y-176874387D01*
X110934570Y-176959261D01*
X110915169Y-176974229D01*
X110899061Y-176992694D01*
X110891594Y-177004522D01*
X110067846Y-178487549D01*
X109958579Y-178645497D01*
X109958577Y-178645499D01*
X109774463Y-178823763D01*
X109559110Y-178962681D01*
X109559108Y-178962682D01*
X109558435Y-178962948D01*
X109320789Y-179056920D01*
X109156882Y-179086780D01*
X109068665Y-179102852D01*
X108812425Y-179098714D01*
X108561914Y-179044667D01*
X108402453Y-178975579D01*
X108326761Y-178942785D01*
X108214332Y-178865008D01*
X108116004Y-178796986D01*
X108016608Y-178694328D01*
X107937738Y-178612870D01*
X107798820Y-178397517D01*
X107704581Y-178159196D01*
X107671324Y-177976641D01*
X107658649Y-177907072D01*
X107662787Y-177650832D01*
X107716834Y-177400321D01*
X107793187Y-177224090D01*
X108666154Y-175652451D01*
X108775421Y-175494503D01*
X108892038Y-175381592D01*
X108907887Y-175362904D01*
X108919786Y-175341482D01*
X108927277Y-175318151D01*
X108929202Y-175291521D01*
X108929757Y-175291538D01*
X108935724Y-175093428D01*
X108993264Y-174843701D01*
X108993265Y-174843697D01*
X109098420Y-174609990D01*
X109135791Y-174557550D01*
X109247148Y-174401288D01*
X109433735Y-174225613D01*
X109651009Y-174089713D01*
X109890621Y-173998813D01*
X110143362Y-173956406D01*
X110143366Y-173956406D01*
X110399521Y-173964120D01*
G37*
G36*
X77051000Y-167311000D02*
G01*
X75349000Y-167311000D01*
X75349000Y-165609000D01*
X77051000Y-165609000D01*
X77051000Y-167311000D01*
G37*
G36*
X76851000Y-164786000D02*
G01*
X75549000Y-164786000D01*
X75549000Y-163484000D01*
X76851000Y-163484000D01*
X76851000Y-164786000D01*
G37*
G36*
X115151000Y-163501000D02*
G01*
X113449000Y-163501000D01*
X113449000Y-161799000D01*
X115151000Y-161799000D01*
X115151000Y-163501000D01*
G37*
G36*
X134201000Y-163196000D02*
G01*
X132499000Y-163196000D01*
X132499000Y-161494000D01*
X134201000Y-161494000D01*
X134201000Y-163196000D01*
G37*
G36*
X64302521Y-157930120D02*
G01*
X64552247Y-157987660D01*
X64552251Y-157987661D01*
X64785958Y-158092816D01*
X64820622Y-158117519D01*
X64994660Y-158241544D01*
X65113050Y-158367288D01*
X65170335Y-158428131D01*
X65306235Y-158645405D01*
X65397135Y-158885017D01*
X65428916Y-159074429D01*
X65457388Y-159492072D01*
X65477058Y-159780606D01*
X65471276Y-159972572D01*
X65448240Y-160072549D01*
X65413735Y-160222303D01*
X65308580Y-160456010D01*
X65271209Y-160508450D01*
X65159852Y-160664712D01*
X64973265Y-160840387D01*
X64837570Y-160925261D01*
X64818169Y-160940229D01*
X64802061Y-160958694D01*
X64794594Y-160970522D01*
X63970846Y-162453549D01*
X63861579Y-162611497D01*
X63861577Y-162611499D01*
X63677463Y-162789763D01*
X63492953Y-162908785D01*
X63462108Y-162928682D01*
X63439546Y-162937603D01*
X63223789Y-163022920D01*
X63044840Y-163055520D01*
X62971665Y-163068852D01*
X62715425Y-163064714D01*
X62464914Y-163010667D01*
X62331643Y-162952926D01*
X62229761Y-162908785D01*
X62118312Y-162831686D01*
X62019004Y-162762986D01*
X62019002Y-162762984D01*
X61840738Y-162578870D01*
X61701820Y-162363517D01*
X61607581Y-162125196D01*
X61574981Y-161946247D01*
X61561649Y-161873072D01*
X61565787Y-161616832D01*
X61619834Y-161366321D01*
X61696187Y-161190090D01*
X62569154Y-159618451D01*
X62678421Y-159460503D01*
X62795038Y-159347592D01*
X62810887Y-159328904D01*
X62822786Y-159307482D01*
X62830277Y-159284151D01*
X62832202Y-159257521D01*
X62832757Y-159257538D01*
X62838724Y-159059428D01*
X62896264Y-158809701D01*
X62896265Y-158809697D01*
X63001420Y-158575990D01*
X63054925Y-158500910D01*
X63150148Y-158367288D01*
X63336735Y-158191613D01*
X63408405Y-158146785D01*
X63554009Y-158055713D01*
X63793621Y-157964813D01*
X64046362Y-157922406D01*
X64046366Y-157922406D01*
X64302521Y-157930120D01*
G37*
G36*
X69556379Y-157964813D02*
G01*
X69795991Y-158055713D01*
X69941595Y-158146785D01*
X70013265Y-158191613D01*
X70199852Y-158367288D01*
X70295075Y-158500910D01*
X70348580Y-158575990D01*
X70453735Y-158809697D01*
X70453736Y-158809701D01*
X70511276Y-159059428D01*
X70517243Y-159257540D01*
X70517450Y-159257534D01*
X70517942Y-159273796D01*
X70523447Y-159297674D01*
X70533504Y-159320019D01*
X70554962Y-159347592D01*
X70671579Y-159460503D01*
X70780846Y-159618451D01*
X71653813Y-161190089D01*
X71730166Y-161366320D01*
X71784213Y-161616831D01*
X71788351Y-161873072D01*
X71775019Y-161946247D01*
X71742419Y-162125196D01*
X71648180Y-162363517D01*
X71509262Y-162578870D01*
X71330998Y-162762984D01*
X71330996Y-162762986D01*
X71231688Y-162831686D01*
X71120239Y-162908785D01*
X71018357Y-162952926D01*
X70885086Y-163010667D01*
X70634575Y-163064714D01*
X70378334Y-163068852D01*
X70305159Y-163055520D01*
X70126210Y-163022920D01*
X69887889Y-162928682D01*
X69672537Y-162789763D01*
X69488423Y-162611499D01*
X69488421Y-162611497D01*
X69379154Y-162453549D01*
X68555413Y-160970534D01*
X68541477Y-160950389D01*
X68523872Y-160933344D01*
X68512430Y-160925261D01*
X68376735Y-160840387D01*
X68190148Y-160664712D01*
X68078791Y-160508450D01*
X68041420Y-160456010D01*
X67936265Y-160222303D01*
X67901760Y-160072549D01*
X67878724Y-159972572D01*
X67872942Y-159780608D01*
X67921084Y-159074428D01*
X67933044Y-159003148D01*
X67952865Y-158885017D01*
X68043765Y-158645405D01*
X68179665Y-158428131D01*
X68236950Y-158367288D01*
X68355340Y-158241544D01*
X68529378Y-158117519D01*
X68564042Y-158092816D01*
X68797749Y-157987661D01*
X68797753Y-157987660D01*
X69047479Y-157930120D01*
X69303634Y-157922406D01*
X69303638Y-157922406D01*
X69556379Y-157964813D01*
G37*
G36*
X96101000Y-162231000D02*
G01*
X94399000Y-162231000D01*
X94399000Y-160529000D01*
X96101000Y-160529000D01*
X96101000Y-162231000D01*
G37*
G36*
X76851000Y-161636000D02*
G01*
X75549000Y-161636000D01*
X75549000Y-160334000D01*
X76851000Y-160334000D01*
X76851000Y-161636000D01*
G37*
G36*
X114951000Y-160976000D02*
G01*
X113649000Y-160976000D01*
X113649000Y-159674000D01*
X114951000Y-159674000D01*
X114951000Y-160976000D01*
G37*
G36*
X140502521Y-155549120D02*
G01*
X140752247Y-155606660D01*
X140752251Y-155606661D01*
X140985958Y-155711816D01*
X141038398Y-155749187D01*
X141194660Y-155860544D01*
X141313050Y-155986288D01*
X141370335Y-156047131D01*
X141506235Y-156264405D01*
X141597135Y-156504017D01*
X141628916Y-156693429D01*
X141657388Y-157111072D01*
X141677058Y-157399606D01*
X141671276Y-157591572D01*
X141648240Y-157691549D01*
X141613735Y-157841303D01*
X141508580Y-158075010D01*
X141471209Y-158127450D01*
X141359852Y-158283712D01*
X141173265Y-158459387D01*
X141037570Y-158544261D01*
X141018169Y-158559229D01*
X141002061Y-158577694D01*
X140994594Y-158589522D01*
X140170846Y-160072549D01*
X140061579Y-160230497D01*
X140061577Y-160230499D01*
X139877463Y-160408763D01*
X139662110Y-160547681D01*
X139662108Y-160547682D01*
X139639546Y-160556603D01*
X139423789Y-160641920D01*
X139244840Y-160674520D01*
X139171665Y-160687852D01*
X138915425Y-160683714D01*
X138664914Y-160629667D01*
X138531643Y-160571926D01*
X138429761Y-160527785D01*
X138318312Y-160450686D01*
X138219004Y-160381986D01*
X138172543Y-160334000D01*
X138040738Y-160197870D01*
X137901820Y-159982517D01*
X137807581Y-159744196D01*
X137774981Y-159565247D01*
X137761649Y-159492072D01*
X137765787Y-159235832D01*
X137819834Y-158985321D01*
X137896187Y-158809090D01*
X138769154Y-157237451D01*
X138878421Y-157079503D01*
X138995038Y-156966592D01*
X139010887Y-156947904D01*
X139022786Y-156926482D01*
X139030277Y-156903151D01*
X139032202Y-156876521D01*
X139032757Y-156876538D01*
X139038724Y-156678428D01*
X139096264Y-156428701D01*
X139096265Y-156428697D01*
X139201420Y-156194990D01*
X139254925Y-156119910D01*
X139350148Y-155986288D01*
X139536735Y-155810613D01*
X139620380Y-155758295D01*
X139754009Y-155674713D01*
X139993621Y-155583813D01*
X140246362Y-155541406D01*
X140246366Y-155541406D01*
X140502521Y-155549120D01*
G37*
G36*
X145756379Y-155583813D02*
G01*
X145995991Y-155674713D01*
X146129620Y-155758295D01*
X146213265Y-155810613D01*
X146399852Y-155986288D01*
X146495075Y-156119910D01*
X146548580Y-156194990D01*
X146653735Y-156428697D01*
X146653736Y-156428701D01*
X146711276Y-156678428D01*
X146717243Y-156876540D01*
X146717450Y-156876534D01*
X146717942Y-156892796D01*
X146723447Y-156916674D01*
X146733504Y-156939019D01*
X146754962Y-156966592D01*
X146871579Y-157079503D01*
X146980846Y-157237451D01*
X147853813Y-158809089D01*
X147930166Y-158985320D01*
X147984213Y-159235831D01*
X147988351Y-159492072D01*
X147975019Y-159565247D01*
X147942419Y-159744196D01*
X147848180Y-159982517D01*
X147709262Y-160197870D01*
X147577457Y-160334000D01*
X147530996Y-160381986D01*
X147431688Y-160450686D01*
X147320239Y-160527785D01*
X147218357Y-160571926D01*
X147085086Y-160629667D01*
X146834575Y-160683714D01*
X146578334Y-160687852D01*
X146505159Y-160674520D01*
X146326210Y-160641920D01*
X146087889Y-160547682D01*
X145872537Y-160408763D01*
X145688423Y-160230499D01*
X145688421Y-160230497D01*
X145579154Y-160072549D01*
X144755413Y-158589534D01*
X144741477Y-158569389D01*
X144723872Y-158552344D01*
X144712430Y-158544261D01*
X144576735Y-158459387D01*
X144390148Y-158283712D01*
X144278791Y-158127450D01*
X144241420Y-158075010D01*
X144136265Y-157841303D01*
X144101760Y-157691549D01*
X144078724Y-157591572D01*
X144072942Y-157399608D01*
X144121084Y-156693428D01*
X144133044Y-156622148D01*
X144152865Y-156504017D01*
X144243765Y-156264405D01*
X144379665Y-156047131D01*
X144436950Y-155986288D01*
X144555340Y-155860544D01*
X144711602Y-155749187D01*
X144764042Y-155711816D01*
X144997749Y-155606661D01*
X144997753Y-155606660D01*
X145247479Y-155549120D01*
X145503634Y-155541406D01*
X145503638Y-155541406D01*
X145756379Y-155583813D01*
G37*
G36*
X134001000Y-160671000D02*
G01*
X132699000Y-160671000D01*
X132699000Y-159369000D01*
X134001000Y-159369000D01*
X134001000Y-160671000D01*
G37*
G36*
X95901000Y-159706000D02*
G01*
X94599000Y-159706000D01*
X94599000Y-158404000D01*
X95901000Y-158404000D01*
X95901000Y-159706000D01*
G37*
G36*
X76448228Y-157841703D02*
G01*
X76603100Y-157905853D01*
X76742481Y-157998985D01*
X76861015Y-158117519D01*
X76954147Y-158256900D01*
X77018297Y-158411772D01*
X77051000Y-158576184D01*
X77051000Y-158743816D01*
X77018297Y-158908228D01*
X76954147Y-159063100D01*
X76861015Y-159202481D01*
X76742481Y-159321015D01*
X76603100Y-159414147D01*
X76448228Y-159478297D01*
X76283816Y-159511000D01*
X76116184Y-159511000D01*
X75951772Y-159478297D01*
X75796900Y-159414147D01*
X75657519Y-159321015D01*
X75538985Y-159202481D01*
X75445853Y-159063100D01*
X75381703Y-158908228D01*
X75349000Y-158743816D01*
X75349000Y-158576184D01*
X75381703Y-158411772D01*
X75445853Y-158256900D01*
X75538985Y-158117519D01*
X75657519Y-157998985D01*
X75796900Y-157905853D01*
X75951772Y-157841703D01*
X76116184Y-157809000D01*
X76283816Y-157809000D01*
X76448228Y-157841703D01*
G37*
G36*
X88606379Y-153202813D02*
G01*
X88845991Y-153293713D01*
X89063265Y-153429613D01*
X89249852Y-153605288D01*
X89336376Y-153726703D01*
X89398580Y-153813990D01*
X89503735Y-154047697D01*
X89503736Y-154047701D01*
X89561276Y-154297428D01*
X89567243Y-154495540D01*
X89567450Y-154495534D01*
X89567942Y-154511796D01*
X89573447Y-154535674D01*
X89583504Y-154558019D01*
X89604962Y-154585592D01*
X89721579Y-154698503D01*
X89830846Y-154856451D01*
X90703813Y-156428089D01*
X90780166Y-156604320D01*
X90834213Y-156854831D01*
X90838351Y-157111072D01*
X90825019Y-157184247D01*
X90792419Y-157363196D01*
X90698180Y-157601517D01*
X90559262Y-157816870D01*
X90393899Y-157987660D01*
X90380996Y-158000986D01*
X90281688Y-158069686D01*
X90170239Y-158146785D01*
X90068357Y-158190926D01*
X89935086Y-158248667D01*
X89684575Y-158302714D01*
X89428334Y-158306852D01*
X89355159Y-158293520D01*
X89176210Y-158260920D01*
X88937889Y-158166682D01*
X88722537Y-158027763D01*
X88538423Y-157849499D01*
X88538421Y-157849497D01*
X88429154Y-157691549D01*
X87605413Y-156208534D01*
X87591477Y-156188389D01*
X87573872Y-156171344D01*
X87562430Y-156163261D01*
X87426735Y-156078387D01*
X87240148Y-155902712D01*
X87104111Y-155711818D01*
X87091420Y-155694010D01*
X86986265Y-155460303D01*
X86951530Y-155309550D01*
X86928724Y-155210572D01*
X86922942Y-155018608D01*
X86971084Y-154312428D01*
X86975650Y-154285213D01*
X87002865Y-154123017D01*
X87093765Y-153883405D01*
X87229665Y-153666131D01*
X87231846Y-153663815D01*
X87405340Y-153479544D01*
X87612701Y-153331772D01*
X87614042Y-153330816D01*
X87847749Y-153225661D01*
X87879709Y-153218297D01*
X88097479Y-153168120D01*
X88353634Y-153160406D01*
X88353638Y-153160406D01*
X88606379Y-153202813D01*
G37*
G36*
X126706379Y-153202813D02*
G01*
X126945991Y-153293713D01*
X127163265Y-153429613D01*
X127349852Y-153605288D01*
X127436376Y-153726703D01*
X127498580Y-153813990D01*
X127603735Y-154047697D01*
X127603736Y-154047701D01*
X127661276Y-154297428D01*
X127667243Y-154495540D01*
X127667450Y-154495534D01*
X127667942Y-154511796D01*
X127673447Y-154535674D01*
X127683504Y-154558019D01*
X127704962Y-154585592D01*
X127821579Y-154698503D01*
X127930846Y-154856451D01*
X128803813Y-156428089D01*
X128880166Y-156604320D01*
X128934213Y-156854831D01*
X128938351Y-157111072D01*
X128925019Y-157184247D01*
X128892419Y-157363196D01*
X128798180Y-157601517D01*
X128659262Y-157816870D01*
X128493899Y-157987660D01*
X128480996Y-158000986D01*
X128381688Y-158069686D01*
X128270239Y-158146785D01*
X128168357Y-158190926D01*
X128035086Y-158248667D01*
X127784575Y-158302714D01*
X127528334Y-158306852D01*
X127455159Y-158293520D01*
X127276210Y-158260920D01*
X127037889Y-158166682D01*
X126822537Y-158027763D01*
X126638423Y-157849499D01*
X126638421Y-157849497D01*
X126529154Y-157691549D01*
X125705413Y-156208534D01*
X125691477Y-156188389D01*
X125673872Y-156171344D01*
X125662430Y-156163261D01*
X125526735Y-156078387D01*
X125340148Y-155902712D01*
X125204111Y-155711818D01*
X125191420Y-155694010D01*
X125086265Y-155460303D01*
X125051530Y-155309550D01*
X125028724Y-155210572D01*
X125022942Y-155018608D01*
X125071084Y-154312428D01*
X125075650Y-154285213D01*
X125102865Y-154123017D01*
X125193765Y-153883405D01*
X125329665Y-153666131D01*
X125331846Y-153663815D01*
X125505340Y-153479544D01*
X125712701Y-153331772D01*
X125714042Y-153330816D01*
X125947749Y-153225661D01*
X125979709Y-153218297D01*
X126197479Y-153168120D01*
X126453634Y-153160406D01*
X126453638Y-153160406D01*
X126706379Y-153202813D01*
G37*
G36*
X121452521Y-153168120D02*
G01*
X121670291Y-153218297D01*
X121702251Y-153225661D01*
X121935958Y-153330816D01*
X121937299Y-153331772D01*
X122144660Y-153479544D01*
X122318154Y-153663815D01*
X122320335Y-153666131D01*
X122456235Y-153883405D01*
X122547135Y-154123017D01*
X122578916Y-154312429D01*
X122607319Y-154729072D01*
X122627058Y-155018606D01*
X122621276Y-155210572D01*
X122598470Y-155309550D01*
X122563735Y-155460303D01*
X122458580Y-155694010D01*
X122445889Y-155711818D01*
X122309852Y-155902712D01*
X122123265Y-156078387D01*
X121987570Y-156163261D01*
X121968169Y-156178229D01*
X121952061Y-156196694D01*
X121944594Y-156208522D01*
X121120846Y-157691549D01*
X121011579Y-157849497D01*
X121011577Y-157849499D01*
X120827463Y-158027763D01*
X120642953Y-158146785D01*
X120612108Y-158166682D01*
X120589546Y-158175603D01*
X120373789Y-158260920D01*
X120194840Y-158293520D01*
X120121665Y-158306852D01*
X119865425Y-158302714D01*
X119614914Y-158248667D01*
X119481643Y-158190926D01*
X119379761Y-158146785D01*
X119268312Y-158069686D01*
X119169004Y-158000986D01*
X119156101Y-157987660D01*
X118990738Y-157816870D01*
X118851820Y-157601517D01*
X118757581Y-157363196D01*
X118724981Y-157184247D01*
X118711649Y-157111072D01*
X118715787Y-156854832D01*
X118769834Y-156604321D01*
X118846187Y-156428090D01*
X119719154Y-154856451D01*
X119828421Y-154698503D01*
X119945038Y-154585592D01*
X119960887Y-154566904D01*
X119972786Y-154545482D01*
X119980277Y-154522151D01*
X119982202Y-154495521D01*
X119982757Y-154495538D01*
X119988724Y-154297428D01*
X120046264Y-154047701D01*
X120046265Y-154047697D01*
X120151420Y-153813990D01*
X120213624Y-153726703D01*
X120300148Y-153605288D01*
X120486735Y-153429613D01*
X120704009Y-153293713D01*
X120943621Y-153202813D01*
X121196362Y-153160406D01*
X121196366Y-153160406D01*
X121452521Y-153168120D01*
G37*
G36*
X83352521Y-153168120D02*
G01*
X83570291Y-153218297D01*
X83602251Y-153225661D01*
X83835958Y-153330816D01*
X83837299Y-153331772D01*
X84044660Y-153479544D01*
X84218154Y-153663815D01*
X84220335Y-153666131D01*
X84356235Y-153883405D01*
X84447135Y-154123017D01*
X84478916Y-154312429D01*
X84507319Y-154729072D01*
X84527058Y-155018606D01*
X84521276Y-155210572D01*
X84498470Y-155309550D01*
X84463735Y-155460303D01*
X84358580Y-155694010D01*
X84345889Y-155711818D01*
X84209852Y-155902712D01*
X84023265Y-156078387D01*
X83887570Y-156163261D01*
X83868169Y-156178229D01*
X83852061Y-156196694D01*
X83844594Y-156208522D01*
X83020846Y-157691549D01*
X82911579Y-157849497D01*
X82911577Y-157849499D01*
X82727463Y-158027763D01*
X82542953Y-158146785D01*
X82512108Y-158166682D01*
X82489546Y-158175603D01*
X82273789Y-158260920D01*
X82094840Y-158293520D01*
X82021665Y-158306852D01*
X81765425Y-158302714D01*
X81514914Y-158248667D01*
X81381643Y-158190926D01*
X81279761Y-158146785D01*
X81168312Y-158069686D01*
X81069004Y-158000986D01*
X81056101Y-157987660D01*
X80890738Y-157816870D01*
X80751820Y-157601517D01*
X80657581Y-157363196D01*
X80624981Y-157184247D01*
X80611649Y-157111072D01*
X80615787Y-156854832D01*
X80669834Y-156604321D01*
X80746187Y-156428090D01*
X81619154Y-154856451D01*
X81728421Y-154698503D01*
X81845038Y-154585592D01*
X81860887Y-154566904D01*
X81872786Y-154545482D01*
X81880277Y-154522151D01*
X81882202Y-154495521D01*
X81882757Y-154495538D01*
X81888724Y-154297428D01*
X81946264Y-154047701D01*
X81946265Y-154047697D01*
X82051420Y-153813990D01*
X82113624Y-153726703D01*
X82200148Y-153605288D01*
X82386735Y-153429613D01*
X82604009Y-153293713D01*
X82843621Y-153202813D01*
X83096362Y-153160406D01*
X83096366Y-153160406D01*
X83352521Y-153168120D01*
G37*
G36*
X114951000Y-157826000D02*
G01*
X113649000Y-157826000D01*
X113649000Y-156524000D01*
X114951000Y-156524000D01*
X114951000Y-157826000D01*
G37*
G36*
X134001000Y-157521000D02*
G01*
X132699000Y-157521000D01*
X132699000Y-156219000D01*
X134001000Y-156219000D01*
X134001000Y-157521000D01*
G37*
G36*
X76290254Y-152967818D02*
G01*
X76663511Y-153122426D01*
X76663513Y-153122427D01*
X76999436Y-153346884D01*
X77285116Y-153632564D01*
X77502486Y-153957880D01*
X77509574Y-153968489D01*
X77664182Y-154341746D01*
X77743000Y-154737993D01*
X77743000Y-155142007D01*
X77664182Y-155538254D01*
X77509574Y-155911511D01*
X77509573Y-155911513D01*
X77285116Y-156247436D01*
X76999436Y-156533116D01*
X76663513Y-156757573D01*
X76663512Y-156757574D01*
X76663511Y-156757574D01*
X76290254Y-156912182D01*
X75894007Y-156991000D01*
X75489993Y-156991000D01*
X75093746Y-156912182D01*
X74720489Y-156757574D01*
X74720488Y-156757574D01*
X74720487Y-156757573D01*
X74384564Y-156533116D01*
X74098884Y-156247436D01*
X73874427Y-155911513D01*
X73874426Y-155911511D01*
X73719818Y-155538254D01*
X73641000Y-155142007D01*
X73641000Y-154737993D01*
X73719818Y-154341746D01*
X73874426Y-153968489D01*
X73881515Y-153957880D01*
X74098884Y-153632564D01*
X74384564Y-153346884D01*
X74720487Y-153122427D01*
X74720489Y-153122426D01*
X75093746Y-152967818D01*
X75489993Y-152889000D01*
X75894007Y-152889000D01*
X76290254Y-152967818D01*
G37*
G36*
X95901000Y-156556000D02*
G01*
X94599000Y-156556000D01*
X94599000Y-155254000D01*
X95901000Y-155254000D01*
X95901000Y-156556000D01*
G37*
G36*
X102402521Y-150786120D02*
G01*
X102652247Y-150843660D01*
X102652251Y-150843661D01*
X102885958Y-150948816D01*
X102938398Y-150986187D01*
X103094660Y-151097544D01*
X103213050Y-151223288D01*
X103270335Y-151284131D01*
X103406235Y-151501405D01*
X103497135Y-151741017D01*
X103528916Y-151930429D01*
X103557460Y-152349130D01*
X103577058Y-152636606D01*
X103571276Y-152828572D01*
X103550444Y-152918985D01*
X103513735Y-153078303D01*
X103408580Y-153312010D01*
X103383727Y-153346884D01*
X103259852Y-153520712D01*
X103073265Y-153696387D01*
X102937570Y-153781261D01*
X102918169Y-153796229D01*
X102902061Y-153814694D01*
X102894594Y-153826522D01*
X102070846Y-155309549D01*
X101961579Y-155467497D01*
X101961577Y-155467499D01*
X101777463Y-155645763D01*
X101592953Y-155764785D01*
X101562108Y-155784682D01*
X101546130Y-155791000D01*
X101323789Y-155878920D01*
X101144892Y-155911511D01*
X101071665Y-155924852D01*
X100815425Y-155920714D01*
X100564914Y-155866667D01*
X100390268Y-155791000D01*
X100329761Y-155764785D01*
X100199561Y-155674714D01*
X100119004Y-155618986D01*
X100107070Y-155606660D01*
X99940738Y-155434870D01*
X99801820Y-155219517D01*
X99707581Y-154981196D01*
X99673338Y-154793229D01*
X99661649Y-154729072D01*
X99665787Y-154472832D01*
X99719834Y-154222321D01*
X99796187Y-154046090D01*
X100669154Y-152474451D01*
X100778421Y-152316503D01*
X100895038Y-152203592D01*
X100910887Y-152184904D01*
X100922786Y-152163482D01*
X100930277Y-152140151D01*
X100932202Y-152113521D01*
X100932757Y-152113538D01*
X100938724Y-151915428D01*
X100996264Y-151665701D01*
X100996265Y-151665697D01*
X101101420Y-151431990D01*
X101138791Y-151379550D01*
X101250148Y-151223288D01*
X101436735Y-151047613D01*
X101654009Y-150911713D01*
X101893621Y-150820813D01*
X102146362Y-150778406D01*
X102146366Y-150778406D01*
X102402521Y-150786120D01*
G37*
G36*
X107656379Y-150820813D02*
G01*
X107895991Y-150911713D01*
X108113265Y-151047613D01*
X108299852Y-151223288D01*
X108411209Y-151379550D01*
X108448580Y-151431990D01*
X108553735Y-151665697D01*
X108553736Y-151665701D01*
X108611276Y-151915428D01*
X108617243Y-152113540D01*
X108617450Y-152113534D01*
X108617942Y-152129796D01*
X108623447Y-152153674D01*
X108633504Y-152176019D01*
X108654962Y-152203592D01*
X108771579Y-152316503D01*
X108880846Y-152474451D01*
X109753813Y-154046089D01*
X109830166Y-154222320D01*
X109884213Y-154472831D01*
X109888351Y-154729072D01*
X109876662Y-154793229D01*
X109842419Y-154981196D01*
X109748180Y-155219517D01*
X109609262Y-155434870D01*
X109442930Y-155606660D01*
X109430996Y-155618986D01*
X109350439Y-155674714D01*
X109220239Y-155764785D01*
X109159732Y-155791000D01*
X108985086Y-155866667D01*
X108734575Y-155920714D01*
X108478334Y-155924852D01*
X108405107Y-155911511D01*
X108226210Y-155878920D01*
X107987889Y-155784682D01*
X107772537Y-155645763D01*
X107588423Y-155467499D01*
X107588421Y-155467497D01*
X107479154Y-155309549D01*
X106655413Y-153826534D01*
X106641477Y-153806389D01*
X106623872Y-153789344D01*
X106612430Y-153781261D01*
X106476735Y-153696387D01*
X106290148Y-153520712D01*
X106166273Y-153346884D01*
X106141420Y-153312010D01*
X106036265Y-153078303D01*
X105999556Y-152918985D01*
X105978724Y-152828572D01*
X105972942Y-152636608D01*
X106021084Y-151930428D01*
X106033044Y-151859148D01*
X106052865Y-151741017D01*
X106143765Y-151501405D01*
X106279665Y-151284131D01*
X106336950Y-151223288D01*
X106455340Y-151097544D01*
X106611602Y-150986187D01*
X106664042Y-150948816D01*
X106897749Y-150843661D01*
X106897753Y-150843660D01*
X107147479Y-150786120D01*
X107403634Y-150778406D01*
X107403638Y-150778406D01*
X107656379Y-150820813D01*
G37*
G36*
X70791000Y-155791000D02*
G01*
X69089000Y-155791000D01*
X69089000Y-154089000D01*
X70791000Y-154089000D01*
X70791000Y-155791000D01*
G37*
G36*
X62388228Y-154121703D02*
G01*
X62543100Y-154185853D01*
X62682481Y-154278985D01*
X62801015Y-154397519D01*
X62894147Y-154536900D01*
X62958297Y-154691772D01*
X62991000Y-154856184D01*
X62991000Y-155023816D01*
X62958297Y-155188228D01*
X62894147Y-155343100D01*
X62801015Y-155482481D01*
X62682481Y-155601015D01*
X62543100Y-155694147D01*
X62388228Y-155758297D01*
X62223816Y-155791000D01*
X62056184Y-155791000D01*
X61891772Y-155758297D01*
X61736900Y-155694147D01*
X61597519Y-155601015D01*
X61478985Y-155482481D01*
X61385853Y-155343100D01*
X61321703Y-155188228D01*
X61289000Y-155023816D01*
X61289000Y-154856184D01*
X61321703Y-154691772D01*
X61385853Y-154536900D01*
X61478985Y-154397519D01*
X61597519Y-154278985D01*
X61736900Y-154185853D01*
X61891772Y-154121703D01*
X62056184Y-154089000D01*
X62223816Y-154089000D01*
X62388228Y-154121703D01*
G37*
G36*
X114548228Y-154031703D02*
G01*
X114703100Y-154095853D01*
X114842481Y-154188985D01*
X114961015Y-154307519D01*
X115054147Y-154446900D01*
X115118297Y-154601772D01*
X115151000Y-154766184D01*
X115151000Y-154933816D01*
X115118297Y-155098228D01*
X115054147Y-155253100D01*
X114961015Y-155392481D01*
X114842481Y-155511015D01*
X114703100Y-155604147D01*
X114548228Y-155668297D01*
X114383816Y-155701000D01*
X114216184Y-155701000D01*
X114051772Y-155668297D01*
X113896900Y-155604147D01*
X113757519Y-155511015D01*
X113638985Y-155392481D01*
X113545853Y-155253100D01*
X113481703Y-155098228D01*
X113449000Y-154933816D01*
X113449000Y-154766184D01*
X113481703Y-154601772D01*
X113545853Y-154446900D01*
X113638985Y-154307519D01*
X113757519Y-154188985D01*
X113896900Y-154095853D01*
X114051772Y-154031703D01*
X114216184Y-153999000D01*
X114383816Y-153999000D01*
X114548228Y-154031703D01*
G37*
G36*
X68266000Y-155591000D02*
G01*
X66964000Y-155591000D01*
X66964000Y-154289000D01*
X68266000Y-154289000D01*
X68266000Y-155591000D01*
G37*
G36*
X65116000Y-155591000D02*
G01*
X63814000Y-155591000D01*
X63814000Y-154289000D01*
X65116000Y-154289000D01*
X65116000Y-155591000D01*
G37*
G36*
X133598228Y-153726703D02*
G01*
X133753100Y-153790853D01*
X133892481Y-153883985D01*
X134011015Y-154002519D01*
X134104147Y-154141900D01*
X134168297Y-154296772D01*
X134201000Y-154461184D01*
X134201000Y-154628816D01*
X134168297Y-154793228D01*
X134104147Y-154948100D01*
X134011015Y-155087481D01*
X133892481Y-155206015D01*
X133753100Y-155299147D01*
X133598228Y-155363297D01*
X133433816Y-155396000D01*
X133266184Y-155396000D01*
X133101772Y-155363297D01*
X132946900Y-155299147D01*
X132807519Y-155206015D01*
X132688985Y-155087481D01*
X132595853Y-154948100D01*
X132531703Y-154793228D01*
X132499000Y-154628816D01*
X132499000Y-154461184D01*
X132531703Y-154296772D01*
X132595853Y-154141900D01*
X132688985Y-154002519D01*
X132807519Y-153883985D01*
X132946900Y-153790853D01*
X133101772Y-153726703D01*
X133266184Y-153694000D01*
X133433816Y-153694000D01*
X133598228Y-153726703D01*
G37*
G36*
X95498228Y-152761703D02*
G01*
X95653100Y-152825853D01*
X95792481Y-152918985D01*
X95911015Y-153037519D01*
X96004147Y-153176900D01*
X96068297Y-153331772D01*
X96101000Y-153496184D01*
X96101000Y-153663816D01*
X96068297Y-153828228D01*
X96004147Y-153983100D01*
X95911015Y-154122481D01*
X95792481Y-154241015D01*
X95653100Y-154334147D01*
X95498228Y-154398297D01*
X95333816Y-154431000D01*
X95166184Y-154431000D01*
X95001772Y-154398297D01*
X94846900Y-154334147D01*
X94707519Y-154241015D01*
X94588985Y-154122481D01*
X94495853Y-153983100D01*
X94431703Y-153828228D01*
X94399000Y-153663816D01*
X94399000Y-153496184D01*
X94431703Y-153331772D01*
X94495853Y-153176900D01*
X94588985Y-153037519D01*
X94707519Y-152918985D01*
X94846900Y-152825853D01*
X95001772Y-152761703D01*
X95166184Y-152729000D01*
X95333816Y-152729000D01*
X95498228Y-152761703D01*
G37*
G36*
X139826000Y-153251000D02*
G01*
X138124000Y-153251000D01*
X138124000Y-151549000D01*
X139826000Y-151549000D01*
X139826000Y-153251000D01*
G37*
G36*
X147023228Y-151581703D02*
G01*
X147178100Y-151645853D01*
X147317481Y-151738985D01*
X147436015Y-151857519D01*
X147529147Y-151996900D01*
X147593297Y-152151772D01*
X147626000Y-152316184D01*
X147626000Y-152483816D01*
X147593297Y-152648228D01*
X147529147Y-152803100D01*
X147436015Y-152942481D01*
X147317481Y-153061015D01*
X147178100Y-153154147D01*
X147023228Y-153218297D01*
X146858816Y-153251000D01*
X146691184Y-153251000D01*
X146526772Y-153218297D01*
X146371900Y-153154147D01*
X146232519Y-153061015D01*
X146113985Y-152942481D01*
X146020853Y-152803100D01*
X145956703Y-152648228D01*
X145924000Y-152483816D01*
X145924000Y-152316184D01*
X145956703Y-152151772D01*
X146020853Y-151996900D01*
X146113985Y-151857519D01*
X146232519Y-151738985D01*
X146371900Y-151645853D01*
X146526772Y-151581703D01*
X146691184Y-151549000D01*
X146858816Y-151549000D01*
X147023228Y-151581703D01*
G37*
G36*
X141951000Y-153051000D02*
G01*
X140649000Y-153051000D01*
X140649000Y-151749000D01*
X141951000Y-151749000D01*
X141951000Y-153051000D01*
G37*
G36*
X145101000Y-153051000D02*
G01*
X143799000Y-153051000D01*
X143799000Y-151749000D01*
X145101000Y-151749000D01*
X145101000Y-153051000D01*
G37*
G36*
X89873228Y-149041703D02*
G01*
X90028100Y-149105853D01*
X90167481Y-149198985D01*
X90286015Y-149317519D01*
X90379147Y-149456900D01*
X90443297Y-149611772D01*
X90476000Y-149776184D01*
X90476000Y-149943816D01*
X90443297Y-150108228D01*
X90379147Y-150263100D01*
X90286015Y-150402481D01*
X90167481Y-150521015D01*
X90028100Y-150614147D01*
X89873228Y-150678297D01*
X89708816Y-150711000D01*
X89541184Y-150711000D01*
X89376772Y-150678297D01*
X89221900Y-150614147D01*
X89082519Y-150521015D01*
X88963985Y-150402481D01*
X88870853Y-150263100D01*
X88806703Y-150108228D01*
X88774000Y-149943816D01*
X88774000Y-149776184D01*
X88806703Y-149611772D01*
X88870853Y-149456900D01*
X88963985Y-149317519D01*
X89082519Y-149198985D01*
X89221900Y-149105853D01*
X89376772Y-149041703D01*
X89541184Y-149009000D01*
X89708816Y-149009000D01*
X89873228Y-149041703D01*
G37*
G36*
X127973228Y-149041703D02*
G01*
X128128100Y-149105853D01*
X128267481Y-149198985D01*
X128386015Y-149317519D01*
X128479147Y-149456900D01*
X128543297Y-149611772D01*
X128576000Y-149776184D01*
X128576000Y-149943816D01*
X128543297Y-150108228D01*
X128479147Y-150263100D01*
X128386015Y-150402481D01*
X128267481Y-150521015D01*
X128128100Y-150614147D01*
X127973228Y-150678297D01*
X127808816Y-150711000D01*
X127641184Y-150711000D01*
X127476772Y-150678297D01*
X127321900Y-150614147D01*
X127182519Y-150521015D01*
X127063985Y-150402481D01*
X126970853Y-150263100D01*
X126906703Y-150108228D01*
X126874000Y-149943816D01*
X126874000Y-149776184D01*
X126906703Y-149611772D01*
X126970853Y-149456900D01*
X127063985Y-149317519D01*
X127182519Y-149198985D01*
X127321900Y-149105853D01*
X127476772Y-149041703D01*
X127641184Y-149009000D01*
X127808816Y-149009000D01*
X127973228Y-149041703D01*
G37*
G36*
X120776000Y-150711000D02*
G01*
X119074000Y-150711000D01*
X119074000Y-149009000D01*
X120776000Y-149009000D01*
X120776000Y-150711000D01*
G37*
G36*
X82676000Y-150711000D02*
G01*
X80974000Y-150711000D01*
X80974000Y-149009000D01*
X82676000Y-149009000D01*
X82676000Y-150711000D01*
G37*
G36*
X126051000Y-150511000D02*
G01*
X124749000Y-150511000D01*
X124749000Y-149209000D01*
X126051000Y-149209000D01*
X126051000Y-150511000D01*
G37*
G36*
X122901000Y-150511000D02*
G01*
X121599000Y-150511000D01*
X121599000Y-149209000D01*
X122901000Y-149209000D01*
X122901000Y-150511000D01*
G37*
G36*
X87951000Y-150511000D02*
G01*
X86649000Y-150511000D01*
X86649000Y-149209000D01*
X87951000Y-149209000D01*
X87951000Y-150511000D01*
G37*
G36*
X84801000Y-150511000D02*
G01*
X83499000Y-150511000D01*
X83499000Y-149209000D01*
X84801000Y-149209000D01*
X84801000Y-150511000D01*
G37*
G36*
X101758228Y-146501703D02*
G01*
X101913100Y-146565853D01*
X102052481Y-146658985D01*
X102171015Y-146777519D01*
X102264147Y-146916900D01*
X102328297Y-147071772D01*
X102361000Y-147236184D01*
X102361000Y-147403816D01*
X102328297Y-147568228D01*
X102264147Y-147723100D01*
X102171015Y-147862481D01*
X102052481Y-147981015D01*
X101913100Y-148074147D01*
X101758228Y-148138297D01*
X101593816Y-148171000D01*
X101426184Y-148171000D01*
X101261772Y-148138297D01*
X101106900Y-148074147D01*
X100967519Y-147981015D01*
X100848985Y-147862481D01*
X100755853Y-147723100D01*
X100691703Y-147568228D01*
X100659000Y-147403816D01*
X100659000Y-147236184D01*
X100691703Y-147071772D01*
X100755853Y-146916900D01*
X100848985Y-146777519D01*
X100967519Y-146658985D01*
X101106900Y-146565853D01*
X101261772Y-146501703D01*
X101426184Y-146469000D01*
X101593816Y-146469000D01*
X101758228Y-146501703D01*
G37*
G36*
X110161000Y-148171000D02*
G01*
X108459000Y-148171000D01*
X108459000Y-146469000D01*
X110161000Y-146469000D01*
X110161000Y-148171000D01*
G37*
G36*
X107636000Y-147971000D02*
G01*
X106334000Y-147971000D01*
X106334000Y-146669000D01*
X107636000Y-146669000D01*
X107636000Y-147971000D01*
G37*
G36*
X104486000Y-147971000D02*
G01*
X103184000Y-147971000D01*
X103184000Y-146669000D01*
X104486000Y-146669000D01*
X104486000Y-147971000D01*
G37*
G36*
X134201000Y-146991000D02*
G01*
X132499000Y-146991000D01*
X132499000Y-145289000D01*
X134201000Y-145289000D01*
X134201000Y-146991000D01*
G37*
G36*
X115151000Y-145721000D02*
G01*
X113449000Y-145721000D01*
X113449000Y-144019000D01*
X115151000Y-144019000D01*
X115151000Y-145721000D01*
G37*
G36*
X134001000Y-144466000D02*
G01*
X132699000Y-144466000D01*
X132699000Y-143164000D01*
X134001000Y-143164000D01*
X134001000Y-144466000D01*
G37*
G36*
X69556379Y-138914813D02*
G01*
X69795991Y-139005713D01*
X69937377Y-139094147D01*
X70013265Y-139141613D01*
X70199852Y-139317288D01*
X70295075Y-139450910D01*
X70348580Y-139525990D01*
X70453735Y-139759697D01*
X70453736Y-139759701D01*
X70511276Y-140009428D01*
X70517243Y-140207540D01*
X70517450Y-140207534D01*
X70517942Y-140223796D01*
X70523447Y-140247674D01*
X70533504Y-140270019D01*
X70554962Y-140297592D01*
X70671579Y-140410503D01*
X70780846Y-140568451D01*
X71653813Y-142140089D01*
X71730166Y-142316320D01*
X71784213Y-142566831D01*
X71788351Y-142823072D01*
X71775019Y-142896247D01*
X71742419Y-143075196D01*
X71648180Y-143313517D01*
X71509262Y-143528870D01*
X71330998Y-143712984D01*
X71330996Y-143712986D01*
X71231688Y-143781686D01*
X71120239Y-143858785D01*
X71018357Y-143902926D01*
X70885086Y-143960667D01*
X70634575Y-144014714D01*
X70378334Y-144018852D01*
X70305159Y-144005520D01*
X70126210Y-143972920D01*
X69887889Y-143878682D01*
X69672537Y-143739763D01*
X69488423Y-143561499D01*
X69488421Y-143561497D01*
X69379154Y-143403549D01*
X68555413Y-141920534D01*
X68541477Y-141900389D01*
X68523872Y-141883344D01*
X68512430Y-141875261D01*
X68376735Y-141790387D01*
X68190148Y-141614712D01*
X68078791Y-141458450D01*
X68041420Y-141406010D01*
X67936265Y-141172303D01*
X67901760Y-141022549D01*
X67878724Y-140922572D01*
X67872942Y-140730608D01*
X67921084Y-140024428D01*
X67933044Y-139953148D01*
X67952865Y-139835017D01*
X68043765Y-139595405D01*
X68179665Y-139378131D01*
X68236950Y-139317288D01*
X68355340Y-139191544D01*
X68511602Y-139080187D01*
X68564042Y-139042816D01*
X68797749Y-138937661D01*
X68797753Y-138937660D01*
X69047479Y-138880120D01*
X69303634Y-138872406D01*
X69303638Y-138872406D01*
X69556379Y-138914813D01*
G37*
G36*
X64302521Y-138880120D02*
G01*
X64552247Y-138937660D01*
X64552251Y-138937661D01*
X64785958Y-139042816D01*
X64838398Y-139080187D01*
X64994660Y-139191544D01*
X65113050Y-139317288D01*
X65170335Y-139378131D01*
X65306235Y-139595405D01*
X65397135Y-139835017D01*
X65428916Y-140024429D01*
X65457388Y-140442072D01*
X65477058Y-140730606D01*
X65471276Y-140922572D01*
X65448240Y-141022549D01*
X65413735Y-141172303D01*
X65308580Y-141406010D01*
X65271209Y-141458450D01*
X65159852Y-141614712D01*
X64973265Y-141790387D01*
X64837570Y-141875261D01*
X64818169Y-141890229D01*
X64802061Y-141908694D01*
X64794594Y-141920522D01*
X63970846Y-143403549D01*
X63861579Y-143561497D01*
X63861577Y-143561499D01*
X63677463Y-143739763D01*
X63492953Y-143858785D01*
X63462108Y-143878682D01*
X63439546Y-143887603D01*
X63223789Y-143972920D01*
X63044840Y-144005520D01*
X62971665Y-144018852D01*
X62715425Y-144014714D01*
X62464914Y-143960667D01*
X62331643Y-143902926D01*
X62229761Y-143858785D01*
X62118312Y-143781686D01*
X62019004Y-143712986D01*
X62019002Y-143712984D01*
X61840738Y-143528870D01*
X61701820Y-143313517D01*
X61607581Y-143075196D01*
X61574981Y-142896247D01*
X61561649Y-142823072D01*
X61565787Y-142566832D01*
X61619834Y-142316321D01*
X61696187Y-142140090D01*
X62569154Y-140568451D01*
X62678421Y-140410503D01*
X62795038Y-140297592D01*
X62810887Y-140278904D01*
X62822786Y-140257482D01*
X62830277Y-140234151D01*
X62832202Y-140207521D01*
X62832757Y-140207538D01*
X62838724Y-140009428D01*
X62896264Y-139759701D01*
X62896265Y-139759697D01*
X63001420Y-139525990D01*
X63054925Y-139450910D01*
X63150148Y-139317288D01*
X63336735Y-139141613D01*
X63412623Y-139094147D01*
X63554009Y-139005713D01*
X63793621Y-138914813D01*
X64046362Y-138872406D01*
X64046366Y-138872406D01*
X64302521Y-138880120D01*
G37*
G36*
X114951000Y-143196000D02*
G01*
X113649000Y-143196000D01*
X113649000Y-141894000D01*
X114951000Y-141894000D01*
X114951000Y-143196000D01*
G37*
G36*
X145756379Y-136533813D02*
G01*
X145995991Y-136624713D01*
X146181908Y-136741000D01*
X146213265Y-136760613D01*
X146399852Y-136936288D01*
X146511209Y-137092550D01*
X146548580Y-137144990D01*
X146653735Y-137378697D01*
X146653736Y-137378701D01*
X146711276Y-137628428D01*
X146717243Y-137826540D01*
X146717450Y-137826534D01*
X146717942Y-137842796D01*
X146723447Y-137866674D01*
X146733504Y-137889019D01*
X146754962Y-137916592D01*
X146871579Y-138029503D01*
X146980846Y-138187451D01*
X147853813Y-139759089D01*
X147930166Y-139935320D01*
X147984213Y-140185831D01*
X147988351Y-140442072D01*
X147975019Y-140515247D01*
X147942419Y-140694196D01*
X147848180Y-140932517D01*
X147709262Y-141147870D01*
X147546474Y-141316000D01*
X147530996Y-141331986D01*
X147431688Y-141400686D01*
X147320239Y-141477785D01*
X147218357Y-141521926D01*
X147085086Y-141579667D01*
X146834575Y-141633714D01*
X146578334Y-141637852D01*
X146505159Y-141624520D01*
X146326210Y-141591920D01*
X146087889Y-141497682D01*
X145872537Y-141358763D01*
X145688423Y-141180499D01*
X145688421Y-141180497D01*
X145579154Y-141022549D01*
X144755413Y-139539534D01*
X144741477Y-139519389D01*
X144723872Y-139502344D01*
X144712430Y-139494261D01*
X144576735Y-139409387D01*
X144390148Y-139233712D01*
X144254111Y-139042818D01*
X144241420Y-139025010D01*
X144136265Y-138791303D01*
X144091104Y-138595300D01*
X144078724Y-138541572D01*
X144072942Y-138349608D01*
X144121084Y-137643428D01*
X144133044Y-137572148D01*
X144152865Y-137454017D01*
X144243765Y-137214405D01*
X144379665Y-136997131D01*
X144397249Y-136978455D01*
X144555340Y-136810544D01*
X144756904Y-136666903D01*
X144764042Y-136661816D01*
X144997749Y-136556661D01*
X145022253Y-136551015D01*
X145247479Y-136499120D01*
X145503634Y-136491406D01*
X145503638Y-136491406D01*
X145756379Y-136533813D01*
G37*
G36*
X140502521Y-136499120D02*
G01*
X140727747Y-136551015D01*
X140752251Y-136556661D01*
X140985958Y-136661816D01*
X140993096Y-136666903D01*
X141194660Y-136810544D01*
X141352751Y-136978455D01*
X141370335Y-136997131D01*
X141506235Y-137214405D01*
X141597135Y-137454017D01*
X141628916Y-137643429D01*
X141657388Y-138061072D01*
X141677058Y-138349606D01*
X141671276Y-138541572D01*
X141658896Y-138595300D01*
X141613735Y-138791303D01*
X141508580Y-139025010D01*
X141495889Y-139042818D01*
X141359852Y-139233712D01*
X141173265Y-139409387D01*
X141037570Y-139494261D01*
X141018169Y-139509229D01*
X141002061Y-139527694D01*
X140994594Y-139539522D01*
X140170846Y-141022549D01*
X140061579Y-141180497D01*
X140061577Y-141180499D01*
X139877463Y-141358763D01*
X139692953Y-141477785D01*
X139662108Y-141497682D01*
X139639546Y-141506603D01*
X139423789Y-141591920D01*
X139244840Y-141624520D01*
X139171665Y-141637852D01*
X138915425Y-141633714D01*
X138664914Y-141579667D01*
X138531643Y-141521926D01*
X138429761Y-141477785D01*
X138318312Y-141400686D01*
X138219004Y-141331986D01*
X138203526Y-141316000D01*
X138040738Y-141147870D01*
X137901820Y-140932517D01*
X137807581Y-140694196D01*
X137774981Y-140515247D01*
X137761649Y-140442072D01*
X137765787Y-140185832D01*
X137819834Y-139935321D01*
X137896187Y-139759090D01*
X138769154Y-138187451D01*
X138878421Y-138029503D01*
X138995038Y-137916592D01*
X139010887Y-137897904D01*
X139022786Y-137876482D01*
X139030277Y-137853151D01*
X139032202Y-137826521D01*
X139032757Y-137826538D01*
X139038724Y-137628428D01*
X139096264Y-137378701D01*
X139096265Y-137378697D01*
X139201420Y-137144990D01*
X139238791Y-137092550D01*
X139350148Y-136936288D01*
X139536735Y-136760613D01*
X139568092Y-136741000D01*
X139754009Y-136624713D01*
X139993621Y-136533813D01*
X140246362Y-136491406D01*
X140246366Y-136491406D01*
X140502521Y-136499120D01*
G37*
G36*
X134001000Y-141316000D02*
G01*
X132699000Y-141316000D01*
X132699000Y-140014000D01*
X134001000Y-140014000D01*
X134001000Y-141316000D01*
G37*
G36*
X114951000Y-140046000D02*
G01*
X113649000Y-140046000D01*
X113649000Y-138744000D01*
X114951000Y-138744000D01*
X114951000Y-140046000D01*
G37*
G36*
X83352521Y-134118120D02*
G01*
X83570291Y-134168297D01*
X83602251Y-134175661D01*
X83835958Y-134280816D01*
X83888398Y-134318187D01*
X84044660Y-134429544D01*
X84220335Y-134616131D01*
X84356235Y-134833405D01*
X84447135Y-135073017D01*
X84478916Y-135262429D01*
X84510455Y-135725072D01*
X84527058Y-135968606D01*
X84521276Y-136160572D01*
X84498470Y-136259550D01*
X84463735Y-136410303D01*
X84358580Y-136644010D01*
X84342265Y-136666903D01*
X84209852Y-136852712D01*
X84023265Y-137028387D01*
X83887570Y-137113261D01*
X83868169Y-137128229D01*
X83852061Y-137146694D01*
X83844594Y-137158522D01*
X83020846Y-138641549D01*
X82911579Y-138799497D01*
X82911577Y-138799499D01*
X82727463Y-138977763D01*
X82542953Y-139096785D01*
X82512108Y-139116682D01*
X82489546Y-139125603D01*
X82273789Y-139210920D01*
X82094840Y-139243520D01*
X82021665Y-139256852D01*
X81765425Y-139252714D01*
X81514914Y-139198667D01*
X81381643Y-139140926D01*
X81279761Y-139096785D01*
X81168312Y-139019686D01*
X81069004Y-138950986D01*
X81056101Y-138937660D01*
X80890738Y-138766870D01*
X80751820Y-138551517D01*
X80657581Y-138313196D01*
X80624981Y-138134247D01*
X80611649Y-138061072D01*
X80615787Y-137804832D01*
X80669834Y-137554321D01*
X80746187Y-137378090D01*
X81619154Y-135806451D01*
X81728421Y-135648503D01*
X81845038Y-135535592D01*
X81860887Y-135516904D01*
X81872786Y-135495482D01*
X81880277Y-135472151D01*
X81882202Y-135445521D01*
X81882757Y-135445538D01*
X81888724Y-135247428D01*
X81946264Y-134997701D01*
X81946265Y-134997697D01*
X82051420Y-134763990D01*
X82105032Y-134688760D01*
X82200148Y-134555288D01*
X82386735Y-134379613D01*
X82504049Y-134306236D01*
X82604009Y-134243713D01*
X82843621Y-134152813D01*
X83096362Y-134110406D01*
X83096366Y-134110406D01*
X83352521Y-134118120D01*
G37*
G36*
X88606379Y-134152813D02*
G01*
X88845991Y-134243713D01*
X88945951Y-134306236D01*
X89063265Y-134379613D01*
X89249852Y-134555288D01*
X89344968Y-134688760D01*
X89398580Y-134763990D01*
X89503735Y-134997697D01*
X89503736Y-134997701D01*
X89561276Y-135247428D01*
X89567243Y-135445540D01*
X89567450Y-135445534D01*
X89567942Y-135461796D01*
X89573447Y-135485674D01*
X89583504Y-135508019D01*
X89604962Y-135535592D01*
X89721579Y-135648503D01*
X89830846Y-135806451D01*
X90703813Y-137378089D01*
X90780166Y-137554320D01*
X90834213Y-137804831D01*
X90838351Y-138061072D01*
X90825019Y-138134247D01*
X90792419Y-138313196D01*
X90698180Y-138551517D01*
X90559262Y-138766870D01*
X90393899Y-138937660D01*
X90380996Y-138950986D01*
X90281688Y-139019686D01*
X90170239Y-139096785D01*
X90068357Y-139140926D01*
X89935086Y-139198667D01*
X89684575Y-139252714D01*
X89428334Y-139256852D01*
X89355159Y-139243520D01*
X89176210Y-139210920D01*
X88937889Y-139116682D01*
X88722537Y-138977763D01*
X88538423Y-138799499D01*
X88538421Y-138799497D01*
X88429154Y-138641549D01*
X87605413Y-137158534D01*
X87591477Y-137138389D01*
X87573872Y-137121344D01*
X87562430Y-137113261D01*
X87426735Y-137028387D01*
X87240148Y-136852712D01*
X87107735Y-136666903D01*
X87091420Y-136644010D01*
X86986265Y-136410303D01*
X86951530Y-136259550D01*
X86928724Y-136160572D01*
X86922942Y-135968608D01*
X86971084Y-135262428D01*
X86975650Y-135235213D01*
X87002865Y-135073017D01*
X87093765Y-134833405D01*
X87229665Y-134616131D01*
X87405340Y-134429544D01*
X87561602Y-134318187D01*
X87614042Y-134280816D01*
X87847749Y-134175661D01*
X87879709Y-134168297D01*
X88097479Y-134118120D01*
X88353634Y-134110406D01*
X88353638Y-134110406D01*
X88606379Y-134152813D01*
G37*
G36*
X121452521Y-134118120D02*
G01*
X121670291Y-134168297D01*
X121702251Y-134175661D01*
X121935958Y-134280816D01*
X121988398Y-134318187D01*
X122144660Y-134429544D01*
X122320335Y-134616131D01*
X122456235Y-134833405D01*
X122547135Y-135073017D01*
X122578916Y-135262429D01*
X122610455Y-135725072D01*
X122627058Y-135968606D01*
X122621276Y-136160572D01*
X122598470Y-136259550D01*
X122563735Y-136410303D01*
X122458580Y-136644010D01*
X122442265Y-136666903D01*
X122309852Y-136852712D01*
X122123265Y-137028387D01*
X121987570Y-137113261D01*
X121968169Y-137128229D01*
X121952061Y-137146694D01*
X121944594Y-137158522D01*
X121120846Y-138641549D01*
X121011579Y-138799497D01*
X121011577Y-138799499D01*
X120827463Y-138977763D01*
X120642953Y-139096785D01*
X120612108Y-139116682D01*
X120589546Y-139125603D01*
X120373789Y-139210920D01*
X120194840Y-139243520D01*
X120121665Y-139256852D01*
X119865425Y-139252714D01*
X119614914Y-139198667D01*
X119481643Y-139140926D01*
X119379761Y-139096785D01*
X119268312Y-139019686D01*
X119169004Y-138950986D01*
X119156101Y-138937660D01*
X118990738Y-138766870D01*
X118851820Y-138551517D01*
X118757581Y-138313196D01*
X118724981Y-138134247D01*
X118711649Y-138061072D01*
X118715787Y-137804832D01*
X118769834Y-137554321D01*
X118846187Y-137378090D01*
X119719154Y-135806451D01*
X119828421Y-135648503D01*
X119945038Y-135535592D01*
X119960887Y-135516904D01*
X119972786Y-135495482D01*
X119980277Y-135472151D01*
X119982202Y-135445521D01*
X119982757Y-135445538D01*
X119988724Y-135247428D01*
X120046264Y-134997701D01*
X120046265Y-134997697D01*
X120151420Y-134763990D01*
X120205032Y-134688760D01*
X120300148Y-134555288D01*
X120486735Y-134379613D01*
X120604049Y-134306236D01*
X120704009Y-134243713D01*
X120943621Y-134152813D01*
X121196362Y-134110406D01*
X121196366Y-134110406D01*
X121452521Y-134118120D01*
G37*
G36*
X126706379Y-134152813D02*
G01*
X126945991Y-134243713D01*
X127045951Y-134306236D01*
X127163265Y-134379613D01*
X127349852Y-134555288D01*
X127444968Y-134688760D01*
X127498580Y-134763990D01*
X127603735Y-134997697D01*
X127603736Y-134997701D01*
X127661276Y-135247428D01*
X127667243Y-135445540D01*
X127667450Y-135445534D01*
X127667942Y-135461796D01*
X127673447Y-135485674D01*
X127683504Y-135508019D01*
X127704962Y-135535592D01*
X127821579Y-135648503D01*
X127930846Y-135806451D01*
X128803813Y-137378089D01*
X128880166Y-137554320D01*
X128934213Y-137804831D01*
X128938351Y-138061072D01*
X128925019Y-138134247D01*
X128892419Y-138313196D01*
X128798180Y-138551517D01*
X128659262Y-138766870D01*
X128493899Y-138937660D01*
X128480996Y-138950986D01*
X128381688Y-139019686D01*
X128270239Y-139096785D01*
X128168357Y-139140926D01*
X128035086Y-139198667D01*
X127784575Y-139252714D01*
X127528334Y-139256852D01*
X127455159Y-139243520D01*
X127276210Y-139210920D01*
X127037889Y-139116682D01*
X126822537Y-138977763D01*
X126638423Y-138799499D01*
X126638421Y-138799497D01*
X126529154Y-138641549D01*
X125705413Y-137158534D01*
X125691477Y-137138389D01*
X125673872Y-137121344D01*
X125662430Y-137113261D01*
X125526735Y-137028387D01*
X125340148Y-136852712D01*
X125207735Y-136666903D01*
X125191420Y-136644010D01*
X125086265Y-136410303D01*
X125051530Y-136259550D01*
X125028724Y-136160572D01*
X125022942Y-135968608D01*
X125071084Y-135262428D01*
X125075650Y-135235213D01*
X125102865Y-135073017D01*
X125193765Y-134833405D01*
X125329665Y-134616131D01*
X125505340Y-134429544D01*
X125661602Y-134318187D01*
X125714042Y-134280816D01*
X125947749Y-134175661D01*
X125979709Y-134168297D01*
X126197479Y-134118120D01*
X126453634Y-134110406D01*
X126453638Y-134110406D01*
X126706379Y-134152813D01*
G37*
G36*
X133598228Y-137521703D02*
G01*
X133753100Y-137585853D01*
X133892481Y-137678985D01*
X134011015Y-137797519D01*
X134104147Y-137936900D01*
X134168297Y-138091772D01*
X134201000Y-138256184D01*
X134201000Y-138423816D01*
X134168297Y-138588228D01*
X134104147Y-138743100D01*
X134011015Y-138882481D01*
X133892481Y-139001015D01*
X133753100Y-139094147D01*
X133598228Y-139158297D01*
X133433816Y-139191000D01*
X133266184Y-139191000D01*
X133101772Y-139158297D01*
X132946900Y-139094147D01*
X132807519Y-139001015D01*
X132688985Y-138882481D01*
X132595853Y-138743100D01*
X132531703Y-138588228D01*
X132499000Y-138423816D01*
X132499000Y-138256184D01*
X132531703Y-138091772D01*
X132595853Y-137936900D01*
X132688985Y-137797519D01*
X132807519Y-137678985D01*
X132946900Y-137585853D01*
X133101772Y-137521703D01*
X133266184Y-137489000D01*
X133433816Y-137489000D01*
X133598228Y-137521703D01*
G37*
G36*
X78350083Y-136776335D02*
G01*
X78518840Y-136846236D01*
X78670718Y-136947718D01*
X78799882Y-137076882D01*
X78901364Y-137228760D01*
X78971265Y-137397517D01*
X79006900Y-137576668D01*
X79006900Y-137759332D01*
X78971265Y-137938483D01*
X78901364Y-138107240D01*
X78799882Y-138259118D01*
X78670718Y-138388282D01*
X78518840Y-138489764D01*
X78350083Y-138559665D01*
X78170932Y-138595300D01*
X77988268Y-138595300D01*
X77809117Y-138559665D01*
X77640360Y-138489764D01*
X77488482Y-138388282D01*
X77359318Y-138259118D01*
X77257836Y-138107240D01*
X77187935Y-137938483D01*
X77152300Y-137759332D01*
X77152300Y-137576668D01*
X77187935Y-137397517D01*
X77257836Y-137228760D01*
X77359318Y-137076882D01*
X77488482Y-136947718D01*
X77640360Y-136846236D01*
X77809117Y-136776335D01*
X77988268Y-136740700D01*
X78170932Y-136740700D01*
X78350083Y-136776335D01*
G37*
G36*
X93590083Y-136776335D02*
G01*
X93758840Y-136846236D01*
X93910718Y-136947718D01*
X94039882Y-137076882D01*
X94141364Y-137228760D01*
X94211265Y-137397517D01*
X94246900Y-137576668D01*
X94246900Y-137759332D01*
X94211265Y-137938483D01*
X94141364Y-138107240D01*
X94039882Y-138259118D01*
X93910718Y-138388282D01*
X93758840Y-138489764D01*
X93590083Y-138559665D01*
X93410932Y-138595300D01*
X93228268Y-138595300D01*
X93049117Y-138559665D01*
X92880360Y-138489764D01*
X92728482Y-138388282D01*
X92599318Y-138259118D01*
X92497836Y-138107240D01*
X92427935Y-137938483D01*
X92392300Y-137759332D01*
X92392300Y-137576668D01*
X92427935Y-137397517D01*
X92497836Y-137228760D01*
X92599318Y-137076882D01*
X92728482Y-136947718D01*
X92880360Y-136846236D01*
X93049117Y-136776335D01*
X93228268Y-136740700D01*
X93410932Y-136740700D01*
X93590083Y-136776335D01*
G37*
G36*
X114548228Y-136251703D02*
G01*
X114703100Y-136315853D01*
X114842481Y-136408985D01*
X114961015Y-136527519D01*
X115054147Y-136666900D01*
X115118297Y-136821772D01*
X115151000Y-136986184D01*
X115151000Y-137153816D01*
X115118297Y-137318228D01*
X115054147Y-137473100D01*
X114961015Y-137612481D01*
X114842481Y-137731015D01*
X114703100Y-137824147D01*
X114548228Y-137888297D01*
X114383816Y-137921000D01*
X114216184Y-137921000D01*
X114051772Y-137888297D01*
X113896900Y-137824147D01*
X113757519Y-137731015D01*
X113638985Y-137612481D01*
X113545853Y-137473100D01*
X113481703Y-137318228D01*
X113449000Y-137153816D01*
X113449000Y-136986184D01*
X113481703Y-136821772D01*
X113545853Y-136666900D01*
X113638985Y-136527519D01*
X113757519Y-136408985D01*
X113896900Y-136315853D01*
X114051772Y-136251703D01*
X114216184Y-136219000D01*
X114383816Y-136219000D01*
X114548228Y-136251703D01*
G37*
G36*
X102402521Y-131736120D02*
G01*
X102652247Y-131793660D01*
X102652251Y-131793661D01*
X102885958Y-131898816D01*
X102938398Y-131936187D01*
X103094660Y-132047544D01*
X103213050Y-132173288D01*
X103270335Y-132234131D01*
X103406235Y-132451405D01*
X103497135Y-132691017D01*
X103528916Y-132880429D01*
X103558084Y-133308282D01*
X103577058Y-133586606D01*
X103572052Y-133752804D01*
X103571276Y-133778571D01*
X103513735Y-134028303D01*
X103408580Y-134262010D01*
X103377063Y-134306236D01*
X103259852Y-134470712D01*
X103105400Y-134616131D01*
X103073265Y-134646387D01*
X103005522Y-134688759D01*
X102937570Y-134731261D01*
X102918169Y-134746229D01*
X102902061Y-134764694D01*
X102894594Y-134776522D01*
X102070846Y-136259549D01*
X101961579Y-136417497D01*
X101961577Y-136417499D01*
X101777463Y-136595763D01*
X101592953Y-136714785D01*
X101562108Y-136734682D01*
X101546889Y-136740700D01*
X101323789Y-136828920D01*
X101144840Y-136861520D01*
X101071665Y-136874852D01*
X100815425Y-136870714D01*
X100564914Y-136816667D01*
X100389576Y-136740700D01*
X100329761Y-136714785D01*
X100199561Y-136624714D01*
X100119004Y-136568986D01*
X100091907Y-136541000D01*
X99940738Y-136384870D01*
X99801820Y-136169517D01*
X99707581Y-135931196D01*
X99668945Y-135719118D01*
X99661649Y-135679072D01*
X99665787Y-135422832D01*
X99719834Y-135172321D01*
X99796187Y-134996090D01*
X100669154Y-133424451D01*
X100778421Y-133266503D01*
X100895038Y-133153592D01*
X100910887Y-133134904D01*
X100922786Y-133113482D01*
X100930277Y-133090151D01*
X100932202Y-133063521D01*
X100932757Y-133063538D01*
X100938724Y-132865428D01*
X100996264Y-132615701D01*
X100996265Y-132615697D01*
X101101420Y-132381990D01*
X101147366Y-132317517D01*
X101250148Y-132173288D01*
X101436735Y-131997613D01*
X101437905Y-131996881D01*
X101654009Y-131861713D01*
X101893621Y-131770813D01*
X102146362Y-131728406D01*
X102146366Y-131728406D01*
X102402521Y-131736120D01*
G37*
G36*
X107656379Y-131770813D02*
G01*
X107895991Y-131861713D01*
X108112095Y-131996881D01*
X108113265Y-131997613D01*
X108299852Y-132173288D01*
X108402634Y-132317517D01*
X108448580Y-132381990D01*
X108553735Y-132615697D01*
X108553736Y-132615701D01*
X108611276Y-132865428D01*
X108617243Y-133063540D01*
X108617450Y-133063534D01*
X108617942Y-133079796D01*
X108623447Y-133103674D01*
X108633504Y-133126019D01*
X108654962Y-133153592D01*
X108771579Y-133266503D01*
X108880846Y-133424451D01*
X109753813Y-134996089D01*
X109830166Y-135172320D01*
X109884213Y-135422831D01*
X109888351Y-135679072D01*
X109881055Y-135719118D01*
X109842419Y-135931196D01*
X109748180Y-136169517D01*
X109609262Y-136384870D01*
X109458093Y-136541000D01*
X109430996Y-136568986D01*
X109350439Y-136624714D01*
X109220239Y-136714785D01*
X109160424Y-136740700D01*
X108985086Y-136816667D01*
X108734575Y-136870714D01*
X108478334Y-136874852D01*
X108405159Y-136861520D01*
X108226210Y-136828920D01*
X107987889Y-136734682D01*
X107772537Y-136595763D01*
X107588423Y-136417499D01*
X107588421Y-136417497D01*
X107479154Y-136259549D01*
X106655413Y-134776534D01*
X106641477Y-134756389D01*
X106623872Y-134739344D01*
X106612430Y-134731261D01*
X106544479Y-134688759D01*
X106476735Y-134646387D01*
X106444600Y-134616131D01*
X106290148Y-134470712D01*
X106172937Y-134306236D01*
X106141420Y-134262010D01*
X106036265Y-134028303D01*
X105978724Y-133778571D01*
X105977948Y-133752804D01*
X105972942Y-133586608D01*
X106021084Y-132880428D01*
X106033044Y-132809148D01*
X106052865Y-132691017D01*
X106143765Y-132451405D01*
X106279665Y-132234131D01*
X106336950Y-132173288D01*
X106455340Y-132047544D01*
X106611602Y-131936187D01*
X106664042Y-131898816D01*
X106897749Y-131793661D01*
X106897753Y-131793660D01*
X107147479Y-131736120D01*
X107403634Y-131728406D01*
X107403638Y-131728406D01*
X107656379Y-131770813D01*
G37*
G36*
X62388228Y-135071703D02*
G01*
X62543100Y-135135853D01*
X62682481Y-135228985D01*
X62801015Y-135347519D01*
X62894147Y-135486900D01*
X62958297Y-135641772D01*
X62991000Y-135806184D01*
X62991000Y-135973816D01*
X62958297Y-136138228D01*
X62894147Y-136293100D01*
X62801015Y-136432481D01*
X62682481Y-136551015D01*
X62543100Y-136644147D01*
X62388228Y-136708297D01*
X62223816Y-136741000D01*
X62056184Y-136741000D01*
X61891772Y-136708297D01*
X61736900Y-136644147D01*
X61597519Y-136551015D01*
X61478985Y-136432481D01*
X61385853Y-136293100D01*
X61321703Y-136138228D01*
X61289000Y-135973816D01*
X61289000Y-135806184D01*
X61321703Y-135641772D01*
X61385853Y-135486900D01*
X61478985Y-135347519D01*
X61597519Y-135228985D01*
X61736900Y-135135853D01*
X61891772Y-135071703D01*
X62056184Y-135039000D01*
X62223816Y-135039000D01*
X62388228Y-135071703D01*
G37*
G36*
X70791000Y-136741000D02*
G01*
X69089000Y-136741000D01*
X69089000Y-135039000D01*
X70791000Y-135039000D01*
X70791000Y-136741000D01*
G37*
G36*
X68266000Y-136541000D02*
G01*
X66964000Y-136541000D01*
X66964000Y-135239000D01*
X68266000Y-135239000D01*
X68266000Y-136541000D01*
G37*
G36*
X65116000Y-136541000D02*
G01*
X63814000Y-136541000D01*
X63814000Y-135239000D01*
X65116000Y-135239000D01*
X65116000Y-136541000D01*
G37*
G36*
X93590083Y-134236335D02*
G01*
X93758840Y-134306236D01*
X93910718Y-134407718D01*
X94039882Y-134536882D01*
X94141364Y-134688760D01*
X94211265Y-134857517D01*
X94246900Y-135036668D01*
X94246900Y-135219332D01*
X94211265Y-135398483D01*
X94141364Y-135567240D01*
X94039882Y-135719118D01*
X93910718Y-135848282D01*
X93758840Y-135949764D01*
X93590083Y-136019665D01*
X93410932Y-136055300D01*
X93228268Y-136055300D01*
X93049117Y-136019665D01*
X92880360Y-135949764D01*
X92728482Y-135848282D01*
X92599318Y-135719118D01*
X92497836Y-135567240D01*
X92427935Y-135398483D01*
X92392300Y-135219332D01*
X92392300Y-135036668D01*
X92427935Y-134857517D01*
X92497836Y-134688760D01*
X92599318Y-134536882D01*
X92728482Y-134407718D01*
X92880360Y-134306236D01*
X93049117Y-134236335D01*
X93228268Y-134200700D01*
X93410932Y-134200700D01*
X93590083Y-134236335D01*
G37*
G36*
X78350083Y-134236335D02*
G01*
X78518840Y-134306236D01*
X78670718Y-134407718D01*
X78799882Y-134536882D01*
X78901364Y-134688760D01*
X78971265Y-134857517D01*
X79006900Y-135036668D01*
X79006900Y-135219332D01*
X78971265Y-135398483D01*
X78901364Y-135567240D01*
X78799882Y-135719118D01*
X78670718Y-135848282D01*
X78518840Y-135949764D01*
X78350083Y-136019665D01*
X78170932Y-136055300D01*
X77988268Y-136055300D01*
X77809117Y-136019665D01*
X77640360Y-135949764D01*
X77488482Y-135848282D01*
X77359318Y-135719118D01*
X77257836Y-135567240D01*
X77187935Y-135398483D01*
X77152300Y-135219332D01*
X77152300Y-135036668D01*
X77187935Y-134857517D01*
X77257836Y-134688760D01*
X77359318Y-134536882D01*
X77488482Y-134407718D01*
X77640360Y-134306236D01*
X77809117Y-134236335D01*
X77988268Y-134200700D01*
X78170932Y-134200700D01*
X78350083Y-134236335D01*
G37*
G36*
X139826000Y-134201000D02*
G01*
X138124000Y-134201000D01*
X138124000Y-132499000D01*
X139826000Y-132499000D01*
X139826000Y-134201000D01*
G37*
G36*
X147023228Y-132531703D02*
G01*
X147178100Y-132595853D01*
X147317481Y-132688985D01*
X147436015Y-132807519D01*
X147529147Y-132946900D01*
X147593297Y-133101772D01*
X147626000Y-133266184D01*
X147626000Y-133433816D01*
X147593297Y-133598228D01*
X147529147Y-133753100D01*
X147436015Y-133892481D01*
X147317481Y-134011015D01*
X147178100Y-134104147D01*
X147023228Y-134168297D01*
X146858816Y-134201000D01*
X146691184Y-134201000D01*
X146526772Y-134168297D01*
X146371900Y-134104147D01*
X146232519Y-134011015D01*
X146113985Y-133892481D01*
X146020853Y-133753100D01*
X145956703Y-133598228D01*
X145924000Y-133433816D01*
X145924000Y-133266184D01*
X145956703Y-133101772D01*
X146020853Y-132946900D01*
X146113985Y-132807519D01*
X146232519Y-132688985D01*
X146371900Y-132595853D01*
X146526772Y-132531703D01*
X146691184Y-132499000D01*
X146858816Y-132499000D01*
X147023228Y-132531703D01*
G37*
G36*
X145101000Y-134001000D02*
G01*
X143799000Y-134001000D01*
X143799000Y-132699000D01*
X145101000Y-132699000D01*
X145101000Y-134001000D01*
G37*
G36*
X141951000Y-134001000D02*
G01*
X140649000Y-134001000D01*
X140649000Y-132699000D01*
X141951000Y-132699000D01*
X141951000Y-134001000D01*
G37*
G36*
X78350083Y-131696335D02*
G01*
X78518840Y-131766236D01*
X78670718Y-131867718D01*
X78799882Y-131996882D01*
X78901364Y-132148760D01*
X78971265Y-132317517D01*
X79006900Y-132496668D01*
X79006900Y-132679332D01*
X78971265Y-132858483D01*
X78901364Y-133027240D01*
X78799882Y-133179118D01*
X78670718Y-133308282D01*
X78518840Y-133409764D01*
X78350083Y-133479665D01*
X78170932Y-133515300D01*
X77988268Y-133515300D01*
X77809117Y-133479665D01*
X77640360Y-133409764D01*
X77488482Y-133308282D01*
X77359318Y-133179118D01*
X77257836Y-133027240D01*
X77187935Y-132858483D01*
X77152300Y-132679332D01*
X77152300Y-132496668D01*
X77187935Y-132317517D01*
X77257836Y-132148760D01*
X77359318Y-131996882D01*
X77488482Y-131867718D01*
X77640360Y-131766236D01*
X77809117Y-131696335D01*
X77988268Y-131660700D01*
X78170932Y-131660700D01*
X78350083Y-131696335D01*
G37*
G36*
X93590083Y-131696335D02*
G01*
X93758840Y-131766236D01*
X93910718Y-131867718D01*
X94039882Y-131996882D01*
X94141364Y-132148760D01*
X94211265Y-132317517D01*
X94246900Y-132496668D01*
X94246900Y-132679332D01*
X94211265Y-132858483D01*
X94141364Y-133027240D01*
X94039882Y-133179118D01*
X93910718Y-133308282D01*
X93758840Y-133409764D01*
X93590083Y-133479665D01*
X93410932Y-133515300D01*
X93228268Y-133515300D01*
X93049117Y-133479665D01*
X92880360Y-133409764D01*
X92728482Y-133308282D01*
X92599318Y-133179118D01*
X92497836Y-133027240D01*
X92427935Y-132858483D01*
X92392300Y-132679332D01*
X92392300Y-132496668D01*
X92427935Y-132317517D01*
X92497836Y-132148760D01*
X92599318Y-131996882D01*
X92728482Y-131867718D01*
X92880360Y-131766236D01*
X93049117Y-131696335D01*
X93228268Y-131660700D01*
X93410932Y-131660700D01*
X93590083Y-131696335D01*
G37*
G36*
X133417394Y-129086738D02*
G01*
X133790651Y-129241346D01*
X133790653Y-129241347D01*
X134126576Y-129465804D01*
X134412256Y-129751484D01*
X134615629Y-130055852D01*
X134636714Y-130087409D01*
X134791322Y-130460666D01*
X134870140Y-130856913D01*
X134870140Y-131260927D01*
X134791322Y-131657174D01*
X134636714Y-132030431D01*
X134636713Y-132030433D01*
X134412256Y-132366356D01*
X134126576Y-132652036D01*
X133790653Y-132876493D01*
X133790652Y-132876494D01*
X133790651Y-132876494D01*
X133417394Y-133031102D01*
X133021147Y-133109920D01*
X132617133Y-133109920D01*
X132220886Y-133031102D01*
X131847629Y-132876494D01*
X131847628Y-132876494D01*
X131847627Y-132876493D01*
X131511704Y-132652036D01*
X131226024Y-132366356D01*
X131001567Y-132030433D01*
X131001566Y-132030431D01*
X130846958Y-131657174D01*
X130768140Y-131260927D01*
X130768140Y-130856913D01*
X130846958Y-130460666D01*
X131001566Y-130087409D01*
X131022652Y-130055852D01*
X131226024Y-129751484D01*
X131511704Y-129465804D01*
X131847627Y-129241347D01*
X131847629Y-129241346D01*
X132220886Y-129086738D01*
X132617133Y-129007920D01*
X133021147Y-129007920D01*
X133417394Y-129086738D01*
G37*
G36*
X120776000Y-131661000D02*
G01*
X119074000Y-131661000D01*
X119074000Y-129959000D01*
X120776000Y-129959000D01*
X120776000Y-131661000D01*
G37*
G36*
X127973228Y-129991703D02*
G01*
X128128100Y-130055853D01*
X128267481Y-130148985D01*
X128386015Y-130267519D01*
X128479147Y-130406900D01*
X128543297Y-130561772D01*
X128576000Y-130726184D01*
X128576000Y-130893816D01*
X128543297Y-131058228D01*
X128479147Y-131213100D01*
X128386015Y-131352481D01*
X128267481Y-131471015D01*
X128128100Y-131564147D01*
X127973228Y-131628297D01*
X127808816Y-131661000D01*
X127641184Y-131661000D01*
X127476772Y-131628297D01*
X127321900Y-131564147D01*
X127182519Y-131471015D01*
X127063985Y-131352481D01*
X126970853Y-131213100D01*
X126906703Y-131058228D01*
X126874000Y-130893816D01*
X126874000Y-130726184D01*
X126906703Y-130561772D01*
X126970853Y-130406900D01*
X127063985Y-130267519D01*
X127182519Y-130148985D01*
X127321900Y-130055853D01*
X127476772Y-129991703D01*
X127641184Y-129959000D01*
X127808816Y-129959000D01*
X127973228Y-129991703D01*
G37*
G36*
X122901000Y-131461000D02*
G01*
X121599000Y-131461000D01*
X121599000Y-130159000D01*
X122901000Y-130159000D01*
X122901000Y-131461000D01*
G37*
G36*
X126051000Y-131461000D02*
G01*
X124749000Y-131461000D01*
X124749000Y-130159000D01*
X126051000Y-130159000D01*
X126051000Y-131461000D01*
G37*
G36*
X78350083Y-129156335D02*
G01*
X78518840Y-129226236D01*
X78670718Y-129327718D01*
X78799882Y-129456882D01*
X78901364Y-129608760D01*
X78971265Y-129777517D01*
X79006900Y-129956668D01*
X79006900Y-130139332D01*
X78971265Y-130318483D01*
X78901364Y-130487240D01*
X78799882Y-130639118D01*
X78670718Y-130768282D01*
X78518840Y-130869764D01*
X78350083Y-130939665D01*
X78170932Y-130975300D01*
X77988268Y-130975300D01*
X77809117Y-130939665D01*
X77640360Y-130869764D01*
X77488482Y-130768282D01*
X77359318Y-130639118D01*
X77257836Y-130487240D01*
X77187935Y-130318483D01*
X77152300Y-130139332D01*
X77152300Y-129956668D01*
X77187935Y-129777517D01*
X77257836Y-129608760D01*
X77359318Y-129456882D01*
X77488482Y-129327718D01*
X77640360Y-129226236D01*
X77809117Y-129156335D01*
X77988268Y-129120700D01*
X78170932Y-129120700D01*
X78350083Y-129156335D01*
G37*
G36*
X93590083Y-129156335D02*
G01*
X93758840Y-129226236D01*
X93910718Y-129327718D01*
X94039882Y-129456882D01*
X94141364Y-129608760D01*
X94211265Y-129777517D01*
X94246900Y-129956668D01*
X94246900Y-130139332D01*
X94211265Y-130318483D01*
X94141364Y-130487240D01*
X94039882Y-130639118D01*
X93910718Y-130768282D01*
X93758840Y-130869764D01*
X93590083Y-130939665D01*
X93410932Y-130975300D01*
X93228268Y-130975300D01*
X93049117Y-130939665D01*
X92880360Y-130869764D01*
X92728482Y-130768282D01*
X92599318Y-130639118D01*
X92497836Y-130487240D01*
X92427935Y-130318483D01*
X92392300Y-130139332D01*
X92392300Y-129956668D01*
X92427935Y-129777517D01*
X92497836Y-129608760D01*
X92599318Y-129456882D01*
X92728482Y-129327718D01*
X92880360Y-129226236D01*
X93049117Y-129156335D01*
X93228268Y-129120700D01*
X93410932Y-129120700D01*
X93590083Y-129156335D01*
G37*
G36*
X97476394Y-126673738D02*
G01*
X97849651Y-126828346D01*
X97849653Y-126828347D01*
X98185576Y-127052804D01*
X98471256Y-127338484D01*
X98645549Y-127599331D01*
X98695714Y-127674409D01*
X98850322Y-128047666D01*
X98929140Y-128443913D01*
X98929140Y-128847927D01*
X98850322Y-129244174D01*
X98695714Y-129617431D01*
X98695713Y-129617433D01*
X98471256Y-129953356D01*
X98185576Y-130239036D01*
X97849653Y-130463493D01*
X97849652Y-130463494D01*
X97849651Y-130463494D01*
X97476394Y-130618102D01*
X97080147Y-130696920D01*
X96676133Y-130696920D01*
X96279886Y-130618102D01*
X95906629Y-130463494D01*
X95906628Y-130463494D01*
X95906627Y-130463493D01*
X95570704Y-130239036D01*
X95285024Y-129953356D01*
X95060567Y-129617433D01*
X95060566Y-129617431D01*
X94905958Y-129244174D01*
X94827140Y-128847927D01*
X94827140Y-128443913D01*
X94905958Y-128047666D01*
X95060566Y-127674409D01*
X95110732Y-127599331D01*
X95285024Y-127338484D01*
X95570704Y-127052804D01*
X95906627Y-126828347D01*
X95906629Y-126828346D01*
X96279886Y-126673738D01*
X96676133Y-126594920D01*
X97080147Y-126594920D01*
X97476394Y-126673738D01*
G37*
G36*
X108891000Y-129121000D02*
G01*
X107189000Y-129121000D01*
X107189000Y-127419000D01*
X108891000Y-127419000D01*
X108891000Y-129121000D01*
G37*
G36*
X100488228Y-127451703D02*
G01*
X100643100Y-127515853D01*
X100782481Y-127608985D01*
X100901015Y-127727519D01*
X100994147Y-127866900D01*
X101058297Y-128021772D01*
X101091000Y-128186184D01*
X101091000Y-128353816D01*
X101058297Y-128518228D01*
X100994147Y-128673100D01*
X100901015Y-128812481D01*
X100782481Y-128931015D01*
X100643100Y-129024147D01*
X100488228Y-129088297D01*
X100323816Y-129121000D01*
X100156184Y-129121000D01*
X99991772Y-129088297D01*
X99836900Y-129024147D01*
X99697519Y-128931015D01*
X99578985Y-128812481D01*
X99485853Y-128673100D01*
X99421703Y-128518228D01*
X99389000Y-128353816D01*
X99389000Y-128186184D01*
X99421703Y-128021772D01*
X99485853Y-127866900D01*
X99578985Y-127727519D01*
X99697519Y-127608985D01*
X99836900Y-127515853D01*
X99991772Y-127451703D01*
X100156184Y-127419000D01*
X100323816Y-127419000D01*
X100488228Y-127451703D01*
G37*
G36*
X103216000Y-128921000D02*
G01*
X101914000Y-128921000D01*
X101914000Y-127619000D01*
X103216000Y-127619000D01*
X103216000Y-128921000D01*
G37*
G36*
X106366000Y-128921000D02*
G01*
X105064000Y-128921000D01*
X105064000Y-127619000D01*
X106366000Y-127619000D01*
X106366000Y-128921000D01*
G37*
G36*
X93590083Y-126616335D02*
G01*
X93758840Y-126686236D01*
X93910718Y-126787718D01*
X94039882Y-126916882D01*
X94141364Y-127068760D01*
X94211265Y-127237517D01*
X94246900Y-127416668D01*
X94246900Y-127599332D01*
X94211265Y-127778483D01*
X94141364Y-127947240D01*
X94039882Y-128099118D01*
X93910718Y-128228282D01*
X93758840Y-128329764D01*
X93590083Y-128399665D01*
X93410932Y-128435300D01*
X93228268Y-128435300D01*
X93049117Y-128399665D01*
X92880360Y-128329764D01*
X92728482Y-128228282D01*
X92599318Y-128099118D01*
X92497836Y-127947240D01*
X92427935Y-127778483D01*
X92392300Y-127599332D01*
X92392300Y-127416668D01*
X92427935Y-127237517D01*
X92497836Y-127068760D01*
X92599318Y-126916882D01*
X92728482Y-126787718D01*
X92880360Y-126686236D01*
X93049117Y-126616335D01*
X93228268Y-126580700D01*
X93410932Y-126580700D01*
X93590083Y-126616335D01*
G37*
G36*
X78350083Y-126616335D02*
G01*
X78518840Y-126686236D01*
X78670718Y-126787718D01*
X78799882Y-126916882D01*
X78901364Y-127068760D01*
X78971265Y-127237517D01*
X79006900Y-127416668D01*
X79006900Y-127599332D01*
X78971265Y-127778483D01*
X78901364Y-127947240D01*
X78799882Y-128099118D01*
X78670718Y-128228282D01*
X78518840Y-128329764D01*
X78350083Y-128399665D01*
X78170932Y-128435300D01*
X77988268Y-128435300D01*
X77809117Y-128399665D01*
X77640360Y-128329764D01*
X77488482Y-128228282D01*
X77359318Y-128099118D01*
X77257836Y-127947240D01*
X77187935Y-127778483D01*
X77152300Y-127599332D01*
X77152300Y-127416668D01*
X77187935Y-127237517D01*
X77257836Y-127068760D01*
X77359318Y-126916882D01*
X77488482Y-126787718D01*
X77640360Y-126686236D01*
X77809117Y-126616335D01*
X77988268Y-126580700D01*
X78170932Y-126580700D01*
X78350083Y-126616335D01*
G37*
G36*
X115151000Y-126671000D02*
G01*
X113449000Y-126671000D01*
X113449000Y-124969000D01*
X115151000Y-124969000D01*
X115151000Y-126671000D01*
G37*
G36*
X93590083Y-124076335D02*
G01*
X93758840Y-124146236D01*
X93910718Y-124247718D01*
X94039882Y-124376882D01*
X94141364Y-124528760D01*
X94211265Y-124697517D01*
X94246900Y-124876668D01*
X94246900Y-125059332D01*
X94211265Y-125238483D01*
X94141364Y-125407240D01*
X94039882Y-125559118D01*
X93910718Y-125688282D01*
X93758840Y-125789764D01*
X93590083Y-125859665D01*
X93410932Y-125895300D01*
X93228268Y-125895300D01*
X93049117Y-125859665D01*
X92880360Y-125789764D01*
X92728482Y-125688282D01*
X92599318Y-125559118D01*
X92497836Y-125407240D01*
X92427935Y-125238483D01*
X92392300Y-125059332D01*
X92392300Y-124876668D01*
X92427935Y-124697517D01*
X92497836Y-124528760D01*
X92599318Y-124376882D01*
X92728482Y-124247718D01*
X92880360Y-124146236D01*
X93049117Y-124076335D01*
X93228268Y-124040700D01*
X93410932Y-124040700D01*
X93590083Y-124076335D01*
G37*
G36*
X78350083Y-124076335D02*
G01*
X78518840Y-124146236D01*
X78670718Y-124247718D01*
X78799882Y-124376882D01*
X78901364Y-124528760D01*
X78971265Y-124697517D01*
X79006900Y-124876668D01*
X79006900Y-125059332D01*
X78971265Y-125238483D01*
X78901364Y-125407240D01*
X78799882Y-125559118D01*
X78670718Y-125688282D01*
X78518840Y-125789764D01*
X78350083Y-125859665D01*
X78170932Y-125895300D01*
X77988268Y-125895300D01*
X77809117Y-125859665D01*
X77640360Y-125789764D01*
X77488482Y-125688282D01*
X77359318Y-125559118D01*
X77257836Y-125407240D01*
X77187935Y-125238483D01*
X77152300Y-125059332D01*
X77152300Y-124876668D01*
X77187935Y-124697517D01*
X77257836Y-124528760D01*
X77359318Y-124376882D01*
X77488482Y-124247718D01*
X77640360Y-124146236D01*
X77809117Y-124076335D01*
X77988268Y-124040700D01*
X78170932Y-124040700D01*
X78350083Y-124076335D01*
G37*
G36*
X69556379Y-119864813D02*
G01*
X69795991Y-119955713D01*
X69941595Y-120046785D01*
X70013265Y-120091613D01*
X70199852Y-120267288D01*
X70295075Y-120400910D01*
X70348580Y-120475990D01*
X70453735Y-120709697D01*
X70453736Y-120709701D01*
X70511276Y-120959428D01*
X70517243Y-121157540D01*
X70517450Y-121157534D01*
X70517942Y-121173796D01*
X70523447Y-121197674D01*
X70533504Y-121220019D01*
X70554962Y-121247592D01*
X70671579Y-121360503D01*
X70780846Y-121518451D01*
X71653813Y-123090089D01*
X71730166Y-123266320D01*
X71784213Y-123516831D01*
X71788351Y-123773072D01*
X71775019Y-123846247D01*
X71742419Y-124025196D01*
X71648180Y-124263517D01*
X71509262Y-124478870D01*
X71330998Y-124662984D01*
X71330996Y-124662986D01*
X71281080Y-124697517D01*
X71120239Y-124808785D01*
X71018357Y-124852926D01*
X70885086Y-124910667D01*
X70634575Y-124964714D01*
X70378334Y-124968852D01*
X70305159Y-124955520D01*
X70126210Y-124922920D01*
X69887889Y-124828682D01*
X69672537Y-124689763D01*
X69488423Y-124511499D01*
X69488421Y-124511497D01*
X69379154Y-124353549D01*
X68555413Y-122870534D01*
X68541477Y-122850389D01*
X68523872Y-122833344D01*
X68512430Y-122825261D01*
X68376735Y-122740387D01*
X68190148Y-122564712D01*
X68078791Y-122408450D01*
X68041420Y-122356010D01*
X67936265Y-122122303D01*
X67901760Y-121972549D01*
X67878724Y-121872572D01*
X67872942Y-121680608D01*
X67921084Y-120974428D01*
X67933044Y-120903148D01*
X67952865Y-120785017D01*
X68043765Y-120545405D01*
X68179665Y-120328131D01*
X68236950Y-120267288D01*
X68355340Y-120141544D01*
X68511602Y-120030187D01*
X68564042Y-119992816D01*
X68797749Y-119887661D01*
X68797753Y-119887660D01*
X69047479Y-119830120D01*
X69303634Y-119822406D01*
X69303638Y-119822406D01*
X69556379Y-119864813D01*
G37*
G36*
X64302521Y-119830120D02*
G01*
X64552247Y-119887660D01*
X64552251Y-119887661D01*
X64785958Y-119992816D01*
X64838398Y-120030187D01*
X64994660Y-120141544D01*
X65113050Y-120267288D01*
X65170335Y-120328131D01*
X65306235Y-120545405D01*
X65397135Y-120785017D01*
X65428916Y-120974429D01*
X65457388Y-121392072D01*
X65477058Y-121680606D01*
X65471276Y-121872572D01*
X65448240Y-121972549D01*
X65413735Y-122122303D01*
X65308580Y-122356010D01*
X65271209Y-122408450D01*
X65159852Y-122564712D01*
X64973265Y-122740387D01*
X64837570Y-122825261D01*
X64818169Y-122840229D01*
X64802061Y-122858694D01*
X64794594Y-122870522D01*
X63970846Y-124353549D01*
X63861579Y-124511497D01*
X63861577Y-124511499D01*
X63677463Y-124689763D01*
X63492953Y-124808785D01*
X63462108Y-124828682D01*
X63439546Y-124837603D01*
X63223789Y-124922920D01*
X63044840Y-124955520D01*
X62971665Y-124968852D01*
X62715425Y-124964714D01*
X62464914Y-124910667D01*
X62331643Y-124852926D01*
X62229761Y-124808785D01*
X62068920Y-124697517D01*
X62019004Y-124662986D01*
X62019002Y-124662984D01*
X61840738Y-124478870D01*
X61701820Y-124263517D01*
X61607581Y-124025196D01*
X61574981Y-123846247D01*
X61561649Y-123773072D01*
X61565787Y-123516832D01*
X61619834Y-123266321D01*
X61696187Y-123090090D01*
X62569154Y-121518451D01*
X62678421Y-121360503D01*
X62795038Y-121247592D01*
X62810887Y-121228904D01*
X62822786Y-121207482D01*
X62830277Y-121184151D01*
X62832202Y-121157521D01*
X62832757Y-121157538D01*
X62838724Y-120959428D01*
X62896264Y-120709701D01*
X62896265Y-120709697D01*
X63001420Y-120475990D01*
X63054925Y-120400910D01*
X63150148Y-120267288D01*
X63336735Y-120091613D01*
X63408405Y-120046785D01*
X63554009Y-119955713D01*
X63793621Y-119864813D01*
X64046362Y-119822406D01*
X64046366Y-119822406D01*
X64302521Y-119830120D01*
G37*
G36*
X114951000Y-124146000D02*
G01*
X113649000Y-124146000D01*
X113649000Y-122844000D01*
X114951000Y-122844000D01*
X114951000Y-124146000D01*
G37*
G36*
X78350083Y-121536335D02*
G01*
X78518840Y-121606236D01*
X78670718Y-121707718D01*
X78799882Y-121836882D01*
X78901364Y-121988760D01*
X78971265Y-122157517D01*
X79006900Y-122336668D01*
X79006900Y-122519332D01*
X78971265Y-122698483D01*
X78901364Y-122867240D01*
X78799882Y-123019118D01*
X78670718Y-123148282D01*
X78518840Y-123249764D01*
X78350083Y-123319665D01*
X78170932Y-123355300D01*
X77988268Y-123355300D01*
X77809117Y-123319665D01*
X77640360Y-123249764D01*
X77488482Y-123148282D01*
X77359318Y-123019118D01*
X77257836Y-122867240D01*
X77187935Y-122698483D01*
X77152300Y-122519332D01*
X77152300Y-122336668D01*
X77187935Y-122157517D01*
X77257836Y-121988760D01*
X77359318Y-121836882D01*
X77488482Y-121707718D01*
X77640360Y-121606236D01*
X77809117Y-121536335D01*
X77988268Y-121500700D01*
X78170932Y-121500700D01*
X78350083Y-121536335D01*
G37*
G36*
X93590083Y-121536335D02*
G01*
X93758840Y-121606236D01*
X93910718Y-121707718D01*
X94039882Y-121836882D01*
X94141364Y-121988760D01*
X94211265Y-122157517D01*
X94246900Y-122336668D01*
X94246900Y-122519332D01*
X94211265Y-122698483D01*
X94141364Y-122867240D01*
X94039882Y-123019118D01*
X93910718Y-123148282D01*
X93758840Y-123249764D01*
X93590083Y-123319665D01*
X93410932Y-123355300D01*
X93228268Y-123355300D01*
X93049117Y-123319665D01*
X92880360Y-123249764D01*
X92728482Y-123148282D01*
X92599318Y-123019118D01*
X92497836Y-122867240D01*
X92427935Y-122698483D01*
X92392300Y-122519332D01*
X92392300Y-122336668D01*
X92427935Y-122157517D01*
X92497836Y-121988760D01*
X92599318Y-121836882D01*
X92728482Y-121707718D01*
X92880360Y-121606236D01*
X93049117Y-121536335D01*
X93228268Y-121500700D01*
X93410932Y-121500700D01*
X93590083Y-121536335D01*
G37*
G36*
X145756379Y-117483813D02*
G01*
X145995991Y-117574713D01*
X146139996Y-117664785D01*
X146213265Y-117710613D01*
X146399852Y-117886288D01*
X146495075Y-118019910D01*
X146548580Y-118094990D01*
X146653735Y-118328697D01*
X146653736Y-118328701D01*
X146711276Y-118578428D01*
X146717243Y-118776540D01*
X146717450Y-118776534D01*
X146717942Y-118792796D01*
X146723447Y-118816674D01*
X146733504Y-118839019D01*
X146754962Y-118866592D01*
X146871579Y-118979503D01*
X146980846Y-119137451D01*
X147853813Y-120709089D01*
X147930166Y-120885320D01*
X147984213Y-121135831D01*
X147988351Y-121392072D01*
X147975019Y-121465247D01*
X147942419Y-121644196D01*
X147848180Y-121882517D01*
X147709262Y-122097870D01*
X147651510Y-122157517D01*
X147530996Y-122281986D01*
X147431688Y-122350686D01*
X147320239Y-122427785D01*
X147218357Y-122471926D01*
X147085086Y-122529667D01*
X146834575Y-122583714D01*
X146578334Y-122587852D01*
X146505159Y-122574520D01*
X146326210Y-122541920D01*
X146087889Y-122447682D01*
X145872537Y-122308763D01*
X145688423Y-122130499D01*
X145688421Y-122130497D01*
X145579154Y-121972549D01*
X144755413Y-120489534D01*
X144741477Y-120469389D01*
X144723872Y-120452344D01*
X144712430Y-120444261D01*
X144576735Y-120359387D01*
X144390148Y-120183712D01*
X144254111Y-119992818D01*
X144241420Y-119975010D01*
X144136265Y-119741303D01*
X144101760Y-119591549D01*
X144078724Y-119491572D01*
X144072942Y-119299608D01*
X144121084Y-118593428D01*
X144133044Y-118522148D01*
X144152865Y-118404017D01*
X144243765Y-118164405D01*
X144379665Y-117947131D01*
X144555340Y-117760544D01*
X144756904Y-117616903D01*
X144764042Y-117611816D01*
X144997749Y-117506661D01*
X144997753Y-117506660D01*
X145247479Y-117449120D01*
X145503634Y-117441406D01*
X145503638Y-117441406D01*
X145756379Y-117483813D01*
G37*
G36*
X140502521Y-117449120D02*
G01*
X140752247Y-117506660D01*
X140752251Y-117506661D01*
X140985958Y-117611816D01*
X140993096Y-117616903D01*
X141194660Y-117760544D01*
X141370335Y-117947131D01*
X141506235Y-118164405D01*
X141597135Y-118404017D01*
X141628916Y-118593429D01*
X141656383Y-118996335D01*
X141677058Y-119299606D01*
X141671276Y-119491572D01*
X141648240Y-119591549D01*
X141613735Y-119741303D01*
X141508580Y-119975010D01*
X141495889Y-119992818D01*
X141359852Y-120183712D01*
X141173265Y-120359387D01*
X141037570Y-120444261D01*
X141018169Y-120459229D01*
X141002061Y-120477694D01*
X140994594Y-120489522D01*
X140170846Y-121972549D01*
X140061579Y-122130497D01*
X140061577Y-122130499D01*
X139877463Y-122308763D01*
X139692953Y-122427785D01*
X139662108Y-122447682D01*
X139639546Y-122456603D01*
X139423789Y-122541920D01*
X139244840Y-122574520D01*
X139171665Y-122587852D01*
X138915425Y-122583714D01*
X138664914Y-122529667D01*
X138531643Y-122471926D01*
X138429761Y-122427785D01*
X138318312Y-122350686D01*
X138219004Y-122281986D01*
X138098490Y-122157517D01*
X138040738Y-122097870D01*
X137901820Y-121882517D01*
X137807581Y-121644196D01*
X137774981Y-121465247D01*
X137761649Y-121392072D01*
X137765787Y-121135832D01*
X137819834Y-120885321D01*
X137896187Y-120709090D01*
X138769154Y-119137451D01*
X138878421Y-118979503D01*
X138995038Y-118866592D01*
X139010887Y-118847904D01*
X139022786Y-118826482D01*
X139030277Y-118803151D01*
X139032202Y-118776521D01*
X139032757Y-118776538D01*
X139038724Y-118578428D01*
X139096264Y-118328701D01*
X139096265Y-118328697D01*
X139201420Y-118094990D01*
X139254925Y-118019910D01*
X139350148Y-117886288D01*
X139536735Y-117710613D01*
X139610004Y-117664785D01*
X139754009Y-117574713D01*
X139993621Y-117483813D01*
X140246362Y-117441406D01*
X140246366Y-117441406D01*
X140502521Y-117449120D01*
G37*
G36*
X114951000Y-120996000D02*
G01*
X113649000Y-120996000D01*
X113649000Y-119694000D01*
X114951000Y-119694000D01*
X114951000Y-120996000D01*
G37*
G36*
X78350083Y-118996335D02*
G01*
X78518840Y-119066236D01*
X78670718Y-119167718D01*
X78799882Y-119296882D01*
X78901364Y-119448760D01*
X78971265Y-119617517D01*
X79006900Y-119796668D01*
X79006900Y-119979332D01*
X78971265Y-120158483D01*
X78901364Y-120327240D01*
X78799882Y-120479118D01*
X78670718Y-120608282D01*
X78518840Y-120709764D01*
X78350083Y-120779665D01*
X78170932Y-120815300D01*
X77988268Y-120815300D01*
X77809117Y-120779665D01*
X77640360Y-120709764D01*
X77488482Y-120608282D01*
X77359318Y-120479118D01*
X77257836Y-120327240D01*
X77187935Y-120158483D01*
X77152300Y-119979332D01*
X77152300Y-119796668D01*
X77187935Y-119617517D01*
X77257836Y-119448760D01*
X77359318Y-119296882D01*
X77488482Y-119167718D01*
X77640360Y-119066236D01*
X77809117Y-118996335D01*
X77988268Y-118960700D01*
X78170932Y-118960700D01*
X78350083Y-118996335D01*
G37*
G36*
X93590083Y-118996335D02*
G01*
X93758840Y-119066236D01*
X93910718Y-119167718D01*
X94039882Y-119296882D01*
X94141364Y-119448760D01*
X94211265Y-119617517D01*
X94246900Y-119796668D01*
X94246900Y-119979332D01*
X94211265Y-120158483D01*
X94141364Y-120327240D01*
X94039882Y-120479118D01*
X93910718Y-120608282D01*
X93758840Y-120709764D01*
X93590083Y-120779665D01*
X93410932Y-120815300D01*
X93228268Y-120815300D01*
X93049117Y-120779665D01*
X92880360Y-120709764D01*
X92728482Y-120608282D01*
X92599318Y-120479118D01*
X92497836Y-120327240D01*
X92427935Y-120158483D01*
X92392300Y-119979332D01*
X92392300Y-119796668D01*
X92427935Y-119617517D01*
X92497836Y-119448760D01*
X92599318Y-119296882D01*
X92728482Y-119167718D01*
X92880360Y-119066236D01*
X93049117Y-118996335D01*
X93228268Y-118960700D01*
X93410932Y-118960700D01*
X93590083Y-118996335D01*
G37*
G36*
X126706379Y-115102813D02*
G01*
X126945991Y-115193713D01*
X127031570Y-115247241D01*
X127163265Y-115329613D01*
X127349852Y-115505288D01*
X127461209Y-115661550D01*
X127498580Y-115713990D01*
X127603735Y-115947697D01*
X127603736Y-115947701D01*
X127661276Y-116197428D01*
X127667243Y-116395540D01*
X127667450Y-116395534D01*
X127667942Y-116411796D01*
X127673447Y-116435674D01*
X127683504Y-116458019D01*
X127704962Y-116485592D01*
X127821579Y-116598503D01*
X127930846Y-116756451D01*
X128803813Y-118328089D01*
X128880166Y-118504320D01*
X128934213Y-118754831D01*
X128938351Y-119011072D01*
X128925520Y-119081500D01*
X128892419Y-119263196D01*
X128798180Y-119501517D01*
X128659262Y-119716870D01*
X128493899Y-119887660D01*
X128480996Y-119900986D01*
X128381688Y-119969686D01*
X128270239Y-120046785D01*
X128168357Y-120090926D01*
X128035086Y-120148667D01*
X127784575Y-120202714D01*
X127528334Y-120206852D01*
X127455159Y-120193520D01*
X127276210Y-120160920D01*
X127037889Y-120066682D01*
X126822537Y-119927763D01*
X126638423Y-119749499D01*
X126638421Y-119749497D01*
X126529154Y-119591549D01*
X125705413Y-118108534D01*
X125691477Y-118088389D01*
X125673872Y-118071344D01*
X125662430Y-118063261D01*
X125661802Y-118062868D01*
X125526735Y-117978387D01*
X125481911Y-117936184D01*
X125340148Y-117802712D01*
X125228791Y-117646450D01*
X125191420Y-117594010D01*
X125086265Y-117360303D01*
X125063738Y-117262535D01*
X125028724Y-117110572D01*
X125022942Y-116918608D01*
X125071084Y-116212428D01*
X125086203Y-116122321D01*
X125102865Y-116023017D01*
X125193765Y-115783405D01*
X125329665Y-115566131D01*
X125505340Y-115379544D01*
X125690994Y-115247241D01*
X125714042Y-115230816D01*
X125947749Y-115125661D01*
X125947753Y-115125660D01*
X126197479Y-115068120D01*
X126453634Y-115060406D01*
X126453638Y-115060406D01*
X126706379Y-115102813D01*
G37*
G36*
X121452521Y-115068120D02*
G01*
X121702247Y-115125660D01*
X121702251Y-115125661D01*
X121935958Y-115230816D01*
X121959006Y-115247241D01*
X122144660Y-115379544D01*
X122320335Y-115566131D01*
X122456235Y-115783405D01*
X122547135Y-116023017D01*
X122578916Y-116212429D01*
X122607227Y-116627718D01*
X122627058Y-116918606D01*
X122621276Y-117110572D01*
X122586262Y-117262535D01*
X122563735Y-117360303D01*
X122458580Y-117594010D01*
X122421209Y-117646450D01*
X122309852Y-117802712D01*
X122168089Y-117936184D01*
X122123265Y-117978387D01*
X121988199Y-118062868D01*
X121987570Y-118063261D01*
X121968169Y-118078229D01*
X121952061Y-118096694D01*
X121944594Y-118108522D01*
X121120846Y-119591549D01*
X121011579Y-119749497D01*
X121011577Y-119749499D01*
X120827463Y-119927763D01*
X120642953Y-120046785D01*
X120612108Y-120066682D01*
X120589546Y-120075603D01*
X120373789Y-120160920D01*
X120194840Y-120193520D01*
X120121665Y-120206852D01*
X119865425Y-120202714D01*
X119614914Y-120148667D01*
X119481643Y-120090926D01*
X119379761Y-120046785D01*
X119268312Y-119969686D01*
X119169004Y-119900986D01*
X119156101Y-119887660D01*
X118990738Y-119716870D01*
X118851820Y-119501517D01*
X118757581Y-119263196D01*
X118724480Y-119081500D01*
X118711649Y-119011072D01*
X118715787Y-118754832D01*
X118769834Y-118504321D01*
X118846187Y-118328090D01*
X119719154Y-116756451D01*
X119828421Y-116598503D01*
X119945038Y-116485592D01*
X119960887Y-116466904D01*
X119972786Y-116445482D01*
X119980277Y-116422151D01*
X119982202Y-116395521D01*
X119982757Y-116395538D01*
X119988724Y-116197428D01*
X120046264Y-115947701D01*
X120046265Y-115947697D01*
X120151420Y-115713990D01*
X120188791Y-115661550D01*
X120300148Y-115505288D01*
X120486735Y-115329613D01*
X120618430Y-115247241D01*
X120704009Y-115193713D01*
X120943621Y-115102813D01*
X121196362Y-115060406D01*
X121196366Y-115060406D01*
X121452521Y-115068120D01*
G37*
G36*
X88606379Y-115102813D02*
G01*
X88845991Y-115193713D01*
X88931570Y-115247241D01*
X89063265Y-115329613D01*
X89249852Y-115505288D01*
X89361209Y-115661550D01*
X89398580Y-115713990D01*
X89503735Y-115947697D01*
X89503736Y-115947701D01*
X89561276Y-116197428D01*
X89567243Y-116395540D01*
X89567450Y-116395534D01*
X89567942Y-116411796D01*
X89573447Y-116435674D01*
X89583504Y-116458019D01*
X89604962Y-116485592D01*
X89721579Y-116598503D01*
X89830846Y-116756451D01*
X90703813Y-118328089D01*
X90780166Y-118504320D01*
X90834213Y-118754831D01*
X90838351Y-119011072D01*
X90825520Y-119081500D01*
X90792419Y-119263196D01*
X90698180Y-119501517D01*
X90559262Y-119716870D01*
X90393899Y-119887660D01*
X90380996Y-119900986D01*
X90281688Y-119969686D01*
X90170239Y-120046785D01*
X90068357Y-120090926D01*
X89935086Y-120148667D01*
X89684575Y-120202714D01*
X89428334Y-120206852D01*
X89355159Y-120193520D01*
X89176210Y-120160920D01*
X88937889Y-120066682D01*
X88722537Y-119927763D01*
X88538423Y-119749499D01*
X88538421Y-119749497D01*
X88429154Y-119591549D01*
X87605413Y-118108534D01*
X87591477Y-118088389D01*
X87573872Y-118071344D01*
X87562430Y-118063261D01*
X87561802Y-118062868D01*
X87426735Y-117978387D01*
X87381911Y-117936184D01*
X87240148Y-117802712D01*
X87128791Y-117646450D01*
X87091420Y-117594010D01*
X86986265Y-117360303D01*
X86963738Y-117262535D01*
X86928724Y-117110572D01*
X86922942Y-116918608D01*
X86971084Y-116212428D01*
X86986203Y-116122321D01*
X87002865Y-116023017D01*
X87093765Y-115783405D01*
X87229665Y-115566131D01*
X87405340Y-115379544D01*
X87590994Y-115247241D01*
X87614042Y-115230816D01*
X87847749Y-115125661D01*
X87847753Y-115125660D01*
X88097479Y-115068120D01*
X88353634Y-115060406D01*
X88353638Y-115060406D01*
X88606379Y-115102813D01*
G37*
G36*
X83352521Y-115068120D02*
G01*
X83602247Y-115125660D01*
X83602251Y-115125661D01*
X83835958Y-115230816D01*
X83859006Y-115247241D01*
X84044660Y-115379544D01*
X84220335Y-115566131D01*
X84356235Y-115783405D01*
X84447135Y-116023017D01*
X84478916Y-116212429D01*
X84507227Y-116627718D01*
X84527058Y-116918606D01*
X84521276Y-117110572D01*
X84486262Y-117262535D01*
X84463735Y-117360303D01*
X84358580Y-117594010D01*
X84321209Y-117646450D01*
X84209852Y-117802712D01*
X84068089Y-117936184D01*
X84023265Y-117978387D01*
X83888199Y-118062868D01*
X83887570Y-118063261D01*
X83868169Y-118078229D01*
X83852061Y-118096694D01*
X83844594Y-118108522D01*
X83020846Y-119591549D01*
X82911579Y-119749497D01*
X82911577Y-119749499D01*
X82727463Y-119927763D01*
X82542953Y-120046785D01*
X82512108Y-120066682D01*
X82489546Y-120075603D01*
X82273789Y-120160920D01*
X82094840Y-120193520D01*
X82021665Y-120206852D01*
X81765425Y-120202714D01*
X81514914Y-120148667D01*
X81381643Y-120090926D01*
X81279761Y-120046785D01*
X81168312Y-119969686D01*
X81069004Y-119900986D01*
X81056101Y-119887660D01*
X80890738Y-119716870D01*
X80751820Y-119501517D01*
X80657581Y-119263196D01*
X80624480Y-119081500D01*
X80611649Y-119011072D01*
X80615787Y-118754832D01*
X80669834Y-118504321D01*
X80746187Y-118328090D01*
X81619154Y-116756451D01*
X81728421Y-116598503D01*
X81845038Y-116485592D01*
X81860887Y-116466904D01*
X81872786Y-116445482D01*
X81880277Y-116422151D01*
X81882202Y-116395521D01*
X81882757Y-116395538D01*
X81888724Y-116197428D01*
X81946264Y-115947701D01*
X81946265Y-115947697D01*
X82051420Y-115713990D01*
X82088791Y-115661550D01*
X82200148Y-115505288D01*
X82386735Y-115329613D01*
X82518430Y-115247241D01*
X82604009Y-115193713D01*
X82843621Y-115102813D01*
X83096362Y-115060406D01*
X83096366Y-115060406D01*
X83352521Y-115068120D01*
G37*
G36*
X132020283Y-117262535D02*
G01*
X132189040Y-117332436D01*
X132340918Y-117433918D01*
X132470082Y-117563082D01*
X132571564Y-117714960D01*
X132641465Y-117883717D01*
X132677100Y-118062868D01*
X132677100Y-118245532D01*
X132641465Y-118424683D01*
X132571564Y-118593440D01*
X132470082Y-118745318D01*
X132340918Y-118874482D01*
X132189040Y-118975964D01*
X132020283Y-119045865D01*
X131841132Y-119081500D01*
X131658468Y-119081500D01*
X131479317Y-119045865D01*
X131310560Y-118975964D01*
X131158682Y-118874482D01*
X131029518Y-118745318D01*
X130928036Y-118593440D01*
X130858135Y-118424683D01*
X130822500Y-118245532D01*
X130822500Y-118062868D01*
X130858135Y-117883717D01*
X130928036Y-117714960D01*
X131029518Y-117563082D01*
X131158682Y-117433918D01*
X131310560Y-117332436D01*
X131479317Y-117262535D01*
X131658468Y-117226900D01*
X131841132Y-117226900D01*
X132020283Y-117262535D01*
G37*
G36*
X135220683Y-117262535D02*
G01*
X135389440Y-117332436D01*
X135541318Y-117433918D01*
X135670482Y-117563082D01*
X135771964Y-117714960D01*
X135841865Y-117883717D01*
X135877500Y-118062868D01*
X135877500Y-118245532D01*
X135841865Y-118424683D01*
X135771964Y-118593440D01*
X135670482Y-118745318D01*
X135541318Y-118874482D01*
X135389440Y-118975964D01*
X135220683Y-119045865D01*
X135041532Y-119081500D01*
X134858868Y-119081500D01*
X134679717Y-119045865D01*
X134510960Y-118975964D01*
X134359082Y-118874482D01*
X134229918Y-118745318D01*
X134128436Y-118593440D01*
X134058535Y-118424683D01*
X134022900Y-118245532D01*
X134022900Y-118062868D01*
X134058535Y-117883717D01*
X134128436Y-117714960D01*
X134229918Y-117563082D01*
X134359082Y-117433918D01*
X134510960Y-117332436D01*
X134679717Y-117262535D01*
X134858868Y-117226900D01*
X135041532Y-117226900D01*
X135220683Y-117262535D01*
G37*
G36*
X114548228Y-117201703D02*
G01*
X114703100Y-117265853D01*
X114842481Y-117358985D01*
X114961015Y-117477519D01*
X115054147Y-117616900D01*
X115118297Y-117771772D01*
X115151000Y-117936184D01*
X115151000Y-118103816D01*
X115118297Y-118268228D01*
X115054147Y-118423100D01*
X114961015Y-118562481D01*
X114842481Y-118681015D01*
X114703100Y-118774147D01*
X114548228Y-118838297D01*
X114383816Y-118871000D01*
X114216184Y-118871000D01*
X114051772Y-118838297D01*
X113896900Y-118774147D01*
X113757519Y-118681015D01*
X113638985Y-118562481D01*
X113545853Y-118423100D01*
X113481703Y-118268228D01*
X113449000Y-118103816D01*
X113449000Y-117936184D01*
X113481703Y-117771772D01*
X113545853Y-117616900D01*
X113638985Y-117477519D01*
X113757519Y-117358985D01*
X113896900Y-117265853D01*
X114051772Y-117201703D01*
X114216184Y-117169000D01*
X114383816Y-117169000D01*
X114548228Y-117201703D01*
G37*
G36*
X78350083Y-116456335D02*
G01*
X78518840Y-116526236D01*
X78670718Y-116627718D01*
X78799882Y-116756882D01*
X78901364Y-116908760D01*
X78971265Y-117077517D01*
X79006900Y-117256668D01*
X79006900Y-117439332D01*
X78971265Y-117618483D01*
X78901364Y-117787240D01*
X78799882Y-117939118D01*
X78670718Y-118068282D01*
X78518840Y-118169764D01*
X78350083Y-118239665D01*
X78170932Y-118275300D01*
X77988268Y-118275300D01*
X77809117Y-118239665D01*
X77640360Y-118169764D01*
X77488482Y-118068282D01*
X77359318Y-117939118D01*
X77257836Y-117787240D01*
X77187935Y-117618483D01*
X77152300Y-117439332D01*
X77152300Y-117256668D01*
X77187935Y-117077517D01*
X77257836Y-116908760D01*
X77359318Y-116756882D01*
X77488482Y-116627718D01*
X77640360Y-116526236D01*
X77809117Y-116456335D01*
X77988268Y-116420700D01*
X78170932Y-116420700D01*
X78350083Y-116456335D01*
G37*
G36*
X93590083Y-116456335D02*
G01*
X93758840Y-116526236D01*
X93910718Y-116627718D01*
X94039882Y-116756882D01*
X94141364Y-116908760D01*
X94211265Y-117077517D01*
X94246900Y-117256668D01*
X94246900Y-117439332D01*
X94211265Y-117618483D01*
X94141364Y-117787240D01*
X94039882Y-117939118D01*
X93910718Y-118068282D01*
X93758840Y-118169764D01*
X93590083Y-118239665D01*
X93410932Y-118275300D01*
X93228268Y-118275300D01*
X93049117Y-118239665D01*
X92880360Y-118169764D01*
X92728482Y-118068282D01*
X92599318Y-117939118D01*
X92497836Y-117787240D01*
X92427935Y-117618483D01*
X92392300Y-117439332D01*
X92392300Y-117256668D01*
X92427935Y-117077517D01*
X92497836Y-116908760D01*
X92599318Y-116756882D01*
X92728482Y-116627718D01*
X92880360Y-116526236D01*
X93049117Y-116456335D01*
X93228268Y-116420700D01*
X93410932Y-116420700D01*
X93590083Y-116456335D01*
G37*
G36*
X107656379Y-112720813D02*
G01*
X107895991Y-112811713D01*
X108113265Y-112947613D01*
X108299852Y-113123288D01*
X108365921Y-113216000D01*
X108448580Y-113331990D01*
X108553735Y-113565697D01*
X108553736Y-113565701D01*
X108611276Y-113815428D01*
X108617243Y-114013540D01*
X108617450Y-114013534D01*
X108617942Y-114029796D01*
X108623447Y-114053674D01*
X108633504Y-114076019D01*
X108654962Y-114103592D01*
X108771579Y-114216503D01*
X108880846Y-114374451D01*
X109753813Y-115946089D01*
X109830166Y-116122320D01*
X109884213Y-116372831D01*
X109888351Y-116629072D01*
X109875019Y-116702247D01*
X109842419Y-116881196D01*
X109748180Y-117119517D01*
X109609262Y-117334870D01*
X109442930Y-117506660D01*
X109430996Y-117518986D01*
X109350439Y-117574714D01*
X109220239Y-117664785D01*
X109118357Y-117708926D01*
X108985086Y-117766667D01*
X108734575Y-117820714D01*
X108478334Y-117824852D01*
X108405159Y-117811520D01*
X108226210Y-117778920D01*
X107987889Y-117684682D01*
X107772537Y-117545763D01*
X107588423Y-117367499D01*
X107588421Y-117367497D01*
X107479154Y-117209549D01*
X106655413Y-115726534D01*
X106641477Y-115706389D01*
X106623872Y-115689344D01*
X106612430Y-115681261D01*
X106556884Y-115646518D01*
X106476735Y-115596387D01*
X106444600Y-115566131D01*
X106290148Y-115420712D01*
X106166527Y-115247241D01*
X106141420Y-115212010D01*
X106036265Y-114978303D01*
X106017313Y-114896050D01*
X105978724Y-114728572D01*
X105972942Y-114536608D01*
X106021084Y-113830428D01*
X106033044Y-113759148D01*
X106052865Y-113641017D01*
X106143765Y-113401405D01*
X106279665Y-113184131D01*
X106336950Y-113123288D01*
X106455340Y-112997544D01*
X106649585Y-112859119D01*
X106664042Y-112848816D01*
X106897749Y-112743661D01*
X106897753Y-112743660D01*
X107147479Y-112686120D01*
X107403634Y-112678406D01*
X107403638Y-112678406D01*
X107656379Y-112720813D01*
G37*
G36*
X102402521Y-112686120D02*
G01*
X102652247Y-112743660D01*
X102652251Y-112743661D01*
X102885958Y-112848816D01*
X102900415Y-112859119D01*
X103094660Y-112997544D01*
X103213050Y-113123288D01*
X103270335Y-113184131D01*
X103406235Y-113401405D01*
X103497135Y-113641017D01*
X103528916Y-113830429D01*
X103557460Y-114249130D01*
X103577058Y-114536606D01*
X103571276Y-114728572D01*
X103532687Y-114896050D01*
X103513735Y-114978303D01*
X103408580Y-115212010D01*
X103383473Y-115247241D01*
X103259852Y-115420712D01*
X103105400Y-115566131D01*
X103073265Y-115596387D01*
X102993117Y-115646518D01*
X102937570Y-115681261D01*
X102918169Y-115696229D01*
X102902061Y-115714694D01*
X102894594Y-115726522D01*
X102070846Y-117209549D01*
X101961579Y-117367497D01*
X101961577Y-117367499D01*
X101777463Y-117545763D01*
X101592953Y-117664785D01*
X101562108Y-117684682D01*
X101539546Y-117693603D01*
X101323789Y-117778920D01*
X101144840Y-117811520D01*
X101071665Y-117824852D01*
X100815425Y-117820714D01*
X100564914Y-117766667D01*
X100431643Y-117708926D01*
X100329761Y-117664785D01*
X100199561Y-117574714D01*
X100119004Y-117518986D01*
X100107070Y-117506660D01*
X99940738Y-117334870D01*
X99801820Y-117119517D01*
X99707581Y-116881196D01*
X99674981Y-116702247D01*
X99661649Y-116629072D01*
X99665787Y-116372832D01*
X99719834Y-116122321D01*
X99796187Y-115946090D01*
X100669154Y-114374451D01*
X100778421Y-114216503D01*
X100895038Y-114103592D01*
X100910887Y-114084904D01*
X100922786Y-114063482D01*
X100930277Y-114040151D01*
X100932202Y-114013521D01*
X100932757Y-114013538D01*
X100938724Y-113815428D01*
X100996264Y-113565701D01*
X100996265Y-113565697D01*
X101101420Y-113331990D01*
X101184079Y-113216000D01*
X101250148Y-113123288D01*
X101436735Y-112947613D01*
X101654009Y-112811713D01*
X101893621Y-112720813D01*
X102146362Y-112678406D01*
X102146366Y-112678406D01*
X102402521Y-112686120D01*
G37*
G36*
X137227283Y-114163735D02*
G01*
X137396040Y-114233636D01*
X137547918Y-114335118D01*
X137677082Y-114464282D01*
X137778564Y-114616160D01*
X137848465Y-114784917D01*
X137884100Y-114964068D01*
X137884100Y-115146732D01*
X137848465Y-115325883D01*
X137778564Y-115494640D01*
X137677082Y-115646518D01*
X137547918Y-115775682D01*
X137396040Y-115877164D01*
X137227283Y-115947065D01*
X137048132Y-115982700D01*
X136865468Y-115982700D01*
X136686317Y-115947065D01*
X136517560Y-115877164D01*
X136365682Y-115775682D01*
X136236518Y-115646518D01*
X136135036Y-115494640D01*
X136065135Y-115325883D01*
X136029500Y-115146732D01*
X136029500Y-114964068D01*
X136065135Y-114784917D01*
X136135036Y-114616160D01*
X136236518Y-114464282D01*
X136365682Y-114335118D01*
X136517560Y-114233636D01*
X136686317Y-114163735D01*
X136865468Y-114128100D01*
X137048132Y-114128100D01*
X137227283Y-114163735D01*
G37*
G36*
X130013683Y-114163735D02*
G01*
X130182440Y-114233636D01*
X130334318Y-114335118D01*
X130463482Y-114464282D01*
X130564964Y-114616160D01*
X130634865Y-114784917D01*
X130670500Y-114964068D01*
X130670500Y-115146732D01*
X130634865Y-115325883D01*
X130564964Y-115494640D01*
X130463482Y-115646518D01*
X130334318Y-115775682D01*
X130182440Y-115877164D01*
X130013683Y-115947065D01*
X129834532Y-115982700D01*
X129651868Y-115982700D01*
X129472717Y-115947065D01*
X129303960Y-115877164D01*
X129152082Y-115775682D01*
X129022918Y-115646518D01*
X128921436Y-115494640D01*
X128851535Y-115325883D01*
X128815900Y-115146732D01*
X128815900Y-114964068D01*
X128851535Y-114784917D01*
X128921436Y-114616160D01*
X129022918Y-114464282D01*
X129152082Y-114335118D01*
X129303960Y-114233636D01*
X129472717Y-114163735D01*
X129651868Y-114128100D01*
X129834532Y-114128100D01*
X130013683Y-114163735D01*
G37*
G36*
X93590083Y-113916335D02*
G01*
X93758840Y-113986236D01*
X93910718Y-114087718D01*
X94039882Y-114216882D01*
X94141364Y-114368760D01*
X94211265Y-114537517D01*
X94246900Y-114716668D01*
X94246900Y-114899332D01*
X94211265Y-115078483D01*
X94141364Y-115247240D01*
X94039882Y-115399118D01*
X93910718Y-115528282D01*
X93758840Y-115629764D01*
X93590083Y-115699665D01*
X93410932Y-115735300D01*
X93228268Y-115735300D01*
X93049117Y-115699665D01*
X92880360Y-115629764D01*
X92728482Y-115528282D01*
X92599318Y-115399118D01*
X92497836Y-115247240D01*
X92427935Y-115078483D01*
X92392300Y-114899332D01*
X92392300Y-114716668D01*
X92427935Y-114537517D01*
X92497836Y-114368760D01*
X92599318Y-114216882D01*
X92728482Y-114087718D01*
X92880360Y-113986236D01*
X93049117Y-113916335D01*
X93228268Y-113880700D01*
X93410932Y-113880700D01*
X93590083Y-113916335D01*
G37*
G36*
X78350083Y-113916335D02*
G01*
X78518840Y-113986236D01*
X78670718Y-114087718D01*
X78799882Y-114216882D01*
X78901364Y-114368760D01*
X78971265Y-114537517D01*
X79006900Y-114716668D01*
X79006900Y-114899332D01*
X78971265Y-115078483D01*
X78901364Y-115247240D01*
X78799882Y-115399118D01*
X78670718Y-115528282D01*
X78518840Y-115629764D01*
X78350083Y-115699665D01*
X78170932Y-115735300D01*
X77988268Y-115735300D01*
X77809117Y-115699665D01*
X77640360Y-115629764D01*
X77488482Y-115528282D01*
X77359318Y-115399118D01*
X77257836Y-115247240D01*
X77187935Y-115078483D01*
X77152300Y-114899332D01*
X77152300Y-114716668D01*
X77187935Y-114537517D01*
X77257836Y-114368760D01*
X77359318Y-114216882D01*
X77488482Y-114087718D01*
X77640360Y-113986236D01*
X77809117Y-113916335D01*
X77988268Y-113880700D01*
X78170932Y-113880700D01*
X78350083Y-113916335D01*
G37*
G36*
X133456578Y-114519597D02*
G01*
X133509350Y-114530094D01*
X133608770Y-114571275D01*
X133698246Y-114631061D01*
X133774339Y-114707154D01*
X133834125Y-114796630D01*
X133875306Y-114896050D01*
X133896300Y-115001594D01*
X133896300Y-115109206D01*
X133875306Y-115214750D01*
X133834125Y-115314170D01*
X133774339Y-115403646D01*
X133698246Y-115479739D01*
X133608770Y-115539525D01*
X133509350Y-115580706D01*
X133456578Y-115591203D01*
X133403807Y-115601700D01*
X133296193Y-115601700D01*
X133243422Y-115591203D01*
X133190650Y-115580706D01*
X133091230Y-115539525D01*
X133001754Y-115479739D01*
X132925661Y-115403646D01*
X132865875Y-115314170D01*
X132824694Y-115214750D01*
X132803700Y-115109206D01*
X132803700Y-115001594D01*
X132824694Y-114896050D01*
X132865875Y-114796630D01*
X132925661Y-114707154D01*
X133001754Y-114631061D01*
X133091230Y-114571275D01*
X133190650Y-114530094D01*
X133243422Y-114519597D01*
X133296193Y-114509100D01*
X133403807Y-114509100D01*
X133456578Y-114519597D01*
G37*
G36*
X140324000Y-114816000D02*
G01*
X139022000Y-114816000D01*
X139022000Y-112514000D01*
X140324000Y-112514000D01*
X140324000Y-114816000D01*
G37*
G36*
X142434000Y-114816000D02*
G01*
X141132000Y-114816000D01*
X141132000Y-112514000D01*
X142434000Y-112514000D01*
X142434000Y-114816000D01*
G37*
G36*
X114508000Y-113709000D02*
G01*
X112706000Y-113709000D01*
X112706000Y-112607000D01*
X114508000Y-112607000D01*
X114508000Y-113709000D01*
G37*
G36*
X120808000Y-113709000D02*
G01*
X119006000Y-113709000D01*
X119006000Y-112607000D01*
X120808000Y-112607000D01*
X120808000Y-113709000D01*
G37*
G36*
X78350083Y-111376335D02*
G01*
X78518840Y-111446236D01*
X78670718Y-111547718D01*
X78799882Y-111676882D01*
X78901364Y-111828760D01*
X78971265Y-111997517D01*
X79006900Y-112176668D01*
X79006900Y-112359332D01*
X78971265Y-112538483D01*
X78901364Y-112707240D01*
X78799882Y-112859118D01*
X78670718Y-112988282D01*
X78518840Y-113089764D01*
X78350083Y-113159665D01*
X78170932Y-113195300D01*
X77988268Y-113195300D01*
X77809117Y-113159665D01*
X77640360Y-113089764D01*
X77488482Y-112988282D01*
X77359318Y-112859118D01*
X77257836Y-112707240D01*
X77187935Y-112538483D01*
X77152300Y-112359332D01*
X77152300Y-112176668D01*
X77187935Y-111997517D01*
X77257836Y-111828760D01*
X77359318Y-111676882D01*
X77488482Y-111547718D01*
X77640360Y-111446236D01*
X77809117Y-111376335D01*
X77988268Y-111340700D01*
X78170932Y-111340700D01*
X78350083Y-111376335D01*
G37*
G36*
X93590083Y-111376335D02*
G01*
X93758840Y-111446236D01*
X93910718Y-111547718D01*
X94039882Y-111676882D01*
X94141364Y-111828760D01*
X94211265Y-111997517D01*
X94246900Y-112176668D01*
X94246900Y-112359332D01*
X94211265Y-112538483D01*
X94141364Y-112707240D01*
X94039882Y-112859118D01*
X93910718Y-112988282D01*
X93758840Y-113089764D01*
X93590083Y-113159665D01*
X93410932Y-113195300D01*
X93228268Y-113195300D01*
X93049117Y-113159665D01*
X92880360Y-113089764D01*
X92728482Y-112988282D01*
X92599318Y-112859118D01*
X92497836Y-112707240D01*
X92427935Y-112538483D01*
X92392300Y-112359332D01*
X92392300Y-112176668D01*
X92427935Y-111997517D01*
X92497836Y-111828760D01*
X92599318Y-111676882D01*
X92728482Y-111547718D01*
X92880360Y-111446236D01*
X93049117Y-111376335D01*
X93228268Y-111340700D01*
X93410932Y-111340700D01*
X93590083Y-111376335D01*
G37*
G36*
X129035979Y-109137717D02*
G01*
X129035982Y-109137718D01*
X129210779Y-109190742D01*
X129210781Y-109190743D01*
X129210784Y-109190744D01*
X129356879Y-109268833D01*
X129371873Y-109276848D01*
X129408654Y-109307034D01*
X129513073Y-109392727D01*
X129598766Y-109497146D01*
X129628952Y-109533927D01*
X129628953Y-109533929D01*
X129715056Y-109695016D01*
X129715057Y-109695019D01*
X129715058Y-109695021D01*
X129744728Y-109792829D01*
X129768083Y-109869821D01*
X129785986Y-110051600D01*
X129768083Y-110233379D01*
X129768082Y-110233382D01*
X129717586Y-110399846D01*
X129715056Y-110408184D01*
X129693623Y-110448282D01*
X129628952Y-110569273D01*
X129605458Y-110597900D01*
X129513073Y-110710473D01*
X129408654Y-110796166D01*
X129371873Y-110826352D01*
X129371871Y-110826353D01*
X129210784Y-110912456D01*
X129210781Y-110912457D01*
X129210779Y-110912458D01*
X129063412Y-110957161D01*
X129035979Y-110965483D01*
X128899751Y-110978900D01*
X128503849Y-110978900D01*
X128367621Y-110965483D01*
X128340188Y-110957161D01*
X128192821Y-110912458D01*
X128192819Y-110912457D01*
X128192816Y-110912456D01*
X128031729Y-110826353D01*
X128031727Y-110826352D01*
X127994946Y-110796166D01*
X127890527Y-110710473D01*
X127798142Y-110597900D01*
X127774648Y-110569273D01*
X127709977Y-110448282D01*
X127688544Y-110408184D01*
X127686015Y-110399846D01*
X127635518Y-110233382D01*
X127635517Y-110233379D01*
X127617614Y-110051600D01*
X127635517Y-109869821D01*
X127658872Y-109792829D01*
X127688542Y-109695021D01*
X127688543Y-109695019D01*
X127688544Y-109695016D01*
X127774647Y-109533929D01*
X127774648Y-109533927D01*
X127804834Y-109497146D01*
X127890527Y-109392727D01*
X127994946Y-109307034D01*
X128031727Y-109276848D01*
X128046721Y-109268833D01*
X128192816Y-109190744D01*
X128192819Y-109190743D01*
X128192821Y-109190742D01*
X128367618Y-109137718D01*
X128367621Y-109137717D01*
X128503849Y-109124300D01*
X128899751Y-109124300D01*
X129035979Y-109137717D01*
G37*
G36*
X138332379Y-109137717D02*
G01*
X138332382Y-109137718D01*
X138507179Y-109190742D01*
X138507181Y-109190743D01*
X138507184Y-109190744D01*
X138653279Y-109268833D01*
X138668273Y-109276848D01*
X138705054Y-109307034D01*
X138809473Y-109392727D01*
X138895166Y-109497146D01*
X138925352Y-109533927D01*
X138925353Y-109533929D01*
X139011456Y-109695016D01*
X139011457Y-109695019D01*
X139011458Y-109695021D01*
X139041128Y-109792829D01*
X139064483Y-109869821D01*
X139082386Y-110051600D01*
X139064483Y-110233379D01*
X139064482Y-110233382D01*
X139013986Y-110399846D01*
X139011456Y-110408184D01*
X138990023Y-110448282D01*
X138925352Y-110569273D01*
X138901858Y-110597900D01*
X138809473Y-110710473D01*
X138705054Y-110796166D01*
X138668273Y-110826352D01*
X138668271Y-110826353D01*
X138507184Y-110912456D01*
X138507181Y-110912457D01*
X138507179Y-110912458D01*
X138359812Y-110957161D01*
X138332379Y-110965483D01*
X138196151Y-110978900D01*
X137800249Y-110978900D01*
X137664021Y-110965483D01*
X137636588Y-110957161D01*
X137489221Y-110912458D01*
X137489219Y-110912457D01*
X137489216Y-110912456D01*
X137328129Y-110826353D01*
X137328127Y-110826352D01*
X137291346Y-110796166D01*
X137186927Y-110710473D01*
X137094542Y-110597900D01*
X137071048Y-110569273D01*
X137006377Y-110448282D01*
X136984944Y-110408184D01*
X136982415Y-110399846D01*
X136931918Y-110233382D01*
X136931917Y-110233379D01*
X136914014Y-110051600D01*
X136931917Y-109869821D01*
X136955272Y-109792829D01*
X136984942Y-109695021D01*
X136984943Y-109695019D01*
X136984944Y-109695016D01*
X137071047Y-109533929D01*
X137071048Y-109533927D01*
X137101234Y-109497146D01*
X137186927Y-109392727D01*
X137291346Y-109307034D01*
X137328127Y-109276848D01*
X137343121Y-109268833D01*
X137489216Y-109190744D01*
X137489219Y-109190743D01*
X137489221Y-109190742D01*
X137664018Y-109137718D01*
X137664021Y-109137717D01*
X137800249Y-109124300D01*
X138196151Y-109124300D01*
X138332379Y-109137717D01*
G37*
G36*
X79006900Y-110655300D02*
G01*
X77152300Y-110655300D01*
X77152300Y-108800700D01*
X79006900Y-108800700D01*
X79006900Y-110655300D01*
G37*
G36*
X93590083Y-108836335D02*
G01*
X93758840Y-108906236D01*
X93910718Y-109007718D01*
X94039882Y-109136882D01*
X94141364Y-109288760D01*
X94211265Y-109457517D01*
X94246900Y-109636668D01*
X94246900Y-109819332D01*
X94211265Y-109998483D01*
X94141364Y-110167240D01*
X94039882Y-110319118D01*
X93910718Y-110448282D01*
X93758840Y-110549764D01*
X93590083Y-110619665D01*
X93410932Y-110655300D01*
X93228268Y-110655300D01*
X93049117Y-110619665D01*
X92880360Y-110549764D01*
X92728482Y-110448282D01*
X92599318Y-110319118D01*
X92497836Y-110167240D01*
X92427935Y-109998483D01*
X92392300Y-109819332D01*
X92392300Y-109636668D01*
X92427935Y-109457517D01*
X92497836Y-109288760D01*
X92599318Y-109136882D01*
X92728482Y-109007718D01*
X92880360Y-108906236D01*
X93049117Y-108836335D01*
X93228268Y-108800700D01*
X93410932Y-108800700D01*
X93590083Y-108836335D01*
G37*
G36*
X133456578Y-109515797D02*
G01*
X133509350Y-109526294D01*
X133608770Y-109567475D01*
X133698246Y-109627261D01*
X133774339Y-109703354D01*
X133834125Y-109792830D01*
X133875306Y-109892250D01*
X133896300Y-109997794D01*
X133896300Y-110105406D01*
X133875306Y-110210950D01*
X133834125Y-110310370D01*
X133774339Y-110399846D01*
X133698246Y-110475939D01*
X133608770Y-110535725D01*
X133509350Y-110576906D01*
X133456578Y-110587403D01*
X133403807Y-110597900D01*
X133296193Y-110597900D01*
X133243422Y-110587403D01*
X133190650Y-110576906D01*
X133091230Y-110535725D01*
X133001754Y-110475939D01*
X132925661Y-110399846D01*
X132865875Y-110310370D01*
X132824694Y-110210950D01*
X132803700Y-110105406D01*
X132803700Y-109997794D01*
X132824694Y-109892250D01*
X132865875Y-109792830D01*
X132925661Y-109703354D01*
X133001754Y-109627261D01*
X133091230Y-109567475D01*
X133190650Y-109526294D01*
X133243422Y-109515797D01*
X133296193Y-109505300D01*
X133403807Y-109505300D01*
X133456578Y-109515797D01*
G37*
G36*
X114508000Y-109909000D02*
G01*
X112706000Y-109909000D01*
X112706000Y-108807000D01*
X114508000Y-108807000D01*
X114508000Y-109909000D01*
G37*
G36*
X120808000Y-109909000D02*
G01*
X119006000Y-109909000D01*
X119006000Y-108807000D01*
X120808000Y-108807000D01*
X120808000Y-109909000D01*
G37*
M02*
