M48
; DRILL file {KiCad (5.1.5-0-10_14)} date Monday, April 20, 2020 at 08:45:49 pm
; FORMAT={-:-/ absolute / inch / decimal}
; #@! TF.CreationDate,2020-04-20T20:45:49-04:00
; #@! TF.GenerationSoftware,Kicad,Pcbnew,(5.1.5-0-10_14)
; #@! TF.FileFunction,Plated,1,2,PTH
FMAT,2
INCH
T1C0.0157
T2C0.0276
T3C0.0430
T4C0.0591
%
G90
G05
T1
X4.4361Y-4.8585
X4.8054Y-4.31
X5.46Y-4.5495
T2
X2.4465Y-6.1
X2.7535Y-6.1
X4.5Y-6.0965
X4.5Y-6.4035
X5.4715Y-6.0
X5.7785Y-6.0
X5.789Y-7.7212
X6.055Y-7.8748
X4.7215Y-5.15
X5.0285Y-5.15
X4.5Y-5.3965
X4.5Y-5.7035
X5.25Y-5.4465
X5.25Y-5.7535
X3.9465Y-5.05
X4.2535Y-5.05
X3.9965Y-5.8
X4.3035Y-5.8
X5.25Y-6.0844
X5.25Y-6.3915
X3.75Y-6.0465
X3.75Y-6.3535
X4.7215Y-5.9
X5.0285Y-5.9
X2.4465Y-5.35
X2.7535Y-5.35
X5.844Y-7.6292
X6.11Y-7.7828
X3.2215Y-5.9
X3.5285Y-5.9
X3.0Y-6.2465
X3.0Y-6.5535
X5.4715Y-5.25
X5.7785Y-5.25
X4.5Y-4.6465
X4.5Y-4.9535
T3
X3.074Y-4.32
X3.074Y-4.42
X3.074Y-4.52
X3.074Y-4.62
X3.074Y-4.72
X3.074Y-4.82
X3.074Y-4.92
X3.074Y-5.02
X3.074Y-5.12
X3.074Y-5.22
X3.074Y-5.32
X3.074Y-5.42
X3.674Y-4.32
X3.674Y-4.42
X3.674Y-4.52
X3.674Y-4.62
X3.674Y-4.72
X3.674Y-4.82
X3.674Y-4.92
X3.674Y-5.02
X3.674Y-5.12
X3.674Y-5.22
X3.674Y-5.32
X3.674Y-5.42
X5.108Y-4.5297
X5.187Y-4.6517
X5.313Y-4.6517
X5.392Y-4.5297
T3
G00X5.073Y-4.3327
M15
G01X5.061Y-4.3327
M16
G05
G00X5.439Y-4.3327
M15
G01X5.427Y-4.3327
M16
G05
T4
G00X2.5069Y-5.5613
M15
G01X2.475Y-5.6187
M16
G05
G00X2.525Y-5.5188
M15
G01X2.5266Y-5.5415
M16
G05
G00X2.725Y-5.5188
M15
G01X2.7234Y-5.5415
M16
G05
G00X2.7431Y-5.5613
M15
G01X2.775Y-5.6187
M16
G05
G00X5.5069Y-5.4675
M15
G01X5.475Y-5.525
M16
G05
G00X5.525Y-5.425
M15
G01X5.5266Y-5.4478
M16
G05
G00X5.725Y-5.425
M15
G01X5.7234Y-5.4478
M16
G05
G00X5.7431Y-5.4675
M15
G01X5.775Y-5.525
M16
G05
G00X4.0069Y-6.03
M15
G01X3.975Y-6.0875
M16
G05
G00X4.025Y-5.9875
M15
G01X4.0266Y-6.0103
M16
G05
G00X4.225Y-5.9875
M15
G01X4.2234Y-6.0103
M16
G05
G00X4.2431Y-6.03
M15
G01X4.275Y-6.0875
M16
G05
G00X5.5069Y-4.7175
M15
G01X5.475Y-4.775
M16
G05
G00X5.525Y-4.675
M15
G01X5.5266Y-4.6978
M16
G05
G00X5.725Y-4.675
M15
G01X5.7234Y-4.6978
M16
G05
G00X5.7431Y-4.7175
M15
G01X5.775Y-4.775
M16
G05
G00X2.5069Y-4.8113
M15
G01X2.475Y-4.8687
M16
G05
G00X2.525Y-4.7688
M15
G01X2.5266Y-4.7915
M16
G05
G00X2.725Y-4.7688
M15
G01X2.7234Y-4.7915
M16
G05
G00X2.7431Y-4.8113
M15
G01X2.775Y-4.8687
M16
G05
G00X4.3218Y-6.9425
M15
G01X4.2898Y-7.0
M16
G05
G00X4.3399Y-6.9
M15
G01X4.3414Y-6.9228
M16
G05
G00X4.5398Y-6.9
M15
G01X4.5383Y-6.9228
M16
G05
G00X4.5579Y-6.9425
M15
G01X4.5899Y-7.0
M16
G05
G00X3.2569Y-6.1238
M15
G01X3.225Y-6.1813
M16
G05
G00X3.275Y-6.0813
M15
G01X3.2766Y-6.1041
M16
G05
G00X3.475Y-6.0813
M15
G01X3.4734Y-6.1041
M16
G05
G00X3.4931Y-6.1238
M15
G01X3.525Y-6.1813
M16
G05
G00X4.7569Y-5.3738
M15
G01X4.725Y-5.4313
M16
G05
G00X4.775Y-5.3313
M15
G01X4.7766Y-5.3541
M16
G05
G00X4.975Y-5.3313
M15
G01X4.9734Y-5.3541
M16
G05
G00X4.9931Y-5.3738
M15
G01X5.025Y-5.4313
M16
G05
G00X6.2303Y-7.561
M15
G01X6.1646Y-7.5599
M16
G05
G00X6.2762Y-7.5666
M15
G01X6.2572Y-7.5538
M16
G05
G00X6.3484Y-7.3565
M15
G01X6.3146Y-7.3001
M16
G05
G00X6.3762Y-7.3934
M15
G01X6.3557Y-7.3833
M16
G05
G00X3.2569Y-4.6238
M15
G01X3.225Y-4.6813
M16
G05
G00X3.275Y-4.5813
M15
G01X3.2766Y-4.6041
M16
G05
G00X3.475Y-4.5813
M15
G01X3.4734Y-4.6041
M16
G05
G00X3.4931Y-4.6238
M15
G01X3.525Y-4.6813
M16
G05
G00X4.0069Y-5.28
M15
G01X3.975Y-5.3375
M16
G05
G00X4.025Y-5.2375
M15
G01X4.0266Y-5.2603
M16
G05
G00X4.225Y-5.2375
M15
G01X4.2234Y-5.2603
M16
G05
G00X4.2431Y-5.28
M15
G01X4.275Y-5.3375
M16
G05
G00X4.7569Y-4.6238
M15
G01X4.725Y-4.6813
M16
G05
G00X4.775Y-4.5813
M15
G01X4.7766Y-4.6041
M16
G05
G00X4.975Y-4.5813
M15
G01X4.9734Y-4.6041
M16
G05
G00X4.9931Y-4.6238
M15
G01X5.025Y-4.6813
M16
G05
G00X4.7569Y-6.1238
M15
G01X4.725Y-6.1813
M16
G05
G00X4.775Y-6.0813
M15
G01X4.7766Y-6.1041
M16
G05
G00X4.975Y-6.0813
M15
G01X4.9734Y-6.1041
M16
G05
G00X4.9931Y-6.1238
M15
G01X5.025Y-6.1813
M16
G05
G00X2.5069Y-6.3113
M15
G01X2.475Y-6.3687
M16
G05
G00X2.525Y-6.2688
M15
G01X2.5266Y-6.2915
M16
G05
G00X2.725Y-6.2688
M15
G01X2.7234Y-6.2915
M16
G05
G00X2.7431Y-6.3113
M15
G01X2.775Y-6.3687
M16
G05
G00X3.2569Y-5.3738
M15
G01X3.225Y-5.4313
M16
G05
G00X3.275Y-5.3313
M15
G01X3.2766Y-5.3541
M16
G05
G00X3.475Y-5.3313
M15
G01X3.4734Y-5.3541
M16
G05
G00X3.4931Y-5.3738
M15
G01X3.525Y-5.4313
M16
G05
G00X5.2035Y-7.0361
M15
G01X5.1578Y-7.0833
M16
G05
G00X5.232Y-6.9997
M15
G01X5.2276Y-7.0221
M16
G05
G00X5.4252Y-7.0515
M15
G01X5.4178Y-7.0731
M16
G05
G00X5.4316Y-7.0972
M15
G01X5.4476Y-7.161
M16
G05
G00X4.0069Y-4.53
M15
G01X3.975Y-4.5875
M16
G05
G00X4.025Y-4.4875
M15
G01X4.0266Y-4.5103
M16
G05
G00X4.225Y-4.4875
M15
G01X4.2234Y-4.5103
M16
G05
G00X4.2431Y-4.53
M15
G01X4.275Y-4.5875
M16
G05
G00X5.5069Y-6.2175
M15
G01X5.475Y-6.275
M16
G05
G00X5.525Y-6.175
M15
G01X5.5266Y-6.1978
M16
G05
G00X5.725Y-6.175
M15
G01X5.7234Y-6.1978
M16
G05
G00X5.7431Y-6.2175
M15
G01X5.775Y-6.275
M16
G05
T0
M30
