G04 #@! TF.GenerationSoftware,KiCad,Pcbnew,(5.1.5-0-10_14)*
G04 #@! TF.CreationDate,2020-04-20T20:44:16-04:00*
G04 #@! TF.ProjectId,minidox-routed,6d696e69-646f-4782-9d72-6f757465642e,rev?*
G04 #@! TF.SameCoordinates,Original*
G04 #@! TF.FileFunction,Legend,Top*
G04 #@! TF.FilePolarity,Positive*
%FSLAX46Y46*%
G04 Gerber Fmt 4.6, Leading zero omitted, Abs format (unit mm)*
G04 Created by KiCad (PCBNEW (5.1.5-0-10_14)) date 2020-04-20 20:44:16*
%MOMM*%
%LPD*%
G04 APERTURE LIST*
%ADD10C,0.200000*%
%ADD11C,0.381000*%
%ADD12C,0.120000*%
%ADD13C,0.150000*%
%ADD14C,0.304800*%
%ADD15C,0.203200*%
%ADD16C,0.100000*%
G04 APERTURE END LIST*
D10*
X68315000Y-137090000D02*
X68315000Y-134690000D01*
X68490000Y-137090000D02*
X68490000Y-134690000D01*
X68665000Y-137090000D02*
X68665000Y-134690000D01*
X69065000Y-134690000D02*
X69065000Y-137090000D01*
X68840000Y-137090000D02*
X68840000Y-134690000D01*
X68965000Y-137090000D02*
X68965000Y-134690000D01*
X69040000Y-137090000D02*
X63240000Y-137090000D01*
X63240000Y-137090000D02*
X63240000Y-134690000D01*
X63240000Y-134690000D02*
X69040000Y-134690000D01*
X101340000Y-127070000D02*
X107140000Y-127070000D01*
X101340000Y-129470000D02*
X101340000Y-127070000D01*
X107140000Y-129470000D02*
X101340000Y-129470000D01*
X107065000Y-129470000D02*
X107065000Y-127070000D01*
X106940000Y-129470000D02*
X106940000Y-127070000D01*
X107165000Y-127070000D02*
X107165000Y-129470000D01*
X106765000Y-129470000D02*
X106765000Y-127070000D01*
X106590000Y-129470000D02*
X106590000Y-127070000D01*
X106415000Y-129470000D02*
X106415000Y-127070000D01*
X115500000Y-119120000D02*
X115500000Y-124920000D01*
X113100000Y-119120000D02*
X115500000Y-119120000D01*
X113100000Y-124920000D02*
X113100000Y-119120000D01*
X113100000Y-124845000D02*
X115500000Y-124845000D01*
X113100000Y-124720000D02*
X115500000Y-124720000D01*
X115500000Y-124945000D02*
X113100000Y-124945000D01*
X113100000Y-124545000D02*
X115500000Y-124545000D01*
X113100000Y-124370000D02*
X115500000Y-124370000D01*
X113100000Y-124195000D02*
X115500000Y-124195000D01*
X126625000Y-132010000D02*
X120825000Y-132010000D01*
X126625000Y-129610000D02*
X126625000Y-132010000D01*
X120825000Y-129610000D02*
X126625000Y-129610000D01*
X120900000Y-129610000D02*
X120900000Y-132010000D01*
X121025000Y-129610000D02*
X121025000Y-132010000D01*
X120800000Y-132010000D02*
X120800000Y-129610000D01*
X121200000Y-129610000D02*
X121200000Y-132010000D01*
X121375000Y-129610000D02*
X121375000Y-132010000D01*
X121550000Y-129610000D02*
X121550000Y-132010000D01*
X145675000Y-134550000D02*
X139875000Y-134550000D01*
X145675000Y-132150000D02*
X145675000Y-134550000D01*
X139875000Y-132150000D02*
X145675000Y-132150000D01*
X139950000Y-132150000D02*
X139950000Y-134550000D01*
X140075000Y-132150000D02*
X140075000Y-134550000D01*
X139850000Y-134550000D02*
X139850000Y-132150000D01*
X140250000Y-132150000D02*
X140250000Y-134550000D01*
X140425000Y-132150000D02*
X140425000Y-134550000D01*
X140600000Y-132150000D02*
X140600000Y-134550000D01*
X68315000Y-156140000D02*
X68315000Y-153740000D01*
X68490000Y-156140000D02*
X68490000Y-153740000D01*
X68665000Y-156140000D02*
X68665000Y-153740000D01*
X69065000Y-153740000D02*
X69065000Y-156140000D01*
X68840000Y-156140000D02*
X68840000Y-153740000D01*
X68965000Y-156140000D02*
X68965000Y-153740000D01*
X69040000Y-156140000D02*
X63240000Y-156140000D01*
X63240000Y-156140000D02*
X63240000Y-153740000D01*
X63240000Y-153740000D02*
X69040000Y-153740000D01*
X88525000Y-151060000D02*
X82725000Y-151060000D01*
X88525000Y-148660000D02*
X88525000Y-151060000D01*
X82725000Y-148660000D02*
X88525000Y-148660000D01*
X82800000Y-148660000D02*
X82800000Y-151060000D01*
X82925000Y-148660000D02*
X82925000Y-151060000D01*
X82700000Y-151060000D02*
X82700000Y-148660000D01*
X83100000Y-148660000D02*
X83100000Y-151060000D01*
X83275000Y-148660000D02*
X83275000Y-151060000D01*
X83450000Y-148660000D02*
X83450000Y-151060000D01*
X115500000Y-138170000D02*
X115500000Y-143970000D01*
X113100000Y-138170000D02*
X115500000Y-138170000D01*
X113100000Y-143970000D02*
X113100000Y-138170000D01*
X113100000Y-143895000D02*
X115500000Y-143895000D01*
X113100000Y-143770000D02*
X115500000Y-143770000D01*
X115500000Y-143995000D02*
X113100000Y-143995000D01*
X113100000Y-143595000D02*
X115500000Y-143595000D01*
X113100000Y-143420000D02*
X115500000Y-143420000D01*
X113100000Y-143245000D02*
X115500000Y-143245000D01*
X126625000Y-151060000D02*
X120825000Y-151060000D01*
X126625000Y-148660000D02*
X126625000Y-151060000D01*
X120825000Y-148660000D02*
X126625000Y-148660000D01*
X120900000Y-148660000D02*
X120900000Y-151060000D01*
X121025000Y-148660000D02*
X121025000Y-151060000D01*
X120800000Y-151060000D02*
X120800000Y-148660000D01*
X121200000Y-148660000D02*
X121200000Y-151060000D01*
X121375000Y-148660000D02*
X121375000Y-151060000D01*
X121550000Y-148660000D02*
X121550000Y-151060000D01*
X132150000Y-144515000D02*
X134550000Y-144515000D01*
X132150000Y-144690000D02*
X134550000Y-144690000D01*
X132150000Y-144865000D02*
X134550000Y-144865000D01*
X134550000Y-145265000D02*
X132150000Y-145265000D01*
X132150000Y-145040000D02*
X134550000Y-145040000D01*
X132150000Y-145165000D02*
X134550000Y-145165000D01*
X132150000Y-145240000D02*
X132150000Y-139440000D01*
X132150000Y-139440000D02*
X134550000Y-139440000D01*
X134550000Y-139440000D02*
X134550000Y-145240000D01*
X77400000Y-159760000D02*
X77400000Y-165560000D01*
X75000000Y-159760000D02*
X77400000Y-159760000D01*
X75000000Y-165560000D02*
X75000000Y-159760000D01*
X75000000Y-165485000D02*
X77400000Y-165485000D01*
X75000000Y-165360000D02*
X77400000Y-165360000D01*
X77400000Y-165585000D02*
X75000000Y-165585000D01*
X75000000Y-165185000D02*
X77400000Y-165185000D01*
X75000000Y-165010000D02*
X77400000Y-165010000D01*
X75000000Y-164835000D02*
X77400000Y-164835000D01*
X107685000Y-148520000D02*
X107685000Y-146120000D01*
X107860000Y-148520000D02*
X107860000Y-146120000D01*
X108035000Y-148520000D02*
X108035000Y-146120000D01*
X108435000Y-146120000D02*
X108435000Y-148520000D01*
X108210000Y-148520000D02*
X108210000Y-146120000D01*
X108335000Y-148520000D02*
X108335000Y-146120000D01*
X108410000Y-148520000D02*
X102610000Y-148520000D01*
X102610000Y-148520000D02*
X102610000Y-146120000D01*
X102610000Y-146120000D02*
X108410000Y-146120000D01*
X113100000Y-161025000D02*
X115500000Y-161025000D01*
X113100000Y-161200000D02*
X115500000Y-161200000D01*
X113100000Y-161375000D02*
X115500000Y-161375000D01*
X115500000Y-161775000D02*
X113100000Y-161775000D01*
X113100000Y-161550000D02*
X115500000Y-161550000D01*
X113100000Y-161675000D02*
X115500000Y-161675000D01*
X113100000Y-161750000D02*
X113100000Y-155950000D01*
X113100000Y-155950000D02*
X115500000Y-155950000D01*
X115500000Y-155950000D02*
X115500000Y-161750000D01*
X132150000Y-160720000D02*
X134550000Y-160720000D01*
X132150000Y-160895000D02*
X134550000Y-160895000D01*
X132150000Y-161070000D02*
X134550000Y-161070000D01*
X134550000Y-161470000D02*
X132150000Y-161470000D01*
X132150000Y-161245000D02*
X134550000Y-161245000D01*
X132150000Y-161370000D02*
X134550000Y-161370000D01*
X132150000Y-161445000D02*
X132150000Y-155645000D01*
X132150000Y-155645000D02*
X134550000Y-155645000D01*
X134550000Y-155645000D02*
X134550000Y-161445000D01*
X140600000Y-151200000D02*
X140600000Y-153600000D01*
X140425000Y-151200000D02*
X140425000Y-153600000D01*
X140250000Y-151200000D02*
X140250000Y-153600000D01*
X139850000Y-153600000D02*
X139850000Y-151200000D01*
X140075000Y-151200000D02*
X140075000Y-153600000D01*
X139950000Y-151200000D02*
X139950000Y-153600000D01*
X139875000Y-151200000D02*
X145675000Y-151200000D01*
X145675000Y-151200000D02*
X145675000Y-153600000D01*
X145675000Y-153600000D02*
X139875000Y-153600000D01*
X94050000Y-159755000D02*
X96450000Y-159755000D01*
X94050000Y-159930000D02*
X96450000Y-159930000D01*
X94050000Y-160105000D02*
X96450000Y-160105000D01*
X96450000Y-160505000D02*
X94050000Y-160505000D01*
X94050000Y-160280000D02*
X96450000Y-160280000D01*
X94050000Y-160405000D02*
X96450000Y-160405000D01*
X94050000Y-160480000D02*
X94050000Y-154680000D01*
X94050000Y-154680000D02*
X96450000Y-154680000D01*
X96450000Y-154680000D02*
X96450000Y-160480000D01*
X152243671Y-200508430D02*
X147220724Y-197608430D01*
X153443671Y-198429970D02*
X152243671Y-200508430D01*
X148420724Y-195529970D02*
X153443671Y-198429970D01*
X148485676Y-195567470D02*
X147285676Y-197645930D01*
X148593929Y-195629970D02*
X147393929Y-197708430D01*
X147199073Y-197595930D02*
X148399073Y-195517470D01*
X148745483Y-195717470D02*
X147545483Y-197795930D01*
X148897038Y-195804970D02*
X147697038Y-197883430D01*
X149048592Y-195892470D02*
X147848592Y-197970930D01*
X153640671Y-198171630D02*
X148617724Y-195271630D01*
X154840671Y-196093170D02*
X153640671Y-198171630D01*
X149817724Y-193193170D02*
X154840671Y-196093170D01*
X149882676Y-193230670D02*
X148682676Y-195309130D01*
X149990929Y-193293170D02*
X148790929Y-195371630D01*
X148596073Y-195259130D02*
X149796073Y-193180670D01*
X150142483Y-193380670D02*
X148942483Y-195459130D01*
X150294038Y-193468170D02*
X149094038Y-195546630D01*
X150445592Y-193555670D02*
X149245592Y-195634130D01*
D11*
X71247000Y-132556000D02*
X73025000Y-132556000D01*
X60325000Y-119856000D02*
X62103000Y-119856000D01*
X71247000Y-119856000D02*
X73025000Y-119856000D01*
X73025000Y-119856000D02*
X73025000Y-121634000D01*
X73025000Y-130778000D02*
X73025000Y-132556000D01*
X73025000Y-132556000D02*
X71247000Y-132556000D01*
X62103000Y-132556000D02*
X60325000Y-132556000D01*
X60325000Y-132556000D02*
X60325000Y-130778000D01*
X60325000Y-121634000D02*
X60325000Y-119856000D01*
X90297000Y-127794000D02*
X92075000Y-127794000D01*
X79375000Y-115094000D02*
X81153000Y-115094000D01*
X90297000Y-115094000D02*
X92075000Y-115094000D01*
X92075000Y-115094000D02*
X92075000Y-116872000D01*
X92075000Y-126016000D02*
X92075000Y-127794000D01*
X92075000Y-127794000D02*
X90297000Y-127794000D01*
X81153000Y-127794000D02*
X79375000Y-127794000D01*
X79375000Y-127794000D02*
X79375000Y-126016000D01*
X79375000Y-116872000D02*
X79375000Y-115094000D01*
X109347000Y-125412000D02*
X111125000Y-125412000D01*
X98425000Y-112712000D02*
X100203000Y-112712000D01*
X109347000Y-112712000D02*
X111125000Y-112712000D01*
X111125000Y-112712000D02*
X111125000Y-114490000D01*
X111125000Y-123634000D02*
X111125000Y-125412000D01*
X111125000Y-125412000D02*
X109347000Y-125412000D01*
X100203000Y-125412000D02*
X98425000Y-125412000D01*
X98425000Y-125412000D02*
X98425000Y-123634000D01*
X98425000Y-114490000D02*
X98425000Y-112712000D01*
X128397000Y-127794000D02*
X130175000Y-127794000D01*
X117475000Y-115094000D02*
X119253000Y-115094000D01*
X128397000Y-115094000D02*
X130175000Y-115094000D01*
X130175000Y-115094000D02*
X130175000Y-116872000D01*
X130175000Y-126016000D02*
X130175000Y-127794000D01*
X130175000Y-127794000D02*
X128397000Y-127794000D01*
X119253000Y-127794000D02*
X117475000Y-127794000D01*
X117475000Y-127794000D02*
X117475000Y-126016000D01*
X117475000Y-116872000D02*
X117475000Y-115094000D01*
X147447000Y-130175000D02*
X149225000Y-130175000D01*
X136525000Y-117475000D02*
X138303000Y-117475000D01*
X147447000Y-117475000D02*
X149225000Y-117475000D01*
X149225000Y-117475000D02*
X149225000Y-119253000D01*
X149225000Y-128397000D02*
X149225000Y-130175000D01*
X149225000Y-130175000D02*
X147447000Y-130175000D01*
X138303000Y-130175000D02*
X136525000Y-130175000D01*
X136525000Y-130175000D02*
X136525000Y-128397000D01*
X136525000Y-119253000D02*
X136525000Y-117475000D01*
X60325000Y-140684000D02*
X60325000Y-138906000D01*
X60325000Y-151606000D02*
X60325000Y-149828000D01*
X62103000Y-151606000D02*
X60325000Y-151606000D01*
X73025000Y-151606000D02*
X71247000Y-151606000D01*
X73025000Y-149828000D02*
X73025000Y-151606000D01*
X73025000Y-138906000D02*
X73025000Y-140684000D01*
X71247000Y-138906000D02*
X73025000Y-138906000D01*
X60325000Y-138906000D02*
X62103000Y-138906000D01*
X71247000Y-151606000D02*
X73025000Y-151606000D01*
X90297000Y-146844000D02*
X92075000Y-146844000D01*
X79375000Y-134144000D02*
X81153000Y-134144000D01*
X90297000Y-134144000D02*
X92075000Y-134144000D01*
X92075000Y-134144000D02*
X92075000Y-135922000D01*
X92075000Y-145066000D02*
X92075000Y-146844000D01*
X92075000Y-146844000D02*
X90297000Y-146844000D01*
X81153000Y-146844000D02*
X79375000Y-146844000D01*
X79375000Y-146844000D02*
X79375000Y-145066000D01*
X79375000Y-135922000D02*
X79375000Y-134144000D01*
X109347000Y-144462000D02*
X111125000Y-144462000D01*
X98425000Y-131762000D02*
X100203000Y-131762000D01*
X109347000Y-131762000D02*
X111125000Y-131762000D01*
X111125000Y-131762000D02*
X111125000Y-133540000D01*
X111125000Y-142684000D02*
X111125000Y-144462000D01*
X111125000Y-144462000D02*
X109347000Y-144462000D01*
X100203000Y-144462000D02*
X98425000Y-144462000D01*
X98425000Y-144462000D02*
X98425000Y-142684000D01*
X98425000Y-133540000D02*
X98425000Y-131762000D01*
X128397000Y-146844000D02*
X130175000Y-146844000D01*
X117475000Y-134144000D02*
X119253000Y-134144000D01*
X128397000Y-134144000D02*
X130175000Y-134144000D01*
X130175000Y-134144000D02*
X130175000Y-135922000D01*
X130175000Y-145066000D02*
X130175000Y-146844000D01*
X130175000Y-146844000D02*
X128397000Y-146844000D01*
X119253000Y-146844000D02*
X117475000Y-146844000D01*
X117475000Y-146844000D02*
X117475000Y-145066000D01*
X117475000Y-135922000D02*
X117475000Y-134144000D01*
X147447000Y-149225000D02*
X149225000Y-149225000D01*
X136525000Y-136525000D02*
X138303000Y-136525000D01*
X147447000Y-136525000D02*
X149225000Y-136525000D01*
X149225000Y-136525000D02*
X149225000Y-138303000D01*
X149225000Y-147447000D02*
X149225000Y-149225000D01*
X149225000Y-149225000D02*
X147447000Y-149225000D01*
X138303000Y-149225000D02*
X136525000Y-149225000D01*
X136525000Y-149225000D02*
X136525000Y-147447000D01*
X136525000Y-138303000D02*
X136525000Y-136525000D01*
X71247000Y-170656000D02*
X73025000Y-170656000D01*
X60325000Y-157956000D02*
X62103000Y-157956000D01*
X71247000Y-157956000D02*
X73025000Y-157956000D01*
X73025000Y-157956000D02*
X73025000Y-159734000D01*
X73025000Y-168878000D02*
X73025000Y-170656000D01*
X73025000Y-170656000D02*
X71247000Y-170656000D01*
X62103000Y-170656000D02*
X60325000Y-170656000D01*
X60325000Y-170656000D02*
X60325000Y-168878000D01*
X60325000Y-159734000D02*
X60325000Y-157956000D01*
X79375000Y-154972000D02*
X79375000Y-153194000D01*
X79375000Y-165894000D02*
X79375000Y-164116000D01*
X81153000Y-165894000D02*
X79375000Y-165894000D01*
X92075000Y-165894000D02*
X90297000Y-165894000D01*
X92075000Y-164116000D02*
X92075000Y-165894000D01*
X92075000Y-153194000D02*
X92075000Y-154972000D01*
X90297000Y-153194000D02*
X92075000Y-153194000D01*
X79375000Y-153194000D02*
X81153000Y-153194000D01*
X90297000Y-165894000D02*
X92075000Y-165894000D01*
X98425000Y-152590000D02*
X98425000Y-150812000D01*
X98425000Y-163512000D02*
X98425000Y-161734000D01*
X100203000Y-163512000D02*
X98425000Y-163512000D01*
X111125000Y-163512000D02*
X109347000Y-163512000D01*
X111125000Y-161734000D02*
X111125000Y-163512000D01*
X111125000Y-150812000D02*
X111125000Y-152590000D01*
X109347000Y-150812000D02*
X111125000Y-150812000D01*
X98425000Y-150812000D02*
X100203000Y-150812000D01*
X109347000Y-163512000D02*
X111125000Y-163512000D01*
X117475000Y-154972000D02*
X117475000Y-153194000D01*
X117475000Y-165894000D02*
X117475000Y-164116000D01*
X119253000Y-165894000D02*
X117475000Y-165894000D01*
X130175000Y-165894000D02*
X128397000Y-165894000D01*
X130175000Y-164116000D02*
X130175000Y-165894000D01*
X130175000Y-153194000D02*
X130175000Y-154972000D01*
X128397000Y-153194000D02*
X130175000Y-153194000D01*
X117475000Y-153194000D02*
X119253000Y-153194000D01*
X128397000Y-165894000D02*
X130175000Y-165894000D01*
X136525000Y-157353000D02*
X136525000Y-155575000D01*
X136525000Y-168275000D02*
X136525000Y-166497000D01*
X138303000Y-168275000D02*
X136525000Y-168275000D01*
X149225000Y-168275000D02*
X147447000Y-168275000D01*
X149225000Y-166497000D02*
X149225000Y-168275000D01*
X149225000Y-155575000D02*
X149225000Y-157353000D01*
X147447000Y-155575000D02*
X149225000Y-155575000D01*
X136525000Y-155575000D02*
X138303000Y-155575000D01*
X147447000Y-168275000D02*
X149225000Y-168275000D01*
X106422000Y-175768000D02*
X106422000Y-173990000D01*
X106422000Y-186690000D02*
X106422000Y-184912000D01*
X108200000Y-186690000D02*
X106422000Y-186690000D01*
X119122000Y-186690000D02*
X117344000Y-186690000D01*
X119122000Y-184912000D02*
X119122000Y-186690000D01*
X119122000Y-173990000D02*
X119122000Y-175768000D01*
X117344000Y-173990000D02*
X119122000Y-173990000D01*
X106422000Y-173990000D02*
X108200000Y-173990000D01*
X117344000Y-186690000D02*
X119122000Y-186690000D01*
X129080692Y-177296286D02*
X129540872Y-175578870D01*
X126253870Y-187846128D02*
X126714050Y-186128712D01*
X127971286Y-188306308D02*
X126253870Y-187846128D01*
X138521128Y-191133130D02*
X136803712Y-190672950D01*
X138981308Y-189415714D02*
X138521128Y-191133130D01*
X141808130Y-178865872D02*
X141347950Y-180583288D01*
X140090714Y-178405692D02*
X141808130Y-178865872D01*
X129540872Y-175578870D02*
X131258288Y-176039050D01*
X136803712Y-190672950D02*
X138521128Y-191133130D01*
X138150600Y-119221000D02*
X138150600Y-107156000D01*
X128549400Y-119221000D02*
X138150600Y-119221000D01*
X128549400Y-107156000D02*
X128549400Y-119221000D01*
X138150600Y-107156000D02*
X138150600Y-119221000D01*
X138150600Y-119221000D02*
X128549400Y-119221000D01*
X128549400Y-119221000D02*
X128549400Y-107156000D01*
D10*
X140223000Y-115015000D02*
X139073000Y-115015000D01*
X140523000Y-112565000D02*
X140523000Y-114765000D01*
X139073000Y-112315000D02*
X140273000Y-112315000D01*
X138823000Y-112615000D02*
X138823000Y-114765000D01*
X139073000Y-112315000D02*
G75*
G03X138823000Y-112565000I0J-250000D01*
G01*
X140523000Y-112565000D02*
G75*
G03X140273000Y-112315000I-250000J0D01*
G01*
X140273000Y-115015000D02*
G75*
G03X140523000Y-114765000I0J250000D01*
G01*
X138823000Y-114765000D02*
G75*
G03X139073000Y-115015000I250000J0D01*
G01*
X140933000Y-114765000D02*
G75*
G03X141183000Y-115015000I250000J0D01*
G01*
X142383000Y-115015000D02*
G75*
G03X142633000Y-114765000I0J250000D01*
G01*
X142633000Y-112565000D02*
G75*
G03X142383000Y-112315000I-250000J0D01*
G01*
X141183000Y-112315000D02*
G75*
G03X140933000Y-112565000I0J-250000D01*
G01*
X140933000Y-112615000D02*
X140933000Y-114765000D01*
X141183000Y-112315000D02*
X142383000Y-112315000D01*
X142633000Y-112565000D02*
X142633000Y-114765000D01*
X142333000Y-115015000D02*
X141183000Y-115015000D01*
D12*
X115057000Y-113558000D02*
X115507000Y-114008000D01*
X118457000Y-113558000D02*
X118007000Y-114008000D01*
X118457000Y-108958000D02*
X118007000Y-108508000D01*
X115057000Y-108958000D02*
X115507000Y-108508000D01*
X119507000Y-110258000D02*
X119507000Y-112258000D01*
X115507000Y-114008000D02*
X118007000Y-114008000D01*
X114007000Y-110258000D02*
X114007000Y-112258000D01*
X115507000Y-108508000D02*
X118007000Y-108508000D01*
D11*
X94589600Y-108458000D02*
X76809600Y-108458000D01*
X76809600Y-108458000D02*
X76809600Y-138938000D01*
X76809600Y-138938000D02*
X94589600Y-138938000D01*
X94589600Y-138938000D02*
X94589600Y-108458000D01*
X79349600Y-108458000D02*
X79349600Y-110998000D01*
X79349600Y-110998000D02*
X76809600Y-110998000D01*
X164960461Y-185127739D02*
X164071461Y-186667532D01*
X159499461Y-194586468D02*
X158610461Y-196126261D01*
X158610461Y-196126261D02*
X157070668Y-195237261D01*
X149151732Y-190665261D02*
X147611939Y-189776261D01*
X147611939Y-189776261D02*
X148500939Y-188236468D01*
X153072939Y-180317532D02*
X153961939Y-178777739D01*
X153961939Y-178777739D02*
X155501732Y-179666739D01*
X163420668Y-184238739D02*
X164960461Y-185127739D01*
D13*
X121348666Y-187769380D02*
X121015333Y-187293190D01*
X120777238Y-187769380D02*
X120777238Y-186769380D01*
X121158190Y-186769380D01*
X121253428Y-186817000D01*
X121301047Y-186864619D01*
X121348666Y-186959857D01*
X121348666Y-187102714D01*
X121301047Y-187197952D01*
X121253428Y-187245571D01*
X121158190Y-187293190D01*
X120777238Y-187293190D01*
X121777238Y-187245571D02*
X122110571Y-187245571D01*
X122253428Y-187769380D02*
X121777238Y-187769380D01*
X121777238Y-186769380D01*
X122253428Y-186769380D01*
X123015333Y-187245571D02*
X122682000Y-187245571D01*
X122682000Y-187769380D02*
X122682000Y-186769380D01*
X123158190Y-186769380D01*
X123682000Y-186769380D02*
X123682000Y-187007476D01*
X123443904Y-186912238D02*
X123682000Y-187007476D01*
X123920095Y-186912238D01*
X123539142Y-187197952D02*
X123682000Y-187007476D01*
X123824857Y-187197952D01*
X124443904Y-186769380D02*
X124443904Y-187007476D01*
X124205809Y-186912238D02*
X124443904Y-187007476D01*
X124682000Y-186912238D01*
X124301047Y-187197952D02*
X124443904Y-187007476D01*
X124586761Y-187197952D01*
X131381666Y-132397380D02*
X131048333Y-131921190D01*
X130810238Y-132397380D02*
X130810238Y-131397380D01*
X131191190Y-131397380D01*
X131286428Y-131445000D01*
X131334047Y-131492619D01*
X131381666Y-131587857D01*
X131381666Y-131730714D01*
X131334047Y-131825952D01*
X131286428Y-131873571D01*
X131191190Y-131921190D01*
X130810238Y-131921190D01*
X131810238Y-131873571D02*
X132143571Y-131873571D01*
X132286428Y-132397380D02*
X131810238Y-132397380D01*
X131810238Y-131397380D01*
X132286428Y-131397380D01*
X133048333Y-131873571D02*
X132715000Y-131873571D01*
X132715000Y-132397380D02*
X132715000Y-131397380D01*
X133191190Y-131397380D01*
X133715000Y-131397380D02*
X133715000Y-131635476D01*
X133476904Y-131540238D02*
X133715000Y-131635476D01*
X133953095Y-131540238D01*
X133572142Y-131825952D02*
X133715000Y-131635476D01*
X133857857Y-131825952D01*
X134476904Y-131397380D02*
X134476904Y-131635476D01*
X134238809Y-131540238D02*
X134476904Y-131635476D01*
X134715000Y-131540238D01*
X134334047Y-131825952D02*
X134476904Y-131635476D01*
X134619761Y-131825952D01*
X95440666Y-129984380D02*
X95107333Y-129508190D01*
X94869238Y-129984380D02*
X94869238Y-128984380D01*
X95250190Y-128984380D01*
X95345428Y-129032000D01*
X95393047Y-129079619D01*
X95440666Y-129174857D01*
X95440666Y-129317714D01*
X95393047Y-129412952D01*
X95345428Y-129460571D01*
X95250190Y-129508190D01*
X94869238Y-129508190D01*
X95869238Y-129460571D02*
X96202571Y-129460571D01*
X96345428Y-129984380D02*
X95869238Y-129984380D01*
X95869238Y-128984380D01*
X96345428Y-128984380D01*
X97107333Y-129460571D02*
X96774000Y-129460571D01*
X96774000Y-129984380D02*
X96774000Y-128984380D01*
X97250190Y-128984380D01*
X97774000Y-128984380D02*
X97774000Y-129222476D01*
X97535904Y-129127238D02*
X97774000Y-129222476D01*
X98012095Y-129127238D01*
X97631142Y-129412952D02*
X97774000Y-129222476D01*
X97916857Y-129412952D01*
X98535904Y-128984380D02*
X98535904Y-129222476D01*
X98297809Y-129127238D02*
X98535904Y-129222476D01*
X98774000Y-129127238D01*
X98393047Y-129412952D02*
X98535904Y-129222476D01*
X98678761Y-129412952D01*
X74254526Y-156278460D02*
X73921193Y-155802270D01*
X73683098Y-156278460D02*
X73683098Y-155278460D01*
X74064050Y-155278460D01*
X74159288Y-155326080D01*
X74206907Y-155373699D01*
X74254526Y-155468937D01*
X74254526Y-155611794D01*
X74206907Y-155707032D01*
X74159288Y-155754651D01*
X74064050Y-155802270D01*
X73683098Y-155802270D01*
X74683098Y-155754651D02*
X75016431Y-155754651D01*
X75159288Y-156278460D02*
X74683098Y-156278460D01*
X74683098Y-155278460D01*
X75159288Y-155278460D01*
X75921193Y-155754651D02*
X75587860Y-155754651D01*
X75587860Y-156278460D02*
X75587860Y-155278460D01*
X76064050Y-155278460D01*
X76587860Y-155278460D02*
X76587860Y-155516556D01*
X76349764Y-155421318D02*
X76587860Y-155516556D01*
X76825955Y-155421318D01*
X76445002Y-155707032D02*
X76587860Y-155516556D01*
X76730717Y-155707032D01*
X77349764Y-155278460D02*
X77349764Y-155516556D01*
X77111669Y-155421318D02*
X77349764Y-155516556D01*
X77587860Y-155421318D01*
X77206907Y-155707032D02*
X77349764Y-155516556D01*
X77492621Y-155707032D01*
X160464666Y-179641380D02*
X160131333Y-179165190D01*
X159893238Y-179641380D02*
X159893238Y-178641380D01*
X160274190Y-178641380D01*
X160369428Y-178689000D01*
X160417047Y-178736619D01*
X160464666Y-178831857D01*
X160464666Y-178974714D01*
X160417047Y-179069952D01*
X160369428Y-179117571D01*
X160274190Y-179165190D01*
X159893238Y-179165190D01*
X160893238Y-179117571D02*
X161226571Y-179117571D01*
X161369428Y-179641380D02*
X160893238Y-179641380D01*
X160893238Y-178641380D01*
X161369428Y-178641380D01*
X162131333Y-179117571D02*
X161798000Y-179117571D01*
X161798000Y-179641380D02*
X161798000Y-178641380D01*
X162274190Y-178641380D01*
X162798000Y-178641380D02*
X162798000Y-178879476D01*
X162559904Y-178784238D02*
X162798000Y-178879476D01*
X163036095Y-178784238D01*
X162655142Y-179069952D02*
X162798000Y-178879476D01*
X162940857Y-179069952D01*
X163559904Y-178641380D02*
X163559904Y-178879476D01*
X163321809Y-178784238D02*
X163559904Y-178879476D01*
X163798000Y-178784238D01*
X163417047Y-179069952D02*
X163559904Y-178879476D01*
X163702761Y-179069952D01*
X65449523Y-134326904D02*
X65449523Y-133526904D01*
X65640000Y-133526904D01*
X65754285Y-133565000D01*
X65830476Y-133641190D01*
X65868571Y-133717380D01*
X65906666Y-133869761D01*
X65906666Y-133984047D01*
X65868571Y-134136428D01*
X65830476Y-134212619D01*
X65754285Y-134288809D01*
X65640000Y-134326904D01*
X65449523Y-134326904D01*
X66668571Y-134326904D02*
X66211428Y-134326904D01*
X66440000Y-134326904D02*
X66440000Y-133526904D01*
X66363809Y-133641190D01*
X66287619Y-133717380D01*
X66211428Y-133755476D01*
X103549523Y-126706904D02*
X103549523Y-125906904D01*
X103740000Y-125906904D01*
X103854285Y-125945000D01*
X103930476Y-126021190D01*
X103968571Y-126097380D01*
X104006666Y-126249761D01*
X104006666Y-126364047D01*
X103968571Y-126516428D01*
X103930476Y-126592619D01*
X103854285Y-126668809D01*
X103740000Y-126706904D01*
X103549523Y-126706904D01*
X104311428Y-125983095D02*
X104349523Y-125945000D01*
X104425714Y-125906904D01*
X104616190Y-125906904D01*
X104692380Y-125945000D01*
X104730476Y-125983095D01*
X104768571Y-126059285D01*
X104768571Y-126135476D01*
X104730476Y-126249761D01*
X104273333Y-126706904D01*
X104768571Y-126706904D01*
X116586904Y-122510476D02*
X115786904Y-122510476D01*
X115786904Y-122320000D01*
X115825000Y-122205714D01*
X115901190Y-122129523D01*
X115977380Y-122091428D01*
X116129761Y-122053333D01*
X116244047Y-122053333D01*
X116396428Y-122091428D01*
X116472619Y-122129523D01*
X116548809Y-122205714D01*
X116586904Y-122320000D01*
X116586904Y-122510476D01*
X115786904Y-121786666D02*
X115786904Y-121291428D01*
X116091666Y-121558095D01*
X116091666Y-121443809D01*
X116129761Y-121367619D01*
X116167857Y-121329523D01*
X116244047Y-121291428D01*
X116434523Y-121291428D01*
X116510714Y-121329523D01*
X116548809Y-121367619D01*
X116586904Y-121443809D01*
X116586904Y-121672380D01*
X116548809Y-121748571D01*
X116510714Y-121786666D01*
X123234523Y-133096904D02*
X123234523Y-132296904D01*
X123425000Y-132296904D01*
X123539285Y-132335000D01*
X123615476Y-132411190D01*
X123653571Y-132487380D01*
X123691666Y-132639761D01*
X123691666Y-132754047D01*
X123653571Y-132906428D01*
X123615476Y-132982619D01*
X123539285Y-133058809D01*
X123425000Y-133096904D01*
X123234523Y-133096904D01*
X124377380Y-132563571D02*
X124377380Y-133096904D01*
X124186904Y-132258809D02*
X123996428Y-132830238D01*
X124491666Y-132830238D01*
X142284523Y-135636904D02*
X142284523Y-134836904D01*
X142475000Y-134836904D01*
X142589285Y-134875000D01*
X142665476Y-134951190D01*
X142703571Y-135027380D01*
X142741666Y-135179761D01*
X142741666Y-135294047D01*
X142703571Y-135446428D01*
X142665476Y-135522619D01*
X142589285Y-135598809D01*
X142475000Y-135636904D01*
X142284523Y-135636904D01*
X143465476Y-134836904D02*
X143084523Y-134836904D01*
X143046428Y-135217857D01*
X143084523Y-135179761D01*
X143160714Y-135141666D01*
X143351190Y-135141666D01*
X143427380Y-135179761D01*
X143465476Y-135217857D01*
X143503571Y-135294047D01*
X143503571Y-135484523D01*
X143465476Y-135560714D01*
X143427380Y-135598809D01*
X143351190Y-135636904D01*
X143160714Y-135636904D01*
X143084523Y-135598809D01*
X143046428Y-135560714D01*
X65449523Y-153376904D02*
X65449523Y-152576904D01*
X65640000Y-152576904D01*
X65754285Y-152615000D01*
X65830476Y-152691190D01*
X65868571Y-152767380D01*
X65906666Y-152919761D01*
X65906666Y-153034047D01*
X65868571Y-153186428D01*
X65830476Y-153262619D01*
X65754285Y-153338809D01*
X65640000Y-153376904D01*
X65449523Y-153376904D01*
X66592380Y-152576904D02*
X66440000Y-152576904D01*
X66363809Y-152615000D01*
X66325714Y-152653095D01*
X66249523Y-152767380D01*
X66211428Y-152919761D01*
X66211428Y-153224523D01*
X66249523Y-153300714D01*
X66287619Y-153338809D01*
X66363809Y-153376904D01*
X66516190Y-153376904D01*
X66592380Y-153338809D01*
X66630476Y-153300714D01*
X66668571Y-153224523D01*
X66668571Y-153034047D01*
X66630476Y-152957857D01*
X66592380Y-152919761D01*
X66516190Y-152881666D01*
X66363809Y-152881666D01*
X66287619Y-152919761D01*
X66249523Y-152957857D01*
X66211428Y-153034047D01*
X85134523Y-152146904D02*
X85134523Y-151346904D01*
X85325000Y-151346904D01*
X85439285Y-151385000D01*
X85515476Y-151461190D01*
X85553571Y-151537380D01*
X85591666Y-151689761D01*
X85591666Y-151804047D01*
X85553571Y-151956428D01*
X85515476Y-152032619D01*
X85439285Y-152108809D01*
X85325000Y-152146904D01*
X85134523Y-152146904D01*
X85858333Y-151346904D02*
X86391666Y-151346904D01*
X86048809Y-152146904D01*
X116586904Y-141560476D02*
X115786904Y-141560476D01*
X115786904Y-141370000D01*
X115825000Y-141255714D01*
X115901190Y-141179523D01*
X115977380Y-141141428D01*
X116129761Y-141103333D01*
X116244047Y-141103333D01*
X116396428Y-141141428D01*
X116472619Y-141179523D01*
X116548809Y-141255714D01*
X116586904Y-141370000D01*
X116586904Y-141560476D01*
X116129761Y-140646190D02*
X116091666Y-140722380D01*
X116053571Y-140760476D01*
X115977380Y-140798571D01*
X115939285Y-140798571D01*
X115863095Y-140760476D01*
X115825000Y-140722380D01*
X115786904Y-140646190D01*
X115786904Y-140493809D01*
X115825000Y-140417619D01*
X115863095Y-140379523D01*
X115939285Y-140341428D01*
X115977380Y-140341428D01*
X116053571Y-140379523D01*
X116091666Y-140417619D01*
X116129761Y-140493809D01*
X116129761Y-140646190D01*
X116167857Y-140722380D01*
X116205952Y-140760476D01*
X116282142Y-140798571D01*
X116434523Y-140798571D01*
X116510714Y-140760476D01*
X116548809Y-140722380D01*
X116586904Y-140646190D01*
X116586904Y-140493809D01*
X116548809Y-140417619D01*
X116510714Y-140379523D01*
X116434523Y-140341428D01*
X116282142Y-140341428D01*
X116205952Y-140379523D01*
X116167857Y-140417619D01*
X116129761Y-140493809D01*
X123234523Y-152146904D02*
X123234523Y-151346904D01*
X123425000Y-151346904D01*
X123539285Y-151385000D01*
X123615476Y-151461190D01*
X123653571Y-151537380D01*
X123691666Y-151689761D01*
X123691666Y-151804047D01*
X123653571Y-151956428D01*
X123615476Y-152032619D01*
X123539285Y-152108809D01*
X123425000Y-152146904D01*
X123234523Y-152146904D01*
X124072619Y-152146904D02*
X124225000Y-152146904D01*
X124301190Y-152108809D01*
X124339285Y-152070714D01*
X124415476Y-151956428D01*
X124453571Y-151804047D01*
X124453571Y-151499285D01*
X124415476Y-151423095D01*
X124377380Y-151385000D01*
X124301190Y-151346904D01*
X124148809Y-151346904D01*
X124072619Y-151385000D01*
X124034523Y-151423095D01*
X123996428Y-151499285D01*
X123996428Y-151689761D01*
X124034523Y-151765952D01*
X124072619Y-151804047D01*
X124148809Y-151842142D01*
X124301190Y-151842142D01*
X124377380Y-151804047D01*
X124415476Y-151765952D01*
X124453571Y-151689761D01*
X135636904Y-143211428D02*
X134836904Y-143211428D01*
X134836904Y-143020952D01*
X134875000Y-142906666D01*
X134951190Y-142830476D01*
X135027380Y-142792380D01*
X135179761Y-142754285D01*
X135294047Y-142754285D01*
X135446428Y-142792380D01*
X135522619Y-142830476D01*
X135598809Y-142906666D01*
X135636904Y-143020952D01*
X135636904Y-143211428D01*
X135636904Y-141992380D02*
X135636904Y-142449523D01*
X135636904Y-142220952D02*
X134836904Y-142220952D01*
X134951190Y-142297142D01*
X135027380Y-142373333D01*
X135065476Y-142449523D01*
X134836904Y-141497142D02*
X134836904Y-141420952D01*
X134875000Y-141344761D01*
X134913095Y-141306666D01*
X134989285Y-141268571D01*
X135141666Y-141230476D01*
X135332142Y-141230476D01*
X135484523Y-141268571D01*
X135560714Y-141306666D01*
X135598809Y-141344761D01*
X135636904Y-141420952D01*
X135636904Y-141497142D01*
X135598809Y-141573333D01*
X135560714Y-141611428D01*
X135484523Y-141649523D01*
X135332142Y-141687619D01*
X135141666Y-141687619D01*
X134989285Y-141649523D01*
X134913095Y-141611428D01*
X134875000Y-141573333D01*
X134836904Y-141497142D01*
X78486904Y-163531428D02*
X77686904Y-163531428D01*
X77686904Y-163340952D01*
X77725000Y-163226666D01*
X77801190Y-163150476D01*
X77877380Y-163112380D01*
X78029761Y-163074285D01*
X78144047Y-163074285D01*
X78296428Y-163112380D01*
X78372619Y-163150476D01*
X78448809Y-163226666D01*
X78486904Y-163340952D01*
X78486904Y-163531428D01*
X78486904Y-162312380D02*
X78486904Y-162769523D01*
X78486904Y-162540952D02*
X77686904Y-162540952D01*
X77801190Y-162617142D01*
X77877380Y-162693333D01*
X77915476Y-162769523D01*
X78486904Y-161550476D02*
X78486904Y-162007619D01*
X78486904Y-161779047D02*
X77686904Y-161779047D01*
X77801190Y-161855238D01*
X77877380Y-161931428D01*
X77915476Y-162007619D01*
X104438571Y-145756904D02*
X104438571Y-144956904D01*
X104629047Y-144956904D01*
X104743333Y-144995000D01*
X104819523Y-145071190D01*
X104857619Y-145147380D01*
X104895714Y-145299761D01*
X104895714Y-145414047D01*
X104857619Y-145566428D01*
X104819523Y-145642619D01*
X104743333Y-145718809D01*
X104629047Y-145756904D01*
X104438571Y-145756904D01*
X105657619Y-145756904D02*
X105200476Y-145756904D01*
X105429047Y-145756904D02*
X105429047Y-144956904D01*
X105352857Y-145071190D01*
X105276666Y-145147380D01*
X105200476Y-145185476D01*
X105962380Y-145033095D02*
X106000476Y-144995000D01*
X106076666Y-144956904D01*
X106267142Y-144956904D01*
X106343333Y-144995000D01*
X106381428Y-145033095D01*
X106419523Y-145109285D01*
X106419523Y-145185476D01*
X106381428Y-145299761D01*
X105924285Y-145756904D01*
X106419523Y-145756904D01*
X116586904Y-159721428D02*
X115786904Y-159721428D01*
X115786904Y-159530952D01*
X115825000Y-159416666D01*
X115901190Y-159340476D01*
X115977380Y-159302380D01*
X116129761Y-159264285D01*
X116244047Y-159264285D01*
X116396428Y-159302380D01*
X116472619Y-159340476D01*
X116548809Y-159416666D01*
X116586904Y-159530952D01*
X116586904Y-159721428D01*
X116586904Y-158502380D02*
X116586904Y-158959523D01*
X116586904Y-158730952D02*
X115786904Y-158730952D01*
X115901190Y-158807142D01*
X115977380Y-158883333D01*
X116015476Y-158959523D01*
X115786904Y-158235714D02*
X115786904Y-157740476D01*
X116091666Y-158007142D01*
X116091666Y-157892857D01*
X116129761Y-157816666D01*
X116167857Y-157778571D01*
X116244047Y-157740476D01*
X116434523Y-157740476D01*
X116510714Y-157778571D01*
X116548809Y-157816666D01*
X116586904Y-157892857D01*
X116586904Y-158121428D01*
X116548809Y-158197619D01*
X116510714Y-158235714D01*
X135636904Y-159416428D02*
X134836904Y-159416428D01*
X134836904Y-159225952D01*
X134875000Y-159111666D01*
X134951190Y-159035476D01*
X135027380Y-158997380D01*
X135179761Y-158959285D01*
X135294047Y-158959285D01*
X135446428Y-158997380D01*
X135522619Y-159035476D01*
X135598809Y-159111666D01*
X135636904Y-159225952D01*
X135636904Y-159416428D01*
X135636904Y-158197380D02*
X135636904Y-158654523D01*
X135636904Y-158425952D02*
X134836904Y-158425952D01*
X134951190Y-158502142D01*
X135027380Y-158578333D01*
X135065476Y-158654523D01*
X135103571Y-157511666D02*
X135636904Y-157511666D01*
X134798809Y-157702142D02*
X135370238Y-157892619D01*
X135370238Y-157397380D01*
X141903571Y-154686904D02*
X141903571Y-153886904D01*
X142094047Y-153886904D01*
X142208333Y-153925000D01*
X142284523Y-154001190D01*
X142322619Y-154077380D01*
X142360714Y-154229761D01*
X142360714Y-154344047D01*
X142322619Y-154496428D01*
X142284523Y-154572619D01*
X142208333Y-154648809D01*
X142094047Y-154686904D01*
X141903571Y-154686904D01*
X143122619Y-154686904D02*
X142665476Y-154686904D01*
X142894047Y-154686904D02*
X142894047Y-153886904D01*
X142817857Y-154001190D01*
X142741666Y-154077380D01*
X142665476Y-154115476D01*
X143846428Y-153886904D02*
X143465476Y-153886904D01*
X143427380Y-154267857D01*
X143465476Y-154229761D01*
X143541666Y-154191666D01*
X143732142Y-154191666D01*
X143808333Y-154229761D01*
X143846428Y-154267857D01*
X143884523Y-154344047D01*
X143884523Y-154534523D01*
X143846428Y-154610714D01*
X143808333Y-154648809D01*
X143732142Y-154686904D01*
X143541666Y-154686904D01*
X143465476Y-154648809D01*
X143427380Y-154610714D01*
X97536904Y-158451428D02*
X96736904Y-158451428D01*
X96736904Y-158260952D01*
X96775000Y-158146666D01*
X96851190Y-158070476D01*
X96927380Y-158032380D01*
X97079761Y-157994285D01*
X97194047Y-157994285D01*
X97346428Y-158032380D01*
X97422619Y-158070476D01*
X97498809Y-158146666D01*
X97536904Y-158260952D01*
X97536904Y-158451428D01*
X97536904Y-157232380D02*
X97536904Y-157689523D01*
X97536904Y-157460952D02*
X96736904Y-157460952D01*
X96851190Y-157537142D01*
X96927380Y-157613333D01*
X96965476Y-157689523D01*
X96736904Y-156546666D02*
X96736904Y-156699047D01*
X96775000Y-156775238D01*
X96813095Y-156813333D01*
X96927380Y-156889523D01*
X97079761Y-156927619D01*
X97384523Y-156927619D01*
X97460714Y-156889523D01*
X97498809Y-156851428D01*
X97536904Y-156775238D01*
X97536904Y-156622857D01*
X97498809Y-156546666D01*
X97460714Y-156508571D01*
X97384523Y-156470476D01*
X97194047Y-156470476D01*
X97117857Y-156508571D01*
X97079761Y-156546666D01*
X97041666Y-156622857D01*
X97041666Y-156775238D01*
X97079761Y-156851428D01*
X97117857Y-156889523D01*
X97194047Y-156927619D01*
X148434065Y-199564003D02*
X148834065Y-198871183D01*
X148999023Y-198966421D01*
X149078949Y-199056555D01*
X149106837Y-199160633D01*
X149101733Y-199245664D01*
X149058534Y-199396677D01*
X149001391Y-199495651D01*
X148892209Y-199608570D01*
X148821123Y-199655505D01*
X148717044Y-199683392D01*
X148599023Y-199659241D01*
X148434065Y-199564003D01*
X149489792Y-200173527D02*
X149093894Y-199944955D01*
X149291843Y-200059241D02*
X149691843Y-199366421D01*
X149568717Y-199427300D01*
X149464639Y-199455187D01*
X149379608Y-199450084D01*
X150120732Y-199614040D02*
X150582612Y-199880706D01*
X149885689Y-200402098D01*
X149831065Y-197227203D02*
X150231065Y-196534383D01*
X150396023Y-196629621D01*
X150475949Y-196719755D01*
X150503837Y-196823833D01*
X150498733Y-196908864D01*
X150455534Y-197059877D01*
X150398391Y-197158851D01*
X150289209Y-197271770D01*
X150218123Y-197318705D01*
X150114044Y-197346592D01*
X149996023Y-197322441D01*
X149831065Y-197227203D01*
X150886792Y-197836727D02*
X150490894Y-197608155D01*
X150688843Y-197722441D02*
X151088843Y-197029621D01*
X150965717Y-197090500D01*
X150861639Y-197118387D01*
X150776608Y-197113284D01*
X151511260Y-197669401D02*
X151464325Y-197598314D01*
X151450381Y-197546275D01*
X151455485Y-197461245D01*
X151474533Y-197428253D01*
X151545619Y-197381318D01*
X151597658Y-197367374D01*
X151682689Y-197372478D01*
X151814655Y-197448668D01*
X151861590Y-197519755D01*
X151875534Y-197571794D01*
X151870430Y-197656825D01*
X151851382Y-197689816D01*
X151780296Y-197736751D01*
X151728257Y-197750695D01*
X151643226Y-197745591D01*
X151511260Y-197669401D01*
X151426230Y-197664297D01*
X151374191Y-197678241D01*
X151303104Y-197725176D01*
X151226914Y-197857142D01*
X151221810Y-197942172D01*
X151235754Y-197994211D01*
X151282689Y-198065298D01*
X151414655Y-198141489D01*
X151499685Y-198146592D01*
X151551724Y-198132649D01*
X151622811Y-198085713D01*
X151699001Y-197953748D01*
X151704105Y-197868717D01*
X151690161Y-197816678D01*
X151643226Y-197745591D01*
D10*
X65716904Y-129448380D02*
X65716904Y-128448380D01*
X66288333Y-129448380D02*
X65859761Y-128876952D01*
X66288333Y-128448380D02*
X65716904Y-129019809D01*
X67240714Y-129448380D02*
X66669285Y-129448380D01*
X66955000Y-129448380D02*
X66955000Y-128448380D01*
X66859761Y-128591238D01*
X66764523Y-128686476D01*
X66669285Y-128734095D01*
D14*
X63336714Y-131467428D02*
X63336714Y-129943428D01*
X64207571Y-131467428D02*
X63554428Y-130596571D01*
X64207571Y-129943428D02*
X63336714Y-130814285D01*
X64860714Y-130669142D02*
X65368714Y-130669142D01*
X65586428Y-131467428D02*
X64860714Y-131467428D01*
X64860714Y-129943428D01*
X65586428Y-129943428D01*
X66529857Y-130741714D02*
X66529857Y-131467428D01*
X66021857Y-129943428D02*
X66529857Y-130741714D01*
X67037857Y-129943428D01*
X67473285Y-131394857D02*
X67691000Y-131467428D01*
X68053857Y-131467428D01*
X68199000Y-131394857D01*
X68271571Y-131322285D01*
X68344142Y-131177142D01*
X68344142Y-131032000D01*
X68271571Y-130886857D01*
X68199000Y-130814285D01*
X68053857Y-130741714D01*
X67763571Y-130669142D01*
X67618428Y-130596571D01*
X67545857Y-130524000D01*
X67473285Y-130378857D01*
X67473285Y-130233714D01*
X67545857Y-130088571D01*
X67618428Y-130016000D01*
X67763571Y-129943428D01*
X68126428Y-129943428D01*
X68344142Y-130016000D01*
X68852142Y-129943428D02*
X69215000Y-131467428D01*
X69505285Y-130378857D01*
X69795571Y-131467428D01*
X70158428Y-129943428D01*
D10*
X84766904Y-124686380D02*
X84766904Y-123686380D01*
X85338333Y-124686380D02*
X84909761Y-124114952D01*
X85338333Y-123686380D02*
X84766904Y-124257809D01*
X85719285Y-123781619D02*
X85766904Y-123734000D01*
X85862142Y-123686380D01*
X86100238Y-123686380D01*
X86195476Y-123734000D01*
X86243095Y-123781619D01*
X86290714Y-123876857D01*
X86290714Y-123972095D01*
X86243095Y-124114952D01*
X85671666Y-124686380D01*
X86290714Y-124686380D01*
D14*
X82386714Y-126705428D02*
X82386714Y-125181428D01*
X83257571Y-126705428D02*
X82604428Y-125834571D01*
X83257571Y-125181428D02*
X82386714Y-126052285D01*
X83910714Y-125907142D02*
X84418714Y-125907142D01*
X84636428Y-126705428D02*
X83910714Y-126705428D01*
X83910714Y-125181428D01*
X84636428Y-125181428D01*
X85579857Y-125979714D02*
X85579857Y-126705428D01*
X85071857Y-125181428D02*
X85579857Y-125979714D01*
X86087857Y-125181428D01*
X86523285Y-126632857D02*
X86741000Y-126705428D01*
X87103857Y-126705428D01*
X87249000Y-126632857D01*
X87321571Y-126560285D01*
X87394142Y-126415142D01*
X87394142Y-126270000D01*
X87321571Y-126124857D01*
X87249000Y-126052285D01*
X87103857Y-125979714D01*
X86813571Y-125907142D01*
X86668428Y-125834571D01*
X86595857Y-125762000D01*
X86523285Y-125616857D01*
X86523285Y-125471714D01*
X86595857Y-125326571D01*
X86668428Y-125254000D01*
X86813571Y-125181428D01*
X87176428Y-125181428D01*
X87394142Y-125254000D01*
X87902142Y-125181428D02*
X88265000Y-126705428D01*
X88555285Y-125616857D01*
X88845571Y-126705428D01*
X89208428Y-125181428D01*
D10*
X103816904Y-122304380D02*
X103816904Y-121304380D01*
X104388333Y-122304380D02*
X103959761Y-121732952D01*
X104388333Y-121304380D02*
X103816904Y-121875809D01*
X104721666Y-121304380D02*
X105340714Y-121304380D01*
X105007380Y-121685333D01*
X105150238Y-121685333D01*
X105245476Y-121732952D01*
X105293095Y-121780571D01*
X105340714Y-121875809D01*
X105340714Y-122113904D01*
X105293095Y-122209142D01*
X105245476Y-122256761D01*
X105150238Y-122304380D01*
X104864523Y-122304380D01*
X104769285Y-122256761D01*
X104721666Y-122209142D01*
D14*
X101436714Y-124323428D02*
X101436714Y-122799428D01*
X102307571Y-124323428D02*
X101654428Y-123452571D01*
X102307571Y-122799428D02*
X101436714Y-123670285D01*
X102960714Y-123525142D02*
X103468714Y-123525142D01*
X103686428Y-124323428D02*
X102960714Y-124323428D01*
X102960714Y-122799428D01*
X103686428Y-122799428D01*
X104629857Y-123597714D02*
X104629857Y-124323428D01*
X104121857Y-122799428D02*
X104629857Y-123597714D01*
X105137857Y-122799428D01*
X105573285Y-124250857D02*
X105791000Y-124323428D01*
X106153857Y-124323428D01*
X106299000Y-124250857D01*
X106371571Y-124178285D01*
X106444142Y-124033142D01*
X106444142Y-123888000D01*
X106371571Y-123742857D01*
X106299000Y-123670285D01*
X106153857Y-123597714D01*
X105863571Y-123525142D01*
X105718428Y-123452571D01*
X105645857Y-123380000D01*
X105573285Y-123234857D01*
X105573285Y-123089714D01*
X105645857Y-122944571D01*
X105718428Y-122872000D01*
X105863571Y-122799428D01*
X106226428Y-122799428D01*
X106444142Y-122872000D01*
X106952142Y-122799428D02*
X107315000Y-124323428D01*
X107605285Y-123234857D01*
X107895571Y-124323428D01*
X108258428Y-122799428D01*
D10*
X122866904Y-124686380D02*
X122866904Y-123686380D01*
X123438333Y-124686380D02*
X123009761Y-124114952D01*
X123438333Y-123686380D02*
X122866904Y-124257809D01*
X124295476Y-124019714D02*
X124295476Y-124686380D01*
X124057380Y-123638761D02*
X123819285Y-124353047D01*
X124438333Y-124353047D01*
D14*
X120486714Y-126705428D02*
X120486714Y-125181428D01*
X121357571Y-126705428D02*
X120704428Y-125834571D01*
X121357571Y-125181428D02*
X120486714Y-126052285D01*
X122010714Y-125907142D02*
X122518714Y-125907142D01*
X122736428Y-126705428D02*
X122010714Y-126705428D01*
X122010714Y-125181428D01*
X122736428Y-125181428D01*
X123679857Y-125979714D02*
X123679857Y-126705428D01*
X123171857Y-125181428D02*
X123679857Y-125979714D01*
X124187857Y-125181428D01*
X124623285Y-126632857D02*
X124841000Y-126705428D01*
X125203857Y-126705428D01*
X125349000Y-126632857D01*
X125421571Y-126560285D01*
X125494142Y-126415142D01*
X125494142Y-126270000D01*
X125421571Y-126124857D01*
X125349000Y-126052285D01*
X125203857Y-125979714D01*
X124913571Y-125907142D01*
X124768428Y-125834571D01*
X124695857Y-125762000D01*
X124623285Y-125616857D01*
X124623285Y-125471714D01*
X124695857Y-125326571D01*
X124768428Y-125254000D01*
X124913571Y-125181428D01*
X125276428Y-125181428D01*
X125494142Y-125254000D01*
X126002142Y-125181428D02*
X126365000Y-126705428D01*
X126655285Y-125616857D01*
X126945571Y-126705428D01*
X127308428Y-125181428D01*
D10*
X141916904Y-127067380D02*
X141916904Y-126067380D01*
X142488333Y-127067380D02*
X142059761Y-126495952D01*
X142488333Y-126067380D02*
X141916904Y-126638809D01*
X143393095Y-126067380D02*
X142916904Y-126067380D01*
X142869285Y-126543571D01*
X142916904Y-126495952D01*
X143012142Y-126448333D01*
X143250238Y-126448333D01*
X143345476Y-126495952D01*
X143393095Y-126543571D01*
X143440714Y-126638809D01*
X143440714Y-126876904D01*
X143393095Y-126972142D01*
X143345476Y-127019761D01*
X143250238Y-127067380D01*
X143012142Y-127067380D01*
X142916904Y-127019761D01*
X142869285Y-126972142D01*
D14*
X139536714Y-129086428D02*
X139536714Y-127562428D01*
X140407571Y-129086428D02*
X139754428Y-128215571D01*
X140407571Y-127562428D02*
X139536714Y-128433285D01*
X141060714Y-128288142D02*
X141568714Y-128288142D01*
X141786428Y-129086428D02*
X141060714Y-129086428D01*
X141060714Y-127562428D01*
X141786428Y-127562428D01*
X142729857Y-128360714D02*
X142729857Y-129086428D01*
X142221857Y-127562428D02*
X142729857Y-128360714D01*
X143237857Y-127562428D01*
X143673285Y-129013857D02*
X143891000Y-129086428D01*
X144253857Y-129086428D01*
X144399000Y-129013857D01*
X144471571Y-128941285D01*
X144544142Y-128796142D01*
X144544142Y-128651000D01*
X144471571Y-128505857D01*
X144399000Y-128433285D01*
X144253857Y-128360714D01*
X143963571Y-128288142D01*
X143818428Y-128215571D01*
X143745857Y-128143000D01*
X143673285Y-127997857D01*
X143673285Y-127852714D01*
X143745857Y-127707571D01*
X143818428Y-127635000D01*
X143963571Y-127562428D01*
X144326428Y-127562428D01*
X144544142Y-127635000D01*
X145052142Y-127562428D02*
X145415000Y-129086428D01*
X145705285Y-127997857D01*
X145995571Y-129086428D01*
X146358428Y-127562428D01*
D10*
X65716904Y-148498380D02*
X65716904Y-147498380D01*
X66288333Y-148498380D02*
X65859761Y-147926952D01*
X66288333Y-147498380D02*
X65716904Y-148069809D01*
X67145476Y-147498380D02*
X66955000Y-147498380D01*
X66859761Y-147546000D01*
X66812142Y-147593619D01*
X66716904Y-147736476D01*
X66669285Y-147926952D01*
X66669285Y-148307904D01*
X66716904Y-148403142D01*
X66764523Y-148450761D01*
X66859761Y-148498380D01*
X67050238Y-148498380D01*
X67145476Y-148450761D01*
X67193095Y-148403142D01*
X67240714Y-148307904D01*
X67240714Y-148069809D01*
X67193095Y-147974571D01*
X67145476Y-147926952D01*
X67050238Y-147879333D01*
X66859761Y-147879333D01*
X66764523Y-147926952D01*
X66716904Y-147974571D01*
X66669285Y-148069809D01*
D14*
X63336714Y-150517428D02*
X63336714Y-148993428D01*
X64207571Y-150517428D02*
X63554428Y-149646571D01*
X64207571Y-148993428D02*
X63336714Y-149864285D01*
X64860714Y-149719142D02*
X65368714Y-149719142D01*
X65586428Y-150517428D02*
X64860714Y-150517428D01*
X64860714Y-148993428D01*
X65586428Y-148993428D01*
X66529857Y-149791714D02*
X66529857Y-150517428D01*
X66021857Y-148993428D02*
X66529857Y-149791714D01*
X67037857Y-148993428D01*
X67473285Y-150444857D02*
X67691000Y-150517428D01*
X68053857Y-150517428D01*
X68199000Y-150444857D01*
X68271571Y-150372285D01*
X68344142Y-150227142D01*
X68344142Y-150082000D01*
X68271571Y-149936857D01*
X68199000Y-149864285D01*
X68053857Y-149791714D01*
X67763571Y-149719142D01*
X67618428Y-149646571D01*
X67545857Y-149574000D01*
X67473285Y-149428857D01*
X67473285Y-149283714D01*
X67545857Y-149138571D01*
X67618428Y-149066000D01*
X67763571Y-148993428D01*
X68126428Y-148993428D01*
X68344142Y-149066000D01*
X68852142Y-148993428D02*
X69215000Y-150517428D01*
X69505285Y-149428857D01*
X69795571Y-150517428D01*
X70158428Y-148993428D01*
D10*
X84766904Y-143736380D02*
X84766904Y-142736380D01*
X85338333Y-143736380D02*
X84909761Y-143164952D01*
X85338333Y-142736380D02*
X84766904Y-143307809D01*
X85671666Y-142736380D02*
X86338333Y-142736380D01*
X85909761Y-143736380D01*
D14*
X82386714Y-145755428D02*
X82386714Y-144231428D01*
X83257571Y-145755428D02*
X82604428Y-144884571D01*
X83257571Y-144231428D02*
X82386714Y-145102285D01*
X83910714Y-144957142D02*
X84418714Y-144957142D01*
X84636428Y-145755428D02*
X83910714Y-145755428D01*
X83910714Y-144231428D01*
X84636428Y-144231428D01*
X85579857Y-145029714D02*
X85579857Y-145755428D01*
X85071857Y-144231428D02*
X85579857Y-145029714D01*
X86087857Y-144231428D01*
X86523285Y-145682857D02*
X86741000Y-145755428D01*
X87103857Y-145755428D01*
X87249000Y-145682857D01*
X87321571Y-145610285D01*
X87394142Y-145465142D01*
X87394142Y-145320000D01*
X87321571Y-145174857D01*
X87249000Y-145102285D01*
X87103857Y-145029714D01*
X86813571Y-144957142D01*
X86668428Y-144884571D01*
X86595857Y-144812000D01*
X86523285Y-144666857D01*
X86523285Y-144521714D01*
X86595857Y-144376571D01*
X86668428Y-144304000D01*
X86813571Y-144231428D01*
X87176428Y-144231428D01*
X87394142Y-144304000D01*
X87902142Y-144231428D02*
X88265000Y-145755428D01*
X88555285Y-144666857D01*
X88845571Y-145755428D01*
X89208428Y-144231428D01*
D10*
X103816904Y-141354380D02*
X103816904Y-140354380D01*
X104388333Y-141354380D02*
X103959761Y-140782952D01*
X104388333Y-140354380D02*
X103816904Y-140925809D01*
X104959761Y-140782952D02*
X104864523Y-140735333D01*
X104816904Y-140687714D01*
X104769285Y-140592476D01*
X104769285Y-140544857D01*
X104816904Y-140449619D01*
X104864523Y-140402000D01*
X104959761Y-140354380D01*
X105150238Y-140354380D01*
X105245476Y-140402000D01*
X105293095Y-140449619D01*
X105340714Y-140544857D01*
X105340714Y-140592476D01*
X105293095Y-140687714D01*
X105245476Y-140735333D01*
X105150238Y-140782952D01*
X104959761Y-140782952D01*
X104864523Y-140830571D01*
X104816904Y-140878190D01*
X104769285Y-140973428D01*
X104769285Y-141163904D01*
X104816904Y-141259142D01*
X104864523Y-141306761D01*
X104959761Y-141354380D01*
X105150238Y-141354380D01*
X105245476Y-141306761D01*
X105293095Y-141259142D01*
X105340714Y-141163904D01*
X105340714Y-140973428D01*
X105293095Y-140878190D01*
X105245476Y-140830571D01*
X105150238Y-140782952D01*
D14*
X101436714Y-143373428D02*
X101436714Y-141849428D01*
X102307571Y-143373428D02*
X101654428Y-142502571D01*
X102307571Y-141849428D02*
X101436714Y-142720285D01*
X102960714Y-142575142D02*
X103468714Y-142575142D01*
X103686428Y-143373428D02*
X102960714Y-143373428D01*
X102960714Y-141849428D01*
X103686428Y-141849428D01*
X104629857Y-142647714D02*
X104629857Y-143373428D01*
X104121857Y-141849428D02*
X104629857Y-142647714D01*
X105137857Y-141849428D01*
X105573285Y-143300857D02*
X105791000Y-143373428D01*
X106153857Y-143373428D01*
X106299000Y-143300857D01*
X106371571Y-143228285D01*
X106444142Y-143083142D01*
X106444142Y-142938000D01*
X106371571Y-142792857D01*
X106299000Y-142720285D01*
X106153857Y-142647714D01*
X105863571Y-142575142D01*
X105718428Y-142502571D01*
X105645857Y-142430000D01*
X105573285Y-142284857D01*
X105573285Y-142139714D01*
X105645857Y-141994571D01*
X105718428Y-141922000D01*
X105863571Y-141849428D01*
X106226428Y-141849428D01*
X106444142Y-141922000D01*
X106952142Y-141849428D02*
X107315000Y-143373428D01*
X107605285Y-142284857D01*
X107895571Y-143373428D01*
X108258428Y-141849428D01*
D10*
X122866904Y-143736380D02*
X122866904Y-142736380D01*
X123438333Y-143736380D02*
X123009761Y-143164952D01*
X123438333Y-142736380D02*
X122866904Y-143307809D01*
X123914523Y-143736380D02*
X124105000Y-143736380D01*
X124200238Y-143688761D01*
X124247857Y-143641142D01*
X124343095Y-143498285D01*
X124390714Y-143307809D01*
X124390714Y-142926857D01*
X124343095Y-142831619D01*
X124295476Y-142784000D01*
X124200238Y-142736380D01*
X124009761Y-142736380D01*
X123914523Y-142784000D01*
X123866904Y-142831619D01*
X123819285Y-142926857D01*
X123819285Y-143164952D01*
X123866904Y-143260190D01*
X123914523Y-143307809D01*
X124009761Y-143355428D01*
X124200238Y-143355428D01*
X124295476Y-143307809D01*
X124343095Y-143260190D01*
X124390714Y-143164952D01*
D14*
X120486714Y-145755428D02*
X120486714Y-144231428D01*
X121357571Y-145755428D02*
X120704428Y-144884571D01*
X121357571Y-144231428D02*
X120486714Y-145102285D01*
X122010714Y-144957142D02*
X122518714Y-144957142D01*
X122736428Y-145755428D02*
X122010714Y-145755428D01*
X122010714Y-144231428D01*
X122736428Y-144231428D01*
X123679857Y-145029714D02*
X123679857Y-145755428D01*
X123171857Y-144231428D02*
X123679857Y-145029714D01*
X124187857Y-144231428D01*
X124623285Y-145682857D02*
X124841000Y-145755428D01*
X125203857Y-145755428D01*
X125349000Y-145682857D01*
X125421571Y-145610285D01*
X125494142Y-145465142D01*
X125494142Y-145320000D01*
X125421571Y-145174857D01*
X125349000Y-145102285D01*
X125203857Y-145029714D01*
X124913571Y-144957142D01*
X124768428Y-144884571D01*
X124695857Y-144812000D01*
X124623285Y-144666857D01*
X124623285Y-144521714D01*
X124695857Y-144376571D01*
X124768428Y-144304000D01*
X124913571Y-144231428D01*
X125276428Y-144231428D01*
X125494142Y-144304000D01*
X126002142Y-144231428D02*
X126365000Y-145755428D01*
X126655285Y-144666857D01*
X126945571Y-145755428D01*
X127308428Y-144231428D01*
D10*
X141440714Y-146117380D02*
X141440714Y-145117380D01*
X142012142Y-146117380D02*
X141583571Y-145545952D01*
X142012142Y-145117380D02*
X141440714Y-145688809D01*
X142964523Y-146117380D02*
X142393095Y-146117380D01*
X142678809Y-146117380D02*
X142678809Y-145117380D01*
X142583571Y-145260238D01*
X142488333Y-145355476D01*
X142393095Y-145403095D01*
X143583571Y-145117380D02*
X143678809Y-145117380D01*
X143774047Y-145165000D01*
X143821666Y-145212619D01*
X143869285Y-145307857D01*
X143916904Y-145498333D01*
X143916904Y-145736428D01*
X143869285Y-145926904D01*
X143821666Y-146022142D01*
X143774047Y-146069761D01*
X143678809Y-146117380D01*
X143583571Y-146117380D01*
X143488333Y-146069761D01*
X143440714Y-146022142D01*
X143393095Y-145926904D01*
X143345476Y-145736428D01*
X143345476Y-145498333D01*
X143393095Y-145307857D01*
X143440714Y-145212619D01*
X143488333Y-145165000D01*
X143583571Y-145117380D01*
D14*
X139536714Y-148136428D02*
X139536714Y-146612428D01*
X140407571Y-148136428D02*
X139754428Y-147265571D01*
X140407571Y-146612428D02*
X139536714Y-147483285D01*
X141060714Y-147338142D02*
X141568714Y-147338142D01*
X141786428Y-148136428D02*
X141060714Y-148136428D01*
X141060714Y-146612428D01*
X141786428Y-146612428D01*
X142729857Y-147410714D02*
X142729857Y-148136428D01*
X142221857Y-146612428D02*
X142729857Y-147410714D01*
X143237857Y-146612428D01*
X143673285Y-148063857D02*
X143891000Y-148136428D01*
X144253857Y-148136428D01*
X144399000Y-148063857D01*
X144471571Y-147991285D01*
X144544142Y-147846142D01*
X144544142Y-147701000D01*
X144471571Y-147555857D01*
X144399000Y-147483285D01*
X144253857Y-147410714D01*
X143963571Y-147338142D01*
X143818428Y-147265571D01*
X143745857Y-147193000D01*
X143673285Y-147047857D01*
X143673285Y-146902714D01*
X143745857Y-146757571D01*
X143818428Y-146685000D01*
X143963571Y-146612428D01*
X144326428Y-146612428D01*
X144544142Y-146685000D01*
X145052142Y-146612428D02*
X145415000Y-148136428D01*
X145705285Y-147047857D01*
X145995571Y-148136428D01*
X146358428Y-146612428D01*
D10*
X65240714Y-167548380D02*
X65240714Y-166548380D01*
X65812142Y-167548380D02*
X65383571Y-166976952D01*
X65812142Y-166548380D02*
X65240714Y-167119809D01*
X66764523Y-167548380D02*
X66193095Y-167548380D01*
X66478809Y-167548380D02*
X66478809Y-166548380D01*
X66383571Y-166691238D01*
X66288333Y-166786476D01*
X66193095Y-166834095D01*
X67716904Y-167548380D02*
X67145476Y-167548380D01*
X67431190Y-167548380D02*
X67431190Y-166548380D01*
X67335952Y-166691238D01*
X67240714Y-166786476D01*
X67145476Y-166834095D01*
D14*
X63336714Y-169567428D02*
X63336714Y-168043428D01*
X64207571Y-169567428D02*
X63554428Y-168696571D01*
X64207571Y-168043428D02*
X63336714Y-168914285D01*
X64860714Y-168769142D02*
X65368714Y-168769142D01*
X65586428Y-169567428D02*
X64860714Y-169567428D01*
X64860714Y-168043428D01*
X65586428Y-168043428D01*
X66529857Y-168841714D02*
X66529857Y-169567428D01*
X66021857Y-168043428D02*
X66529857Y-168841714D01*
X67037857Y-168043428D01*
X67473285Y-169494857D02*
X67691000Y-169567428D01*
X68053857Y-169567428D01*
X68199000Y-169494857D01*
X68271571Y-169422285D01*
X68344142Y-169277142D01*
X68344142Y-169132000D01*
X68271571Y-168986857D01*
X68199000Y-168914285D01*
X68053857Y-168841714D01*
X67763571Y-168769142D01*
X67618428Y-168696571D01*
X67545857Y-168624000D01*
X67473285Y-168478857D01*
X67473285Y-168333714D01*
X67545857Y-168188571D01*
X67618428Y-168116000D01*
X67763571Y-168043428D01*
X68126428Y-168043428D01*
X68344142Y-168116000D01*
X68852142Y-168043428D02*
X69215000Y-169567428D01*
X69505285Y-168478857D01*
X69795571Y-169567428D01*
X70158428Y-168043428D01*
D10*
X84290714Y-162786380D02*
X84290714Y-161786380D01*
X84862142Y-162786380D02*
X84433571Y-162214952D01*
X84862142Y-161786380D02*
X84290714Y-162357809D01*
X85814523Y-162786380D02*
X85243095Y-162786380D01*
X85528809Y-162786380D02*
X85528809Y-161786380D01*
X85433571Y-161929238D01*
X85338333Y-162024476D01*
X85243095Y-162072095D01*
X86195476Y-161881619D02*
X86243095Y-161834000D01*
X86338333Y-161786380D01*
X86576428Y-161786380D01*
X86671666Y-161834000D01*
X86719285Y-161881619D01*
X86766904Y-161976857D01*
X86766904Y-162072095D01*
X86719285Y-162214952D01*
X86147857Y-162786380D01*
X86766904Y-162786380D01*
D14*
X82386714Y-164805428D02*
X82386714Y-163281428D01*
X83257571Y-164805428D02*
X82604428Y-163934571D01*
X83257571Y-163281428D02*
X82386714Y-164152285D01*
X83910714Y-164007142D02*
X84418714Y-164007142D01*
X84636428Y-164805428D02*
X83910714Y-164805428D01*
X83910714Y-163281428D01*
X84636428Y-163281428D01*
X85579857Y-164079714D02*
X85579857Y-164805428D01*
X85071857Y-163281428D02*
X85579857Y-164079714D01*
X86087857Y-163281428D01*
X86523285Y-164732857D02*
X86741000Y-164805428D01*
X87103857Y-164805428D01*
X87249000Y-164732857D01*
X87321571Y-164660285D01*
X87394142Y-164515142D01*
X87394142Y-164370000D01*
X87321571Y-164224857D01*
X87249000Y-164152285D01*
X87103857Y-164079714D01*
X86813571Y-164007142D01*
X86668428Y-163934571D01*
X86595857Y-163862000D01*
X86523285Y-163716857D01*
X86523285Y-163571714D01*
X86595857Y-163426571D01*
X86668428Y-163354000D01*
X86813571Y-163281428D01*
X87176428Y-163281428D01*
X87394142Y-163354000D01*
X87902142Y-163281428D02*
X88265000Y-164805428D01*
X88555285Y-163716857D01*
X88845571Y-164805428D01*
X89208428Y-163281428D01*
D10*
X103340714Y-160404380D02*
X103340714Y-159404380D01*
X103912142Y-160404380D02*
X103483571Y-159832952D01*
X103912142Y-159404380D02*
X103340714Y-159975809D01*
X104864523Y-160404380D02*
X104293095Y-160404380D01*
X104578809Y-160404380D02*
X104578809Y-159404380D01*
X104483571Y-159547238D01*
X104388333Y-159642476D01*
X104293095Y-159690095D01*
X105197857Y-159404380D02*
X105816904Y-159404380D01*
X105483571Y-159785333D01*
X105626428Y-159785333D01*
X105721666Y-159832952D01*
X105769285Y-159880571D01*
X105816904Y-159975809D01*
X105816904Y-160213904D01*
X105769285Y-160309142D01*
X105721666Y-160356761D01*
X105626428Y-160404380D01*
X105340714Y-160404380D01*
X105245476Y-160356761D01*
X105197857Y-160309142D01*
D14*
X101436714Y-162423428D02*
X101436714Y-160899428D01*
X102307571Y-162423428D02*
X101654428Y-161552571D01*
X102307571Y-160899428D02*
X101436714Y-161770285D01*
X102960714Y-161625142D02*
X103468714Y-161625142D01*
X103686428Y-162423428D02*
X102960714Y-162423428D01*
X102960714Y-160899428D01*
X103686428Y-160899428D01*
X104629857Y-161697714D02*
X104629857Y-162423428D01*
X104121857Y-160899428D02*
X104629857Y-161697714D01*
X105137857Y-160899428D01*
X105573285Y-162350857D02*
X105791000Y-162423428D01*
X106153857Y-162423428D01*
X106299000Y-162350857D01*
X106371571Y-162278285D01*
X106444142Y-162133142D01*
X106444142Y-161988000D01*
X106371571Y-161842857D01*
X106299000Y-161770285D01*
X106153857Y-161697714D01*
X105863571Y-161625142D01*
X105718428Y-161552571D01*
X105645857Y-161480000D01*
X105573285Y-161334857D01*
X105573285Y-161189714D01*
X105645857Y-161044571D01*
X105718428Y-160972000D01*
X105863571Y-160899428D01*
X106226428Y-160899428D01*
X106444142Y-160972000D01*
X106952142Y-160899428D02*
X107315000Y-162423428D01*
X107605285Y-161334857D01*
X107895571Y-162423428D01*
X108258428Y-160899428D01*
D10*
X122390714Y-162786380D02*
X122390714Y-161786380D01*
X122962142Y-162786380D02*
X122533571Y-162214952D01*
X122962142Y-161786380D02*
X122390714Y-162357809D01*
X123914523Y-162786380D02*
X123343095Y-162786380D01*
X123628809Y-162786380D02*
X123628809Y-161786380D01*
X123533571Y-161929238D01*
X123438333Y-162024476D01*
X123343095Y-162072095D01*
X124771666Y-162119714D02*
X124771666Y-162786380D01*
X124533571Y-161738761D02*
X124295476Y-162453047D01*
X124914523Y-162453047D01*
D14*
X120486714Y-164805428D02*
X120486714Y-163281428D01*
X121357571Y-164805428D02*
X120704428Y-163934571D01*
X121357571Y-163281428D02*
X120486714Y-164152285D01*
X122010714Y-164007142D02*
X122518714Y-164007142D01*
X122736428Y-164805428D02*
X122010714Y-164805428D01*
X122010714Y-163281428D01*
X122736428Y-163281428D01*
X123679857Y-164079714D02*
X123679857Y-164805428D01*
X123171857Y-163281428D02*
X123679857Y-164079714D01*
X124187857Y-163281428D01*
X124623285Y-164732857D02*
X124841000Y-164805428D01*
X125203857Y-164805428D01*
X125349000Y-164732857D01*
X125421571Y-164660285D01*
X125494142Y-164515142D01*
X125494142Y-164370000D01*
X125421571Y-164224857D01*
X125349000Y-164152285D01*
X125203857Y-164079714D01*
X124913571Y-164007142D01*
X124768428Y-163934571D01*
X124695857Y-163862000D01*
X124623285Y-163716857D01*
X124623285Y-163571714D01*
X124695857Y-163426571D01*
X124768428Y-163354000D01*
X124913571Y-163281428D01*
X125276428Y-163281428D01*
X125494142Y-163354000D01*
X126002142Y-163281428D02*
X126365000Y-164805428D01*
X126655285Y-163716857D01*
X126945571Y-164805428D01*
X127308428Y-163281428D01*
D10*
X141440714Y-165167380D02*
X141440714Y-164167380D01*
X142012142Y-165167380D02*
X141583571Y-164595952D01*
X142012142Y-164167380D02*
X141440714Y-164738809D01*
X142964523Y-165167380D02*
X142393095Y-165167380D01*
X142678809Y-165167380D02*
X142678809Y-164167380D01*
X142583571Y-164310238D01*
X142488333Y-164405476D01*
X142393095Y-164453095D01*
X143869285Y-164167380D02*
X143393095Y-164167380D01*
X143345476Y-164643571D01*
X143393095Y-164595952D01*
X143488333Y-164548333D01*
X143726428Y-164548333D01*
X143821666Y-164595952D01*
X143869285Y-164643571D01*
X143916904Y-164738809D01*
X143916904Y-164976904D01*
X143869285Y-165072142D01*
X143821666Y-165119761D01*
X143726428Y-165167380D01*
X143488333Y-165167380D01*
X143393095Y-165119761D01*
X143345476Y-165072142D01*
D14*
X139536714Y-167186428D02*
X139536714Y-165662428D01*
X140407571Y-167186428D02*
X139754428Y-166315571D01*
X140407571Y-165662428D02*
X139536714Y-166533285D01*
X141060714Y-166388142D02*
X141568714Y-166388142D01*
X141786428Y-167186428D02*
X141060714Y-167186428D01*
X141060714Y-165662428D01*
X141786428Y-165662428D01*
X142729857Y-166460714D02*
X142729857Y-167186428D01*
X142221857Y-165662428D02*
X142729857Y-166460714D01*
X143237857Y-165662428D01*
X143673285Y-167113857D02*
X143891000Y-167186428D01*
X144253857Y-167186428D01*
X144399000Y-167113857D01*
X144471571Y-167041285D01*
X144544142Y-166896142D01*
X144544142Y-166751000D01*
X144471571Y-166605857D01*
X144399000Y-166533285D01*
X144253857Y-166460714D01*
X143963571Y-166388142D01*
X143818428Y-166315571D01*
X143745857Y-166243000D01*
X143673285Y-166097857D01*
X143673285Y-165952714D01*
X143745857Y-165807571D01*
X143818428Y-165735000D01*
X143963571Y-165662428D01*
X144326428Y-165662428D01*
X144544142Y-165735000D01*
X145052142Y-165662428D02*
X145415000Y-167186428D01*
X145705285Y-166097857D01*
X145995571Y-167186428D01*
X146358428Y-165662428D01*
D10*
X111337714Y-183582380D02*
X111337714Y-182582380D01*
X111909142Y-183582380D02*
X111480571Y-183010952D01*
X111909142Y-182582380D02*
X111337714Y-183153809D01*
X112861523Y-183582380D02*
X112290095Y-183582380D01*
X112575809Y-183582380D02*
X112575809Y-182582380D01*
X112480571Y-182725238D01*
X112385333Y-182820476D01*
X112290095Y-182868095D01*
X113718666Y-182582380D02*
X113528190Y-182582380D01*
X113432952Y-182630000D01*
X113385333Y-182677619D01*
X113290095Y-182820476D01*
X113242476Y-183010952D01*
X113242476Y-183391904D01*
X113290095Y-183487142D01*
X113337714Y-183534761D01*
X113432952Y-183582380D01*
X113623428Y-183582380D01*
X113718666Y-183534761D01*
X113766285Y-183487142D01*
X113813904Y-183391904D01*
X113813904Y-183153809D01*
X113766285Y-183058571D01*
X113718666Y-183010952D01*
X113623428Y-182963333D01*
X113432952Y-182963333D01*
X113337714Y-183010952D01*
X113290095Y-183058571D01*
X113242476Y-183153809D01*
D14*
X109433714Y-185601428D02*
X109433714Y-184077428D01*
X110304571Y-185601428D02*
X109651428Y-184730571D01*
X110304571Y-184077428D02*
X109433714Y-184948285D01*
X110957714Y-184803142D02*
X111465714Y-184803142D01*
X111683428Y-185601428D02*
X110957714Y-185601428D01*
X110957714Y-184077428D01*
X111683428Y-184077428D01*
X112626857Y-184875714D02*
X112626857Y-185601428D01*
X112118857Y-184077428D02*
X112626857Y-184875714D01*
X113134857Y-184077428D01*
X113570285Y-185528857D02*
X113788000Y-185601428D01*
X114150857Y-185601428D01*
X114296000Y-185528857D01*
X114368571Y-185456285D01*
X114441142Y-185311142D01*
X114441142Y-185166000D01*
X114368571Y-185020857D01*
X114296000Y-184948285D01*
X114150857Y-184875714D01*
X113860571Y-184803142D01*
X113715428Y-184730571D01*
X113642857Y-184658000D01*
X113570285Y-184512857D01*
X113570285Y-184367714D01*
X113642857Y-184222571D01*
X113715428Y-184150000D01*
X113860571Y-184077428D01*
X114223428Y-184077428D01*
X114441142Y-184150000D01*
X114949142Y-184077428D02*
X115312000Y-185601428D01*
X115602285Y-184512857D01*
X115892571Y-185601428D01*
X116255428Y-184077428D01*
D10*
X131806396Y-186116679D02*
X132065215Y-185150753D01*
X132358353Y-186264575D02*
X132092282Y-185601695D01*
X132617172Y-185298649D02*
X131917318Y-185702710D01*
X133278283Y-186511070D02*
X132726325Y-186363173D01*
X133002304Y-186437121D02*
X133261123Y-185471195D01*
X133132156Y-185584535D01*
X133015514Y-185651879D01*
X132911196Y-185673226D01*
X133859077Y-185631417D02*
X134503028Y-185803963D01*
X133830240Y-186658966D01*
D14*
X129444705Y-187574137D02*
X129839145Y-186102066D01*
X130285888Y-187799532D02*
X129880395Y-186789303D01*
X130680328Y-186327461D02*
X129613751Y-186943250D01*
X131123387Y-187197493D02*
X131614078Y-187328973D01*
X131617762Y-188156406D02*
X130916776Y-187968578D01*
X131311216Y-186496507D01*
X132012202Y-186684335D01*
X132716873Y-187699597D02*
X132529044Y-188400584D01*
X132432794Y-186797033D02*
X132716873Y-187699597D01*
X133414175Y-187059993D01*
X133459109Y-188574662D02*
X133650622Y-188701110D01*
X134001115Y-188795024D01*
X134160095Y-188762491D01*
X134248977Y-188711175D01*
X134356641Y-188589761D01*
X134394207Y-188449564D01*
X134361674Y-188290584D01*
X134310358Y-188201702D01*
X134188944Y-188094038D01*
X133927332Y-187948808D01*
X133805918Y-187841143D01*
X133754602Y-187752262D01*
X133722069Y-187593282D01*
X133759635Y-187453084D01*
X133867299Y-187331670D01*
X133956181Y-187280354D01*
X134115161Y-187247821D01*
X134465654Y-187341736D01*
X134657167Y-187468183D01*
X135166640Y-187529564D02*
X135122693Y-189095550D01*
X135684830Y-188119202D01*
X135683482Y-189245813D01*
X136428415Y-187867656D01*
X113082916Y-111083928D02*
X114098916Y-111083928D01*
X113590916Y-112607928D02*
X113590916Y-111083928D01*
X115707583Y-112607928D02*
X115114916Y-111882214D01*
X114691583Y-112607928D02*
X114691583Y-111083928D01*
X115368916Y-111083928D01*
X115538250Y-111156500D01*
X115622916Y-111229071D01*
X115707583Y-111374214D01*
X115707583Y-111591928D01*
X115622916Y-111737071D01*
X115538250Y-111809642D01*
X115368916Y-111882214D01*
X114691583Y-111882214D01*
X117485583Y-112607928D02*
X116892916Y-111882214D01*
X116469583Y-112607928D02*
X116469583Y-111083928D01*
X117146916Y-111083928D01*
X117316250Y-111156500D01*
X117400916Y-111229071D01*
X117485583Y-111374214D01*
X117485583Y-111591928D01*
X117400916Y-111737071D01*
X117316250Y-111809642D01*
X117146916Y-111882214D01*
X116469583Y-111882214D01*
X118162916Y-112535357D02*
X118416916Y-112607928D01*
X118840250Y-112607928D01*
X119009583Y-112535357D01*
X119094250Y-112462785D01*
X119178916Y-112317642D01*
X119178916Y-112172500D01*
X119094250Y-112027357D01*
X119009583Y-111954785D01*
X118840250Y-111882214D01*
X118501583Y-111809642D01*
X118332250Y-111737071D01*
X118247583Y-111664500D01*
X118162916Y-111519357D01*
X118162916Y-111374214D01*
X118247583Y-111229071D01*
X118332250Y-111156500D01*
X118501583Y-111083928D01*
X118924916Y-111083928D01*
X119178916Y-111156500D01*
X119517583Y-112753071D02*
X120872250Y-112753071D01*
X121041583Y-111083928D02*
X122057583Y-111083928D01*
X121549583Y-112607928D02*
X121549583Y-111083928D01*
X122650250Y-112607928D02*
X122650250Y-111083928D01*
X123412250Y-112607928D02*
X123412250Y-111809642D01*
X123327583Y-111664500D01*
X123158250Y-111591928D01*
X122904250Y-111591928D01*
X122734916Y-111664500D01*
X122650250Y-111737071D01*
X124258916Y-112607928D02*
X124258916Y-111591928D01*
X124258916Y-111882214D02*
X124343583Y-111737071D01*
X124428250Y-111664500D01*
X124597583Y-111591928D01*
X124766916Y-111591928D01*
X125613583Y-112607928D02*
X125444250Y-112535357D01*
X125359583Y-112462785D01*
X125274916Y-112317642D01*
X125274916Y-111882214D01*
X125359583Y-111737071D01*
X125444250Y-111664500D01*
X125613583Y-111591928D01*
X125867583Y-111591928D01*
X126036916Y-111664500D01*
X126121583Y-111737071D01*
X126206250Y-111882214D01*
X126206250Y-112317642D01*
X126121583Y-112462785D01*
X126036916Y-112535357D01*
X125867583Y-112607928D01*
X125613583Y-112607928D01*
X127730250Y-111591928D02*
X127730250Y-112607928D01*
X126968250Y-111591928D02*
X126968250Y-112390214D01*
X127052916Y-112535357D01*
X127222250Y-112607928D01*
X127476250Y-112607928D01*
X127645583Y-112535357D01*
X127730250Y-112462785D01*
X129338916Y-111591928D02*
X129338916Y-112825642D01*
X129254249Y-112970785D01*
X129169583Y-113043357D01*
X129000249Y-113115928D01*
X128746249Y-113115928D01*
X128576916Y-113043357D01*
X129338916Y-112535357D02*
X129169583Y-112607928D01*
X128830916Y-112607928D01*
X128661583Y-112535357D01*
X128576916Y-112462785D01*
X128492249Y-112317642D01*
X128492249Y-111882214D01*
X128576916Y-111737071D01*
X128661583Y-111664500D01*
X128830916Y-111591928D01*
X129169583Y-111591928D01*
X129338916Y-111664500D01*
X130185583Y-112607928D02*
X130185583Y-111083928D01*
X130947583Y-112607928D02*
X130947583Y-111809642D01*
X130862916Y-111664500D01*
X130693583Y-111591928D01*
X130439583Y-111591928D01*
X130270250Y-111664500D01*
X130185583Y-111737071D01*
X131794250Y-112027357D02*
X133148916Y-112027357D01*
X133995583Y-112607928D02*
X133995583Y-111083928D01*
X133995583Y-111809642D02*
X135011583Y-111809642D01*
X135011583Y-112607928D02*
X135011583Y-111083928D01*
X136112250Y-112607928D02*
X135942916Y-112535357D01*
X135858250Y-112462785D01*
X135773583Y-112317642D01*
X135773583Y-111882214D01*
X135858250Y-111737071D01*
X135942916Y-111664500D01*
X136112250Y-111591928D01*
X136366250Y-111591928D01*
X136535583Y-111664500D01*
X136620250Y-111737071D01*
X136704916Y-111882214D01*
X136704916Y-112317642D01*
X136620250Y-112462785D01*
X136535583Y-112535357D01*
X136366250Y-112607928D01*
X136112250Y-112607928D01*
X137720916Y-112607928D02*
X137551583Y-112535357D01*
X137466916Y-112390214D01*
X137466916Y-111083928D01*
X139075583Y-112535357D02*
X138906250Y-112607928D01*
X138567583Y-112607928D01*
X138398250Y-112535357D01*
X138313583Y-112390214D01*
X138313583Y-111809642D01*
X138398250Y-111664500D01*
X138567583Y-111591928D01*
X138906250Y-111591928D01*
X139075583Y-111664500D01*
X139160250Y-111809642D01*
X139160250Y-111954785D01*
X138313583Y-112099928D01*
D13*
X138811613Y-115944608D02*
X138925899Y-115982703D01*
X139116375Y-115982703D01*
X139192565Y-115944608D01*
X139230660Y-115906513D01*
X139268756Y-115830322D01*
X139268756Y-115754132D01*
X139230660Y-115677941D01*
X139192565Y-115639846D01*
X139116375Y-115601751D01*
X138963994Y-115563656D01*
X138887803Y-115525560D01*
X138849708Y-115487465D01*
X138811613Y-115411275D01*
X138811613Y-115335084D01*
X138849708Y-115258894D01*
X138887803Y-115220799D01*
X138963994Y-115182703D01*
X139154470Y-115182703D01*
X139268756Y-115220799D01*
X139840184Y-115182703D02*
X139840184Y-115754132D01*
X139802089Y-115868418D01*
X139725899Y-115944608D01*
X139611613Y-115982703D01*
X139535422Y-115982703D01*
X140640184Y-115982703D02*
X140183041Y-115982703D01*
X140411613Y-115982703D02*
X140411613Y-115182703D01*
X140335422Y-115296989D01*
X140259232Y-115373179D01*
X140183041Y-115411275D01*
X140817914Y-115944609D02*
X140932200Y-115982704D01*
X141122676Y-115982704D01*
X141198866Y-115944609D01*
X141236961Y-115906514D01*
X141275057Y-115830323D01*
X141275057Y-115754133D01*
X141236961Y-115677942D01*
X141198866Y-115639847D01*
X141122676Y-115601752D01*
X140970295Y-115563657D01*
X140894104Y-115525561D01*
X140856009Y-115487466D01*
X140817914Y-115411276D01*
X140817914Y-115335085D01*
X140856009Y-115258895D01*
X140894104Y-115220800D01*
X140970295Y-115182704D01*
X141160771Y-115182704D01*
X141275057Y-115220800D01*
X141846485Y-115182704D02*
X141846485Y-115754133D01*
X141808390Y-115868419D01*
X141732200Y-115944609D01*
X141617914Y-115982704D01*
X141541723Y-115982704D01*
X142189342Y-115258895D02*
X142227438Y-115220800D01*
X142303628Y-115182704D01*
X142494104Y-115182704D01*
X142570295Y-115220800D01*
X142608390Y-115258895D01*
X142646485Y-115335085D01*
X142646485Y-115411276D01*
X142608390Y-115525561D01*
X142151247Y-115982704D01*
X142646485Y-115982704D01*
X115423666Y-107912761D02*
X115566523Y-107960380D01*
X115804619Y-107960380D01*
X115899857Y-107912761D01*
X115947476Y-107865142D01*
X115995095Y-107769904D01*
X115995095Y-107674666D01*
X115947476Y-107579428D01*
X115899857Y-107531809D01*
X115804619Y-107484190D01*
X115614142Y-107436571D01*
X115518904Y-107388952D01*
X115471285Y-107341333D01*
X115423666Y-107246095D01*
X115423666Y-107150857D01*
X115471285Y-107055619D01*
X115518904Y-107008000D01*
X115614142Y-106960380D01*
X115852238Y-106960380D01*
X115995095Y-107008000D01*
X116328428Y-106960380D02*
X116566523Y-107960380D01*
X116757000Y-107246095D01*
X116947476Y-107960380D01*
X117185571Y-106960380D01*
X118090333Y-107960380D02*
X117518904Y-107960380D01*
X117804619Y-107960380D02*
X117804619Y-106960380D01*
X117709380Y-107103238D01*
X117614142Y-107198476D01*
X117518904Y-107246095D01*
D15*
X81396114Y-111648723D02*
X81396114Y-110378723D01*
X81976685Y-110378723D01*
X82121828Y-110439200D01*
X82194400Y-110499676D01*
X82266971Y-110620628D01*
X82266971Y-110802057D01*
X82194400Y-110923009D01*
X82121828Y-110983485D01*
X81976685Y-111043961D01*
X81396114Y-111043961D01*
X82920114Y-111648723D02*
X82920114Y-110802057D01*
X82920114Y-111043961D02*
X82992685Y-110923009D01*
X83065257Y-110862533D01*
X83210400Y-110802057D01*
X83355542Y-110802057D01*
X84081257Y-111648723D02*
X83936114Y-111588247D01*
X83863542Y-111527771D01*
X83790971Y-111406819D01*
X83790971Y-111043961D01*
X83863542Y-110923009D01*
X83936114Y-110862533D01*
X84081257Y-110802057D01*
X84298971Y-110802057D01*
X84444114Y-110862533D01*
X84516685Y-110923009D01*
X84589257Y-111043961D01*
X84589257Y-111406819D01*
X84516685Y-111527771D01*
X84444114Y-111588247D01*
X84298971Y-111648723D01*
X84081257Y-111648723D01*
X85242400Y-111648723D02*
X85242400Y-110378723D01*
X85750400Y-111285866D01*
X86258400Y-110378723D01*
X86258400Y-111648723D01*
X86984114Y-111648723D02*
X86984114Y-110802057D01*
X86984114Y-110378723D02*
X86911542Y-110439200D01*
X86984114Y-110499676D01*
X87056685Y-110439200D01*
X86984114Y-110378723D01*
X86984114Y-110499676D01*
X88362971Y-111588247D02*
X88217828Y-111648723D01*
X87927542Y-111648723D01*
X87782400Y-111588247D01*
X87709828Y-111527771D01*
X87637257Y-111406819D01*
X87637257Y-111043961D01*
X87709828Y-110923009D01*
X87782400Y-110862533D01*
X87927542Y-110802057D01*
X88217828Y-110802057D01*
X88362971Y-110862533D01*
X89016114Y-111648723D02*
X89016114Y-110802057D01*
X89016114Y-111043961D02*
X89088685Y-110923009D01*
X89161257Y-110862533D01*
X89306400Y-110802057D01*
X89451542Y-110802057D01*
X90177257Y-111648723D02*
X90032114Y-111588247D01*
X89959542Y-111527771D01*
X89886971Y-111406819D01*
X89886971Y-111043961D01*
X89959542Y-110923009D01*
X90032114Y-110862533D01*
X90177257Y-110802057D01*
X90394971Y-110802057D01*
X90540114Y-110862533D01*
X90612685Y-110923009D01*
X90685257Y-111043961D01*
X90685257Y-111406819D01*
X90612685Y-111527771D01*
X90540114Y-111588247D01*
X90394971Y-111648723D01*
X90177257Y-111648723D01*
D16*
X91512266Y-137618000D02*
X91612266Y-137651333D01*
X91645600Y-137684666D01*
X91678933Y-137751333D01*
X91678933Y-137851333D01*
X91645600Y-137918000D01*
X91612266Y-137951333D01*
X91545600Y-137984666D01*
X91278933Y-137984666D01*
X91278933Y-137284666D01*
X91512266Y-137284666D01*
X91578933Y-137318000D01*
X91612266Y-137351333D01*
X91645600Y-137418000D01*
X91645600Y-137484666D01*
X91612266Y-137551333D01*
X91578933Y-137584666D01*
X91512266Y-137618000D01*
X91278933Y-137618000D01*
X92312266Y-137284666D02*
X91978933Y-137284666D01*
X91945600Y-137618000D01*
X91978933Y-137584666D01*
X92045600Y-137551333D01*
X92212266Y-137551333D01*
X92278933Y-137584666D01*
X92312266Y-137618000D01*
X92345600Y-137684666D01*
X92345600Y-137851333D01*
X92312266Y-137918000D01*
X92278933Y-137951333D01*
X92212266Y-137984666D01*
X92045600Y-137984666D01*
X91978933Y-137951333D01*
X91945600Y-137918000D01*
X91512266Y-135078000D02*
X91612266Y-135111333D01*
X91645600Y-135144666D01*
X91678933Y-135211333D01*
X91678933Y-135311333D01*
X91645600Y-135378000D01*
X91612266Y-135411333D01*
X91545600Y-135444666D01*
X91278933Y-135444666D01*
X91278933Y-134744666D01*
X91512266Y-134744666D01*
X91578933Y-134778000D01*
X91612266Y-134811333D01*
X91645600Y-134878000D01*
X91645600Y-134944666D01*
X91612266Y-135011333D01*
X91578933Y-135044666D01*
X91512266Y-135078000D01*
X91278933Y-135078000D01*
X92278933Y-134978000D02*
X92278933Y-135444666D01*
X92112266Y-134711333D02*
X91945600Y-135211333D01*
X92378933Y-135211333D01*
X91312266Y-132538000D02*
X91545600Y-132538000D01*
X91645600Y-132904666D02*
X91312266Y-132904666D01*
X91312266Y-132204666D01*
X91645600Y-132204666D01*
X92245600Y-132204666D02*
X92112266Y-132204666D01*
X92045600Y-132238000D01*
X92012266Y-132271333D01*
X91945600Y-132371333D01*
X91912266Y-132504666D01*
X91912266Y-132771333D01*
X91945600Y-132838000D01*
X91978933Y-132871333D01*
X92045600Y-132904666D01*
X92178933Y-132904666D01*
X92245600Y-132871333D01*
X92278933Y-132838000D01*
X92312266Y-132771333D01*
X92312266Y-132604666D01*
X92278933Y-132538000D01*
X92245600Y-132504666D01*
X92178933Y-132471333D01*
X92045600Y-132471333D01*
X91978933Y-132504666D01*
X91945600Y-132538000D01*
X91912266Y-132604666D01*
X91278933Y-130364666D02*
X91278933Y-129664666D01*
X91445600Y-129664666D01*
X91545600Y-129698000D01*
X91612266Y-129764666D01*
X91645600Y-129831333D01*
X91678933Y-129964666D01*
X91678933Y-130064666D01*
X91645600Y-130198000D01*
X91612266Y-130264666D01*
X91545600Y-130331333D01*
X91445600Y-130364666D01*
X91278933Y-130364666D01*
X91912266Y-129664666D02*
X92378933Y-129664666D01*
X92078933Y-130364666D01*
X91678933Y-127758000D02*
X91645600Y-127791333D01*
X91545600Y-127824666D01*
X91478933Y-127824666D01*
X91378933Y-127791333D01*
X91312266Y-127724666D01*
X91278933Y-127658000D01*
X91245600Y-127524666D01*
X91245600Y-127424666D01*
X91278933Y-127291333D01*
X91312266Y-127224666D01*
X91378933Y-127158000D01*
X91478933Y-127124666D01*
X91545600Y-127124666D01*
X91645600Y-127158000D01*
X91678933Y-127191333D01*
X92278933Y-127124666D02*
X92145600Y-127124666D01*
X92078933Y-127158000D01*
X92045600Y-127191333D01*
X91978933Y-127291333D01*
X91945600Y-127424666D01*
X91945600Y-127691333D01*
X91978933Y-127758000D01*
X92012266Y-127791333D01*
X92078933Y-127824666D01*
X92212266Y-127824666D01*
X92278933Y-127791333D01*
X92312266Y-127758000D01*
X92345600Y-127691333D01*
X92345600Y-127524666D01*
X92312266Y-127458000D01*
X92278933Y-127424666D01*
X92212266Y-127391333D01*
X92078933Y-127391333D01*
X92012266Y-127424666D01*
X91978933Y-127458000D01*
X91945600Y-127524666D01*
X91278933Y-125284666D02*
X91278933Y-124584666D01*
X91445600Y-124584666D01*
X91545600Y-124618000D01*
X91612266Y-124684666D01*
X91645600Y-124751333D01*
X91678933Y-124884666D01*
X91678933Y-124984666D01*
X91645600Y-125118000D01*
X91612266Y-125184666D01*
X91545600Y-125251333D01*
X91445600Y-125284666D01*
X91278933Y-125284666D01*
X92278933Y-124818000D02*
X92278933Y-125284666D01*
X92112266Y-124551333D02*
X91945600Y-125051333D01*
X92378933Y-125051333D01*
X91278933Y-122744666D02*
X91278933Y-122044666D01*
X91445600Y-122044666D01*
X91545600Y-122078000D01*
X91612266Y-122144666D01*
X91645600Y-122211333D01*
X91678933Y-122344666D01*
X91678933Y-122444666D01*
X91645600Y-122578000D01*
X91612266Y-122644666D01*
X91545600Y-122711333D01*
X91445600Y-122744666D01*
X91278933Y-122744666D01*
X92112266Y-122044666D02*
X92178933Y-122044666D01*
X92245600Y-122078000D01*
X92278933Y-122111333D01*
X92312266Y-122178000D01*
X92345600Y-122311333D01*
X92345600Y-122478000D01*
X92312266Y-122611333D01*
X92278933Y-122678000D01*
X92245600Y-122711333D01*
X92178933Y-122744666D01*
X92112266Y-122744666D01*
X92045600Y-122711333D01*
X92012266Y-122678000D01*
X91978933Y-122611333D01*
X91945600Y-122478000D01*
X91945600Y-122311333D01*
X91978933Y-122178000D01*
X92012266Y-122111333D01*
X92045600Y-122078000D01*
X92112266Y-122044666D01*
X91278933Y-120204666D02*
X91278933Y-119504666D01*
X91445600Y-119504666D01*
X91545600Y-119538000D01*
X91612266Y-119604666D01*
X91645600Y-119671333D01*
X91678933Y-119804666D01*
X91678933Y-119904666D01*
X91645600Y-120038000D01*
X91612266Y-120104666D01*
X91545600Y-120171333D01*
X91445600Y-120204666D01*
X91278933Y-120204666D01*
X92345600Y-120204666D02*
X91945600Y-120204666D01*
X92145600Y-120204666D02*
X92145600Y-119504666D01*
X92078933Y-119604666D01*
X92012266Y-119671333D01*
X91945600Y-119704666D01*
X90754266Y-116998000D02*
X90687600Y-116964666D01*
X90587600Y-116964666D01*
X90487600Y-116998000D01*
X90420933Y-117064666D01*
X90387600Y-117131333D01*
X90354266Y-117264666D01*
X90354266Y-117364666D01*
X90387600Y-117498000D01*
X90420933Y-117564666D01*
X90487600Y-117631333D01*
X90587600Y-117664666D01*
X90654266Y-117664666D01*
X90754266Y-117631333D01*
X90787600Y-117598000D01*
X90787600Y-117364666D01*
X90654266Y-117364666D01*
X91087600Y-117664666D02*
X91087600Y-116964666D01*
X91487600Y-117664666D01*
X91487600Y-116964666D01*
X91820933Y-117664666D02*
X91820933Y-116964666D01*
X91987600Y-116964666D01*
X92087600Y-116998000D01*
X92154266Y-117064666D01*
X92187600Y-117131333D01*
X92220933Y-117264666D01*
X92220933Y-117364666D01*
X92187600Y-117498000D01*
X92154266Y-117564666D01*
X92087600Y-117631333D01*
X91987600Y-117664666D01*
X91820933Y-117664666D01*
X90754266Y-114458000D02*
X90687600Y-114424666D01*
X90587600Y-114424666D01*
X90487600Y-114458000D01*
X90420933Y-114524666D01*
X90387600Y-114591333D01*
X90354266Y-114724666D01*
X90354266Y-114824666D01*
X90387600Y-114958000D01*
X90420933Y-115024666D01*
X90487600Y-115091333D01*
X90587600Y-115124666D01*
X90654266Y-115124666D01*
X90754266Y-115091333D01*
X90787600Y-115058000D01*
X90787600Y-114824666D01*
X90654266Y-114824666D01*
X91087600Y-115124666D02*
X91087600Y-114424666D01*
X91487600Y-115124666D01*
X91487600Y-114424666D01*
X91820933Y-115124666D02*
X91820933Y-114424666D01*
X91987600Y-114424666D01*
X92087600Y-114458000D01*
X92154266Y-114524666D01*
X92187600Y-114591333D01*
X92220933Y-114724666D01*
X92220933Y-114824666D01*
X92187600Y-114958000D01*
X92154266Y-115024666D01*
X92087600Y-115091333D01*
X91987600Y-115124666D01*
X91820933Y-115124666D01*
X91278933Y-112584666D02*
X91278933Y-111884666D01*
X91445600Y-111884666D01*
X91545600Y-111918000D01*
X91612266Y-111984666D01*
X91645600Y-112051333D01*
X91678933Y-112184666D01*
X91678933Y-112284666D01*
X91645600Y-112418000D01*
X91612266Y-112484666D01*
X91545600Y-112551333D01*
X91445600Y-112584666D01*
X91278933Y-112584666D01*
X91945600Y-111951333D02*
X91978933Y-111918000D01*
X92045600Y-111884666D01*
X92212266Y-111884666D01*
X92278933Y-111918000D01*
X92312266Y-111951333D01*
X92345600Y-112018000D01*
X92345600Y-112084666D01*
X92312266Y-112184666D01*
X91912266Y-112584666D01*
X92345600Y-112584666D01*
X91278933Y-110044666D02*
X91278933Y-109344666D01*
X91445600Y-109344666D01*
X91545600Y-109378000D01*
X91612266Y-109444666D01*
X91645600Y-109511333D01*
X91678933Y-109644666D01*
X91678933Y-109744666D01*
X91645600Y-109878000D01*
X91612266Y-109944666D01*
X91545600Y-110011333D01*
X91445600Y-110044666D01*
X91278933Y-110044666D01*
X91912266Y-109344666D02*
X92345600Y-109344666D01*
X92112266Y-109611333D01*
X92212266Y-109611333D01*
X92278933Y-109644666D01*
X92312266Y-109678000D01*
X92345600Y-109744666D01*
X92345600Y-109911333D01*
X92312266Y-109978000D01*
X92278933Y-110011333D01*
X92212266Y-110044666D01*
X92012266Y-110044666D01*
X91945600Y-110011333D01*
X91912266Y-109978000D01*
X79320266Y-137618000D02*
X79420266Y-137651333D01*
X79453600Y-137684666D01*
X79486933Y-137751333D01*
X79486933Y-137851333D01*
X79453600Y-137918000D01*
X79420266Y-137951333D01*
X79353600Y-137984666D01*
X79086933Y-137984666D01*
X79086933Y-137284666D01*
X79320266Y-137284666D01*
X79386933Y-137318000D01*
X79420266Y-137351333D01*
X79453600Y-137418000D01*
X79453600Y-137484666D01*
X79420266Y-137551333D01*
X79386933Y-137584666D01*
X79320266Y-137618000D01*
X79086933Y-137618000D01*
X80086933Y-137284666D02*
X79953600Y-137284666D01*
X79886933Y-137318000D01*
X79853600Y-137351333D01*
X79786933Y-137451333D01*
X79753600Y-137584666D01*
X79753600Y-137851333D01*
X79786933Y-137918000D01*
X79820266Y-137951333D01*
X79886933Y-137984666D01*
X80020266Y-137984666D01*
X80086933Y-137951333D01*
X80120266Y-137918000D01*
X80153600Y-137851333D01*
X80153600Y-137684666D01*
X80120266Y-137618000D01*
X80086933Y-137584666D01*
X80020266Y-137551333D01*
X79886933Y-137551333D01*
X79820266Y-137584666D01*
X79786933Y-137618000D01*
X79753600Y-137684666D01*
X79320266Y-135078000D02*
X79420266Y-135111333D01*
X79453600Y-135144666D01*
X79486933Y-135211333D01*
X79486933Y-135311333D01*
X79453600Y-135378000D01*
X79420266Y-135411333D01*
X79353600Y-135444666D01*
X79086933Y-135444666D01*
X79086933Y-134744666D01*
X79320266Y-134744666D01*
X79386933Y-134778000D01*
X79420266Y-134811333D01*
X79453600Y-134878000D01*
X79453600Y-134944666D01*
X79420266Y-135011333D01*
X79386933Y-135044666D01*
X79320266Y-135078000D01*
X79086933Y-135078000D01*
X79753600Y-134811333D02*
X79786933Y-134778000D01*
X79853600Y-134744666D01*
X80020266Y-134744666D01*
X80086933Y-134778000D01*
X80120266Y-134811333D01*
X80153600Y-134878000D01*
X80153600Y-134944666D01*
X80120266Y-135044666D01*
X79720266Y-135444666D01*
X80153600Y-135444666D01*
X79320266Y-132538000D02*
X79420266Y-132571333D01*
X79453600Y-132604666D01*
X79486933Y-132671333D01*
X79486933Y-132771333D01*
X79453600Y-132838000D01*
X79420266Y-132871333D01*
X79353600Y-132904666D01*
X79086933Y-132904666D01*
X79086933Y-132204666D01*
X79320266Y-132204666D01*
X79386933Y-132238000D01*
X79420266Y-132271333D01*
X79453600Y-132338000D01*
X79453600Y-132404666D01*
X79420266Y-132471333D01*
X79386933Y-132504666D01*
X79320266Y-132538000D01*
X79086933Y-132538000D01*
X79720266Y-132204666D02*
X80153600Y-132204666D01*
X79920266Y-132471333D01*
X80020266Y-132471333D01*
X80086933Y-132504666D01*
X80120266Y-132538000D01*
X80153600Y-132604666D01*
X80153600Y-132771333D01*
X80120266Y-132838000D01*
X80086933Y-132871333D01*
X80020266Y-132904666D01*
X79820266Y-132904666D01*
X79753600Y-132871333D01*
X79720266Y-132838000D01*
X79320266Y-129998000D02*
X79420266Y-130031333D01*
X79453600Y-130064666D01*
X79486933Y-130131333D01*
X79486933Y-130231333D01*
X79453600Y-130298000D01*
X79420266Y-130331333D01*
X79353600Y-130364666D01*
X79086933Y-130364666D01*
X79086933Y-129664666D01*
X79320266Y-129664666D01*
X79386933Y-129698000D01*
X79420266Y-129731333D01*
X79453600Y-129798000D01*
X79453600Y-129864666D01*
X79420266Y-129931333D01*
X79386933Y-129964666D01*
X79320266Y-129998000D01*
X79086933Y-129998000D01*
X80153600Y-130364666D02*
X79753600Y-130364666D01*
X79953600Y-130364666D02*
X79953600Y-129664666D01*
X79886933Y-129764666D01*
X79820266Y-129831333D01*
X79753600Y-129864666D01*
X79370266Y-124918000D02*
X79136933Y-124918000D01*
X79136933Y-125284666D02*
X79136933Y-124584666D01*
X79470266Y-124584666D01*
X80036933Y-124584666D02*
X79903600Y-124584666D01*
X79836933Y-124618000D01*
X79803600Y-124651333D01*
X79736933Y-124751333D01*
X79703600Y-124884666D01*
X79703600Y-125151333D01*
X79736933Y-125218000D01*
X79770266Y-125251333D01*
X79836933Y-125284666D01*
X79970266Y-125284666D01*
X80036933Y-125251333D01*
X80070266Y-125218000D01*
X80103600Y-125151333D01*
X80103600Y-124984666D01*
X80070266Y-124918000D01*
X80036933Y-124884666D01*
X79970266Y-124851333D01*
X79836933Y-124851333D01*
X79770266Y-124884666D01*
X79736933Y-124918000D01*
X79703600Y-124984666D01*
X79370266Y-127458000D02*
X79136933Y-127458000D01*
X79136933Y-127824666D02*
X79136933Y-127124666D01*
X79470266Y-127124666D01*
X79670266Y-127124666D02*
X80136933Y-127124666D01*
X79836933Y-127824666D01*
X79370266Y-122378000D02*
X79136933Y-122378000D01*
X79136933Y-122744666D02*
X79136933Y-122044666D01*
X79470266Y-122044666D01*
X80070266Y-122044666D02*
X79736933Y-122044666D01*
X79703600Y-122378000D01*
X79736933Y-122344666D01*
X79803600Y-122311333D01*
X79970266Y-122311333D01*
X80036933Y-122344666D01*
X80070266Y-122378000D01*
X80103600Y-122444666D01*
X80103600Y-122611333D01*
X80070266Y-122678000D01*
X80036933Y-122711333D01*
X79970266Y-122744666D01*
X79803600Y-122744666D01*
X79736933Y-122711333D01*
X79703600Y-122678000D01*
X79370266Y-119838000D02*
X79136933Y-119838000D01*
X79136933Y-120204666D02*
X79136933Y-119504666D01*
X79470266Y-119504666D01*
X80036933Y-119738000D02*
X80036933Y-120204666D01*
X79870266Y-119471333D02*
X79703600Y-119971333D01*
X80136933Y-119971333D01*
X79178266Y-116964666D02*
X79411600Y-117664666D01*
X79644933Y-116964666D01*
X80278266Y-117598000D02*
X80244933Y-117631333D01*
X80144933Y-117664666D01*
X80078266Y-117664666D01*
X79978266Y-117631333D01*
X79911600Y-117564666D01*
X79878266Y-117498000D01*
X79844933Y-117364666D01*
X79844933Y-117264666D01*
X79878266Y-117131333D01*
X79911600Y-117064666D01*
X79978266Y-116998000D01*
X80078266Y-116964666D01*
X80144933Y-116964666D01*
X80244933Y-116998000D01*
X80278266Y-117031333D01*
X80978266Y-117598000D02*
X80944933Y-117631333D01*
X80844933Y-117664666D01*
X80778266Y-117664666D01*
X80678266Y-117631333D01*
X80611600Y-117564666D01*
X80578266Y-117498000D01*
X80544933Y-117364666D01*
X80544933Y-117264666D01*
X80578266Y-117131333D01*
X80611600Y-117064666D01*
X80678266Y-116998000D01*
X80778266Y-116964666D01*
X80844933Y-116964666D01*
X80944933Y-116998000D01*
X80978266Y-117031333D01*
X79728266Y-115124666D02*
X79494933Y-114791333D01*
X79328266Y-115124666D02*
X79328266Y-114424666D01*
X79594933Y-114424666D01*
X79661600Y-114458000D01*
X79694933Y-114491333D01*
X79728266Y-114558000D01*
X79728266Y-114658000D01*
X79694933Y-114724666D01*
X79661600Y-114758000D01*
X79594933Y-114791333D01*
X79328266Y-114791333D01*
X79994933Y-115091333D02*
X80094933Y-115124666D01*
X80261600Y-115124666D01*
X80328266Y-115091333D01*
X80361600Y-115058000D01*
X80394933Y-114991333D01*
X80394933Y-114924666D01*
X80361600Y-114858000D01*
X80328266Y-114824666D01*
X80261600Y-114791333D01*
X80128266Y-114758000D01*
X80061600Y-114724666D01*
X80028266Y-114691333D01*
X79994933Y-114624666D01*
X79994933Y-114558000D01*
X80028266Y-114491333D01*
X80061600Y-114458000D01*
X80128266Y-114424666D01*
X80294933Y-114424666D01*
X80394933Y-114458000D01*
X80594933Y-114424666D02*
X80994933Y-114424666D01*
X80794933Y-115124666D02*
X80794933Y-114424666D01*
X79578266Y-111918000D02*
X79511600Y-111884666D01*
X79411600Y-111884666D01*
X79311600Y-111918000D01*
X79244933Y-111984666D01*
X79211600Y-112051333D01*
X79178266Y-112184666D01*
X79178266Y-112284666D01*
X79211600Y-112418000D01*
X79244933Y-112484666D01*
X79311600Y-112551333D01*
X79411600Y-112584666D01*
X79478266Y-112584666D01*
X79578266Y-112551333D01*
X79611600Y-112518000D01*
X79611600Y-112284666D01*
X79478266Y-112284666D01*
X79911600Y-112584666D02*
X79911600Y-111884666D01*
X80311600Y-112584666D01*
X80311600Y-111884666D01*
X80644933Y-112584666D02*
X80644933Y-111884666D01*
X80811600Y-111884666D01*
X80911600Y-111918000D01*
X80978266Y-111984666D01*
X81011600Y-112051333D01*
X81044933Y-112184666D01*
X81044933Y-112284666D01*
X81011600Y-112418000D01*
X80978266Y-112484666D01*
X80911600Y-112551333D01*
X80811600Y-112584666D01*
X80644933Y-112584666D01*
X80136266Y-110298666D02*
X79902933Y-109965333D01*
X79736266Y-110298666D02*
X79736266Y-109598666D01*
X80002933Y-109598666D01*
X80069600Y-109632000D01*
X80102933Y-109665333D01*
X80136266Y-109732000D01*
X80136266Y-109832000D01*
X80102933Y-109898666D01*
X80069600Y-109932000D01*
X80002933Y-109965333D01*
X79736266Y-109965333D01*
X80402933Y-110098666D02*
X80736266Y-110098666D01*
X80336266Y-110298666D02*
X80569600Y-109598666D01*
X80802933Y-110298666D01*
X80969600Y-109598666D02*
X81136266Y-110298666D01*
X81269600Y-109798666D01*
X81402933Y-110298666D01*
X81569600Y-109598666D01*
D14*
X151254651Y-188401754D02*
X149934829Y-187639754D01*
X151690080Y-187647570D02*
X150609324Y-187777779D01*
X150370257Y-186885570D02*
X150689013Y-188075183D01*
X151325316Y-186682788D02*
X151579316Y-186242848D01*
X152379508Y-186453444D02*
X152016651Y-187081931D01*
X150696829Y-186319931D01*
X151059686Y-185691444D01*
X152222736Y-185273554D02*
X152851223Y-185636411D01*
X151277400Y-185314352D02*
X152222736Y-185273554D01*
X151785400Y-184434470D01*
X153260088Y-184783092D02*
X153431794Y-184630832D01*
X153613223Y-184316588D01*
X153622945Y-184154605D01*
X153596382Y-184055471D01*
X153506971Y-183920051D01*
X153381273Y-183847479D01*
X153219290Y-183837757D01*
X153120156Y-183864320D01*
X152984736Y-183953731D01*
X152776744Y-184168840D01*
X152641324Y-184258252D01*
X152542190Y-184284815D01*
X152380207Y-184275092D01*
X152254509Y-184202521D01*
X152165097Y-184067101D01*
X152138534Y-183967966D01*
X152148257Y-183805983D01*
X152329686Y-183491740D01*
X152501392Y-183339479D01*
X152692543Y-182863253D02*
X154193794Y-183311009D01*
X153396207Y-182515329D01*
X154484080Y-182808220D01*
X153345686Y-181731976D01*
M02*
