M48
; DRILL file {KiCad (5.1.5-0-10_14)} date Monday, April 20, 2020 at 08:45:49 pm
; FORMAT={-:-/ absolute / inch / decimal}
; #@! TF.CreationDate,2020-04-20T20:45:49-04:00
; #@! TF.GenerationSoftware,Kicad,Pcbnew,(5.1.5-0-10_14)
; #@! TF.FileFunction,NonPlated,1,2,NPTH
FMAT,2
INCH
T1C0.0390
T2C0.0670
T3C0.1570
T4C0.1575
%
G90
G05
T1
X5.25Y-4.3327
X5.25Y-4.5297
T2
X2.425Y-5.7187
X2.825Y-5.7187
X5.425Y-5.625
X5.825Y-5.625
X3.925Y-6.1875
X4.325Y-6.1875
X5.425Y-4.875
X5.825Y-4.875
X2.425Y-4.9687
X2.825Y-4.9687
X4.2398Y-7.1
X4.6398Y-7.1
X3.175Y-6.2813
X3.575Y-6.2813
X4.675Y-5.5313
X5.075Y-5.5313
X6.053Y-7.5532
X6.253Y-7.2068
X3.175Y-4.7813
X3.575Y-4.7813
X3.925Y-5.4375
X4.325Y-5.4375
X4.675Y-4.7813
X5.075Y-4.7813
X4.675Y-6.2813
X5.075Y-6.2813
X2.425Y-6.4687
X2.825Y-6.4687
X3.175Y-5.5313
X3.575Y-5.5313
X5.0836Y-7.167
X5.47Y-7.2705
X3.925Y-4.6875
X4.325Y-4.6875
X5.425Y-6.375
X5.825Y-6.375
T3
X5.625Y-6.375
X2.625Y-5.7187
X5.625Y-5.625
X4.125Y-6.1875
X5.625Y-4.875
X2.625Y-4.9687
X4.4398Y-7.1
X3.375Y-6.2813
X4.875Y-5.5313
X6.153Y-7.38
X3.375Y-4.7813
X4.125Y-5.4375
X4.875Y-4.7813
X4.875Y-6.2813
X2.625Y-6.4687
X3.375Y-5.5313
X5.2768Y-7.2187
X4.125Y-4.6875
T4
X2.98Y-6.1
X4.8341Y-7.3398
X6.3741Y-7.0198
X3.8141Y-5.0648
X5.2291Y-5.1598
T0
M30
