G04 #@! TF.GenerationSoftware,KiCad,Pcbnew,(5.1.5-0-10_14)*
G04 #@! TF.CreationDate,2020-04-20T20:44:16-04:00*
G04 #@! TF.ProjectId,minidox-routed,6d696e69-646f-4782-9d72-6f757465642e,rev?*
G04 #@! TF.SameCoordinates,Original*
G04 #@! TF.FileFunction,Copper,L1,Top*
G04 #@! TF.FilePolarity,Positive*
%FSLAX46Y46*%
G04 Gerber Fmt 4.6, Leading zero omitted, Abs format (unit mm)*
G04 Created by KiCad (PCBNEW (5.1.5-0-10_14)) date 2020-04-20 20:44:16*
%MOMM*%
%LPD*%
G04 APERTURE LIST*
%ADD10R,1.200000X1.200000*%
%ADD11R,1.600000X1.600000*%
%ADD12C,1.600000*%
%ADD13R,2.500000X0.500000*%
%ADD14R,0.500000X2.500000*%
%ADD15C,0.100000*%
%ADD16C,2.500000*%
%ADD17C,1.752600*%
%ADD18O,2.057400X1.752600*%
%ADD19R,1.200000X0.600000*%
%ADD20R,1.700000X1.000000*%
%ADD21R,1.752600X1.752600*%
%ADD22C,0.800000*%
%ADD23C,0.250000*%
%ADD24C,0.254000*%
G04 APERTURE END LIST*
D10*
X64465000Y-135890000D03*
X67615000Y-135890000D03*
D11*
X69940000Y-135890000D03*
D12*
X62140000Y-135890000D03*
D13*
X68740000Y-135890000D03*
X63340000Y-135890000D03*
X101440000Y-128270000D03*
X106840000Y-128270000D03*
D12*
X100240000Y-128270000D03*
D11*
X108040000Y-128270000D03*
D10*
X105715000Y-128270000D03*
X102565000Y-128270000D03*
D14*
X114300000Y-119220000D03*
X114300000Y-124620000D03*
D12*
X114300000Y-118020000D03*
D11*
X114300000Y-125820000D03*
D10*
X114300000Y-123495000D03*
X114300000Y-120345000D03*
D13*
X126525000Y-130810000D03*
X121125000Y-130810000D03*
D12*
X127725000Y-130810000D03*
D11*
X119925000Y-130810000D03*
D10*
X122250000Y-130810000D03*
X125400000Y-130810000D03*
D13*
X145575000Y-133350000D03*
X140175000Y-133350000D03*
D12*
X146775000Y-133350000D03*
D11*
X138975000Y-133350000D03*
D10*
X141300000Y-133350000D03*
X144450000Y-133350000D03*
X64465000Y-154940000D03*
X67615000Y-154940000D03*
D11*
X69940000Y-154940000D03*
D12*
X62140000Y-154940000D03*
D13*
X68740000Y-154940000D03*
X63340000Y-154940000D03*
X88425000Y-149860000D03*
X83025000Y-149860000D03*
D12*
X89625000Y-149860000D03*
D11*
X81825000Y-149860000D03*
D10*
X84150000Y-149860000D03*
X87300000Y-149860000D03*
D14*
X114300000Y-138270000D03*
X114300000Y-143670000D03*
D12*
X114300000Y-137070000D03*
D11*
X114300000Y-144870000D03*
D10*
X114300000Y-142545000D03*
X114300000Y-139395000D03*
D13*
X126525000Y-149860000D03*
X121125000Y-149860000D03*
D12*
X127725000Y-149860000D03*
D11*
X119925000Y-149860000D03*
D10*
X122250000Y-149860000D03*
X125400000Y-149860000D03*
X133350000Y-140665000D03*
X133350000Y-143815000D03*
D11*
X133350000Y-146140000D03*
D12*
X133350000Y-138340000D03*
D14*
X133350000Y-144940000D03*
X133350000Y-139540000D03*
X76200000Y-159860000D03*
X76200000Y-165260000D03*
D12*
X76200000Y-158660000D03*
D11*
X76200000Y-166460000D03*
D10*
X76200000Y-164135000D03*
X76200000Y-160985000D03*
X103835000Y-147320000D03*
X106985000Y-147320000D03*
D11*
X109310000Y-147320000D03*
D12*
X101510000Y-147320000D03*
D13*
X108110000Y-147320000D03*
X102710000Y-147320000D03*
D10*
X114300000Y-157175000D03*
X114300000Y-160325000D03*
D11*
X114300000Y-162650000D03*
D12*
X114300000Y-154850000D03*
D14*
X114300000Y-161450000D03*
X114300000Y-156050000D03*
D10*
X133350000Y-156870000D03*
X133350000Y-160020000D03*
D11*
X133350000Y-162345000D03*
D12*
X133350000Y-154545000D03*
D14*
X133350000Y-161145000D03*
X133350000Y-155745000D03*
D10*
X144450000Y-152400000D03*
X141300000Y-152400000D03*
D11*
X138975000Y-152400000D03*
D12*
X146775000Y-152400000D03*
D13*
X140175000Y-152400000D03*
X145575000Y-152400000D03*
D10*
X95250000Y-155905000D03*
X95250000Y-159055000D03*
D11*
X95250000Y-161380000D03*
D12*
X95250000Y-153580000D03*
D14*
X95250000Y-160180000D03*
X95250000Y-154780000D03*
G04 #@! TA.AperFunction,Conductor*
D15*
G36*
X151549537Y-199010706D02*
G01*
X151799537Y-198577694D01*
X153964601Y-199827694D01*
X153714601Y-200260706D01*
X151549537Y-199010706D01*
G37*
G04 #@! TD.AperFunction*
G04 #@! TA.AperFunction,Conductor*
G36*
X146872999Y-196310706D02*
G01*
X147122999Y-195877694D01*
X149288063Y-197127694D01*
X149038063Y-197560706D01*
X146872999Y-196310706D01*
G37*
G04 #@! TD.AperFunction*
D12*
X153796299Y-200019200D03*
G04 #@! TA.AperFunction,ComponentPad*
D15*
G36*
X145948481Y-196412020D02*
G01*
X146748481Y-195026380D01*
X148134121Y-195826380D01*
X147334121Y-197212020D01*
X145948481Y-196412020D01*
G37*
G04 #@! TD.AperFunction*
G04 #@! TA.AperFunction,SMDPad,CuDef*
G36*
X148235195Y-197501315D02*
G01*
X148835195Y-196462085D01*
X149874425Y-197062085D01*
X149274425Y-198101315D01*
X148235195Y-197501315D01*
G37*
G04 #@! TD.AperFunction*
G04 #@! TA.AperFunction,SMDPad,CuDef*
G36*
X150963175Y-199076315D02*
G01*
X151563175Y-198037085D01*
X152602405Y-198637085D01*
X152002405Y-199676315D01*
X150963175Y-199076315D01*
G37*
G04 #@! TD.AperFunction*
G04 #@! TA.AperFunction,Conductor*
G36*
X152946537Y-196673906D02*
G01*
X153196537Y-196240894D01*
X155361601Y-197490894D01*
X155111601Y-197923906D01*
X152946537Y-196673906D01*
G37*
G04 #@! TD.AperFunction*
G04 #@! TA.AperFunction,Conductor*
G36*
X148269999Y-193973906D02*
G01*
X148519999Y-193540894D01*
X150685063Y-194790894D01*
X150435063Y-195223906D01*
X148269999Y-193973906D01*
G37*
G04 #@! TD.AperFunction*
D12*
X155193299Y-197682400D03*
G04 #@! TA.AperFunction,ComponentPad*
D15*
G36*
X147345481Y-194075220D02*
G01*
X148145481Y-192689580D01*
X149531121Y-193489580D01*
X148731121Y-194875220D01*
X147345481Y-194075220D01*
G37*
G04 #@! TD.AperFunction*
G04 #@! TA.AperFunction,SMDPad,CuDef*
G36*
X149632195Y-195164515D02*
G01*
X150232195Y-194125285D01*
X151271425Y-194725285D01*
X150671425Y-195764515D01*
X149632195Y-195164515D01*
G37*
G04 #@! TD.AperFunction*
G04 #@! TA.AperFunction,SMDPad,CuDef*
G36*
X152360175Y-196739515D02*
G01*
X152960175Y-195700285D01*
X153999405Y-196300285D01*
X153399405Y-197339515D01*
X152360175Y-196739515D01*
G37*
G04 #@! TD.AperFunction*
D16*
X64135276Y-121126672D02*
X64174724Y-121705328D01*
X69674547Y-122206046D02*
X70485453Y-123665954D01*
X63675453Y-122206046D02*
X62864547Y-123665954D01*
X69214724Y-121126672D02*
X69175276Y-121705328D01*
X83185276Y-116364672D02*
X83224724Y-116943328D01*
X88724547Y-117444046D02*
X89535453Y-118903954D01*
X82725453Y-117444046D02*
X81914547Y-118903954D01*
X88264724Y-116364672D02*
X88225276Y-116943328D01*
X102235276Y-113982672D02*
X102274724Y-114561328D01*
X107774547Y-115062046D02*
X108585453Y-116521954D01*
X101775453Y-115062046D02*
X100964547Y-116521954D01*
X107314724Y-113982672D02*
X107275276Y-114561328D01*
X121285276Y-116364672D02*
X121324724Y-116943328D01*
X126824547Y-117444046D02*
X127635453Y-118903954D01*
X120825453Y-117444046D02*
X120014547Y-118903954D01*
X126364724Y-116364672D02*
X126325276Y-116943328D01*
X140335276Y-118745672D02*
X140374724Y-119324328D01*
X145874547Y-119825046D02*
X146685453Y-121284954D01*
X139875453Y-119825046D02*
X139064547Y-121284954D01*
X145414724Y-118745672D02*
X145375276Y-119324328D01*
X69214724Y-140176672D02*
X69175276Y-140755328D01*
X63675453Y-141256046D02*
X62864547Y-142715954D01*
X69674547Y-141256046D02*
X70485453Y-142715954D01*
X64135276Y-140176672D02*
X64174724Y-140755328D01*
X83185276Y-135414672D02*
X83224724Y-135993328D01*
X88724547Y-136494046D02*
X89535453Y-137953954D01*
X82725453Y-136494046D02*
X81914547Y-137953954D01*
X88264724Y-135414672D02*
X88225276Y-135993328D01*
X102235276Y-133032672D02*
X102274724Y-133611328D01*
X107774547Y-134112046D02*
X108585453Y-135571954D01*
X101775453Y-134112046D02*
X100964547Y-135571954D01*
X107314724Y-133032672D02*
X107275276Y-133611328D01*
X121285276Y-135414672D02*
X121324724Y-135993328D01*
X126824547Y-136494046D02*
X127635453Y-137953954D01*
X120825453Y-136494046D02*
X120014547Y-137953954D01*
X126364724Y-135414672D02*
X126325276Y-135993328D01*
X140335276Y-137795672D02*
X140374724Y-138374328D01*
X145874547Y-138875046D02*
X146685453Y-140334954D01*
X139875453Y-138875046D02*
X139064547Y-140334954D01*
X145414724Y-137795672D02*
X145375276Y-138374328D01*
X64135276Y-159226672D02*
X64174724Y-159805328D01*
X69674547Y-160306046D02*
X70485453Y-161765954D01*
X63675453Y-160306046D02*
X62864547Y-161765954D01*
X69214724Y-159226672D02*
X69175276Y-159805328D01*
X88264724Y-154464672D02*
X88225276Y-155043328D01*
X82725453Y-155544046D02*
X81914547Y-157003954D01*
X88724547Y-155544046D02*
X89535453Y-157003954D01*
X83185276Y-154464672D02*
X83224724Y-155043328D01*
X107314724Y-152082672D02*
X107275276Y-152661328D01*
X101775453Y-153162046D02*
X100964547Y-154621954D01*
X107774547Y-153162046D02*
X108585453Y-154621954D01*
X102235276Y-152082672D02*
X102274724Y-152661328D01*
X126364724Y-154464672D02*
X126325276Y-155043328D01*
X120825453Y-155544046D02*
X120014547Y-157003954D01*
X126824547Y-155544046D02*
X127635453Y-157003954D01*
X121285276Y-154464672D02*
X121324724Y-155043328D01*
X145414724Y-156845672D02*
X145375276Y-157424328D01*
X139875453Y-157925046D02*
X139064547Y-159384954D01*
X145874547Y-157925046D02*
X146685453Y-159384954D01*
X140335276Y-156845672D02*
X140374724Y-157424328D01*
X115311724Y-175260672D02*
X115272276Y-175839328D01*
X109772453Y-176340046D02*
X108961547Y-177799954D01*
X115771547Y-176340046D02*
X116582453Y-177799954D01*
X110232276Y-175260672D02*
X110271724Y-175839328D01*
X137798812Y-179107074D02*
X137610940Y-179655804D01*
X132168925Y-178716002D02*
X131007797Y-179916286D01*
X137963604Y-180268681D02*
X138369028Y-181888721D01*
X132892441Y-177792416D02*
X132780779Y-178361566D01*
D17*
X131749800Y-118154200D03*
X136956800Y-115055400D03*
D18*
X137998200Y-110051600D03*
D17*
X129743200Y-115055400D03*
X134950200Y-118154200D03*
D18*
X128701800Y-110051600D03*
D19*
X139673000Y-113665000D03*
X139673000Y-114465000D03*
X139673000Y-112865000D03*
X141783000Y-112865000D03*
X141783000Y-114465000D03*
X141783000Y-113665000D03*
D20*
X113607000Y-109358000D03*
X119907000Y-109358000D03*
X113607000Y-113158000D03*
X119907000Y-113158000D03*
D21*
X78079600Y-109728000D03*
D17*
X78079600Y-112268000D03*
X78079600Y-114808000D03*
X78079600Y-117348000D03*
X78079600Y-119888000D03*
X78079600Y-122428000D03*
X78079600Y-124968000D03*
X78079600Y-127508000D03*
X78079600Y-130048000D03*
X78079600Y-132588000D03*
X78079600Y-135128000D03*
X78079600Y-137668000D03*
X93319600Y-137668000D03*
X93319600Y-135128000D03*
X93319600Y-132588000D03*
X93319600Y-130048000D03*
X93319600Y-127508000D03*
X93319600Y-124968000D03*
X93319600Y-122428000D03*
X93319600Y-119888000D03*
X93319600Y-117348000D03*
X93319600Y-114808000D03*
X93319600Y-112268000D03*
X93319600Y-109728000D03*
D16*
X161954890Y-187792198D02*
X161434034Y-187537034D01*
X158250488Y-192049660D02*
X156580718Y-192021972D01*
X161250035Y-186854294D02*
X160391171Y-185422074D01*
X159415166Y-192191130D02*
X158933758Y-191867638D01*
D22*
X112677900Y-123406600D03*
X138684000Y-115558000D03*
X122057800Y-109474000D03*
D23*
X62140000Y-135890000D02*
X63340000Y-135890000D01*
X63340000Y-135890000D02*
X64465000Y-135890000D01*
X69940000Y-135890000D02*
X68740000Y-135890000D01*
X70502700Y-135890000D02*
X69940000Y-135890000D01*
X70502700Y-135890000D02*
X71065300Y-135890000D01*
X68740000Y-135890000D02*
X67615000Y-135890000D01*
X105715000Y-128270000D02*
X104789700Y-128270000D01*
X104789700Y-128270000D02*
X101741800Y-131317900D01*
X101741800Y-131317900D02*
X81889700Y-131317900D01*
X81889700Y-131317900D02*
X78079600Y-135128000D01*
X105715000Y-128270000D02*
X106840000Y-128270000D01*
X108040000Y-128270000D02*
X106840000Y-128270000D01*
X114300000Y-125820000D02*
X114300000Y-124620000D01*
X114300000Y-123495000D02*
X114300000Y-124620000D01*
X119925000Y-130810000D02*
X121125000Y-130810000D01*
X122250000Y-130810000D02*
X121125000Y-130810000D01*
X140175000Y-133350000D02*
X138975000Y-133350000D01*
X141300000Y-133350000D02*
X140175000Y-133350000D01*
X78079600Y-135128000D02*
X71827300Y-135128000D01*
X71827300Y-135128000D02*
X71065300Y-135890000D01*
X122712700Y-130810000D02*
X122250000Y-130810000D01*
X123175300Y-130810000D02*
X122712700Y-130810000D01*
X125334300Y-132969000D02*
X123175300Y-130810000D01*
X128143000Y-132969000D02*
X125334300Y-132969000D01*
X137705000Y-134620000D02*
X129794000Y-134620000D01*
X129794000Y-134620000D02*
X128143000Y-132969000D01*
X138975000Y-133350000D02*
X137705000Y-134620000D01*
X100240000Y-128270000D02*
X101440000Y-128270000D01*
X102565000Y-128270000D02*
X101440000Y-128270000D01*
X114300000Y-118020000D02*
X114300000Y-119220000D01*
X108180000Y-115792000D02*
X112072000Y-115792000D01*
X112072000Y-115792000D02*
X114300000Y-118020000D01*
X114300000Y-120345000D02*
X114300000Y-119220000D01*
X127725000Y-130810000D02*
X126525000Y-130810000D01*
X125400000Y-130810000D02*
X126525000Y-130810000D01*
X146775000Y-133350000D02*
X145575000Y-133350000D01*
X144450000Y-133350000D02*
X145575000Y-133350000D01*
X62140000Y-154940000D02*
X63340000Y-154940000D01*
X63340000Y-154940000D02*
X64465000Y-154940000D01*
X78079600Y-137668000D02*
X81957900Y-133789700D01*
X81957900Y-133789700D02*
X93767100Y-133789700D01*
X93767100Y-133789700D02*
X98158500Y-138181100D01*
X98158500Y-138181100D02*
X98158500Y-138319600D01*
X98158500Y-138319600D02*
X102383900Y-142545000D01*
X102383900Y-142545000D02*
X114300000Y-142545000D01*
X68740000Y-154940000D02*
X67615000Y-154940000D01*
X69940000Y-154940000D02*
X68740000Y-154940000D01*
X114300000Y-143670000D02*
X114300000Y-144870000D01*
X133350000Y-144940000D02*
X133350000Y-146140000D01*
X133350000Y-143815000D02*
X133350000Y-144940000D01*
X83025000Y-149860000D02*
X81825000Y-149860000D01*
X84150000Y-149860000D02*
X83025000Y-149860000D01*
X122250000Y-149860000D02*
X123175300Y-149860000D01*
X123175300Y-149860000D02*
X126895300Y-146140000D01*
X126895300Y-146140000D02*
X133350000Y-146140000D01*
X122250000Y-149860000D02*
X121125000Y-149860000D01*
X114300000Y-142545000D02*
X114300000Y-143670000D01*
X119925000Y-149860000D02*
X121125000Y-149860000D01*
X70502700Y-154940000D02*
X69940000Y-154940000D01*
X71065300Y-154940000D02*
X70502700Y-154940000D01*
X74621300Y-151384000D02*
X71065300Y-154940000D01*
X80301000Y-151384000D02*
X74621300Y-151384000D01*
X81825000Y-149860000D02*
X80301000Y-151384000D01*
X89625000Y-149860000D02*
X88425000Y-149860000D01*
X87300000Y-149860000D02*
X88425000Y-149860000D01*
X114300000Y-137070000D02*
X114300000Y-138270000D01*
X108180000Y-134842000D02*
X112072000Y-134842000D01*
X112072000Y-134842000D02*
X114300000Y-137070000D01*
X114300000Y-139395000D02*
X114300000Y-138270000D01*
X127725000Y-149860000D02*
X126525000Y-149860000D01*
X125400000Y-149860000D02*
X126525000Y-149860000D01*
X133350000Y-139540000D02*
X133350000Y-138340000D01*
X133350000Y-140665000D02*
X133350000Y-139540000D01*
X145395000Y-138085000D02*
X143759200Y-137973500D01*
X143759200Y-137973500D02*
X141966500Y-136180800D01*
X141966500Y-136180800D02*
X135509200Y-136180800D01*
X135509200Y-136180800D02*
X133350000Y-138340000D01*
X106985000Y-147320000D02*
X105511600Y-147320000D01*
X105511600Y-147320000D02*
X93319600Y-135128000D01*
X108110000Y-147320000D02*
X106985000Y-147320000D01*
X109310000Y-147320000D02*
X108110000Y-147320000D01*
X133350000Y-162345000D02*
X132224700Y-162345000D01*
X114300000Y-162650000D02*
X114300000Y-163025300D01*
X114300000Y-161450000D02*
X114300000Y-162650000D01*
X114300000Y-163025300D02*
X131544400Y-163025300D01*
X131544400Y-163025300D02*
X132224700Y-162345000D01*
X114300000Y-161450000D02*
X114300000Y-160325000D01*
X133350000Y-161145000D02*
X133350000Y-162345000D01*
X133350000Y-160020000D02*
X133350000Y-161145000D01*
X138975000Y-152400000D02*
X140175000Y-152400000D01*
X140175000Y-152400000D02*
X141300000Y-152400000D01*
X76200000Y-166460000D02*
X76200000Y-165260000D01*
X76200000Y-164135000D02*
X76200000Y-165260000D01*
X76200000Y-158660000D02*
X76200000Y-159860000D01*
X75737400Y-160985000D02*
X76200000Y-160522400D01*
X76200000Y-160522400D02*
X76200000Y-159860000D01*
X75737400Y-160985000D02*
X75274700Y-160985000D01*
X76200000Y-160985000D02*
X75737400Y-160985000D01*
X70080000Y-161036000D02*
X75223700Y-161036000D01*
X75223700Y-161036000D02*
X75274700Y-160985000D01*
X88245000Y-154754000D02*
X88374900Y-152848500D01*
X88374900Y-152848500D02*
X90150500Y-152848500D01*
X90150500Y-152848500D02*
X95679000Y-147320000D01*
X95679000Y-147320000D02*
X101510000Y-147320000D01*
X101510000Y-147320000D02*
X102710000Y-147320000D01*
X102710000Y-147320000D02*
X103835000Y-147320000D01*
X114300000Y-157175000D02*
X114300000Y-156050000D01*
X114300000Y-156050000D02*
X114300000Y-154850000D01*
X108180000Y-153892000D02*
X113342000Y-153892000D01*
X113342000Y-153892000D02*
X114300000Y-154850000D01*
X133350000Y-155745000D02*
X133350000Y-154545000D01*
X133350000Y-156138800D02*
X133350000Y-155745000D01*
X133350000Y-156138800D02*
X133350000Y-156532600D01*
X133350000Y-156870000D02*
X133350000Y-157320300D01*
X133350000Y-156532600D02*
X133350000Y-156870000D01*
X127230000Y-156274000D02*
X128276300Y-157320300D01*
X128276300Y-157320300D02*
X133350000Y-157320300D01*
X146775000Y-152400000D02*
X145575000Y-152400000D01*
X145575000Y-152400000D02*
X144450000Y-152400000D01*
X95250000Y-160180000D02*
X95250000Y-161380000D01*
X95250000Y-159055000D02*
X95250000Y-160180000D01*
X147041301Y-195179400D02*
X147041301Y-196119200D01*
X148438301Y-193782400D02*
X147041301Y-195179400D01*
X98677400Y-161380000D02*
X95250000Y-161380000D01*
X112395000Y-175097600D02*
X98677400Y-161380000D01*
X112395000Y-176531026D02*
X112395000Y-175097600D01*
X116078000Y-184531000D02*
X116078000Y-180214026D01*
X123193700Y-191646700D02*
X116078000Y-184531000D01*
X116078000Y-180214026D02*
X112395000Y-176531026D01*
X146302601Y-191646700D02*
X123193700Y-191646700D01*
X148438301Y-193782400D02*
X146302601Y-191646700D01*
X95250000Y-154780000D02*
X95250000Y-153580000D01*
X95250000Y-155905000D02*
X95250000Y-154780000D01*
X95250000Y-155905000D02*
X95250000Y-156830300D01*
X115292000Y-175550000D02*
X113656200Y-175438500D01*
X113656200Y-175438500D02*
X113656200Y-175236500D01*
X113656200Y-175236500D02*
X95250000Y-156830300D01*
X157415603Y-195460096D02*
X157415603Y-192035816D01*
X155193299Y-197682400D02*
X157415603Y-195460096D01*
X64155000Y-121416000D02*
X65790800Y-121304500D01*
X65790800Y-121304500D02*
X69717600Y-117377700D01*
X69717600Y-117377700D02*
X75521900Y-117377700D01*
X75521900Y-117377700D02*
X76514100Y-116385500D01*
X76514100Y-116385500D02*
X76514100Y-114604800D01*
X76514100Y-114604800D02*
X77580900Y-113538000D01*
X77580900Y-113538000D02*
X78586000Y-113538000D01*
X78586000Y-113538000D02*
X82396000Y-109728000D01*
X82396000Y-109728000D02*
X93319600Y-109728000D01*
X83205000Y-116654000D02*
X84840800Y-116542500D01*
X84840800Y-116542500D02*
X89115300Y-112268000D01*
X89115300Y-112268000D02*
X93319600Y-112268000D01*
X93319600Y-119888000D02*
X97415600Y-115792000D01*
X97415600Y-115792000D02*
X101370000Y-115792000D01*
X93319600Y-122428000D02*
X113921800Y-122428000D01*
X113921800Y-122428000D02*
X118175800Y-118174000D01*
X118175800Y-118174000D02*
X120420000Y-118174000D01*
X112677900Y-123406600D02*
X111116500Y-124968000D01*
X111116500Y-124968000D02*
X93319600Y-124968000D01*
X134950200Y-118154200D02*
X131749800Y-118154200D01*
X115425001Y-126880001D02*
X115425001Y-125984000D01*
X115360001Y-126945001D02*
X115425001Y-126880001D01*
X113174999Y-125984000D02*
X113174999Y-126880001D01*
X94843600Y-125984000D02*
X113174999Y-125984000D01*
X113239999Y-126945001D02*
X115360001Y-126945001D01*
X126077400Y-125984000D02*
X131749800Y-120311600D01*
X113174999Y-126880001D02*
X113239999Y-126945001D01*
X131749800Y-120311600D02*
X131749800Y-118154200D01*
X115425001Y-125984000D02*
X126077400Y-125984000D01*
X93319600Y-127508000D02*
X94843600Y-125984000D01*
X129743200Y-115055400D02*
X130565700Y-114232900D01*
X130565700Y-114232900D02*
X136134300Y-114232900D01*
X136134300Y-114232900D02*
X136956800Y-115055400D01*
X137998200Y-110051600D02*
X139352200Y-110051600D01*
X141783000Y-113665000D02*
X140857700Y-113665000D01*
X140857700Y-113665000D02*
X140857700Y-111557100D01*
X140857700Y-111557100D02*
X139352200Y-110051600D01*
X128701800Y-110051600D02*
X128701800Y-111253200D01*
X139673000Y-113665000D02*
X131113600Y-113665000D01*
X131113600Y-113665000D02*
X128701800Y-111253200D01*
X141783000Y-114465000D02*
X139673000Y-114465000D01*
X139673000Y-114569000D02*
X138684000Y-115558000D01*
X139673000Y-114465000D02*
X139673000Y-114569000D01*
X112507000Y-113158000D02*
X113607000Y-113158000D01*
X111109000Y-111760000D02*
X112507000Y-113158000D01*
X93319600Y-114808000D02*
X97914936Y-114808000D01*
X97914936Y-114808000D02*
X100962936Y-111760000D01*
X100962936Y-111760000D02*
X111109000Y-111760000D01*
X124925700Y-112332600D02*
X128876100Y-116283000D01*
X128876100Y-116283000D02*
X141382000Y-116283000D01*
X141382000Y-116283000D02*
X142708300Y-114956700D01*
X142708300Y-114956700D02*
X142708300Y-112865000D01*
X124925700Y-112332600D02*
X124925700Y-111935000D01*
X124925700Y-111935000D02*
X128025400Y-108835300D01*
X128025400Y-108835300D02*
X129392000Y-108835300D01*
X129392000Y-108835300D02*
X133421700Y-112865000D01*
X133421700Y-112865000D02*
X139673000Y-112865000D01*
X141783000Y-112865000D02*
X142708300Y-112865000D01*
X111125000Y-110490000D02*
X112395000Y-111760000D01*
X101596526Y-110490000D02*
X111125000Y-110490000D01*
X100326526Y-111760000D02*
X101596526Y-110490000D01*
X124353100Y-111760000D02*
X124925700Y-112332600D01*
X80133300Y-122640100D02*
X81119500Y-122640100D01*
X88808300Y-113538000D02*
X97282000Y-113538000D01*
X85291200Y-117055100D02*
X88808300Y-113538000D01*
X99060000Y-111760000D02*
X100326526Y-111760000D01*
X79281300Y-121788100D02*
X80133300Y-122640100D01*
X85291200Y-118468400D02*
X85291200Y-117055100D01*
X81119500Y-122640100D02*
X85291200Y-118468400D01*
X97282000Y-113538000D02*
X99060000Y-111760000D01*
X79281300Y-118549700D02*
X79281300Y-121788100D01*
X112395000Y-111760000D02*
X124353100Y-111760000D01*
X78079600Y-117348000D02*
X79281300Y-118549700D01*
X113607000Y-109358000D02*
X119907000Y-109358000D01*
X120023000Y-109474000D02*
X119907000Y-109358000D01*
X122057800Y-109474000D02*
X120023000Y-109474000D01*
X101462000Y-109358000D02*
X112507000Y-109358000D01*
X99758200Y-111061800D02*
X101462000Y-109358000D01*
X112507000Y-109358000D02*
X113607000Y-109358000D01*
X81825800Y-111061800D02*
X99758200Y-111061800D01*
X78079600Y-114808000D02*
X81825800Y-111061800D01*
D24*
G36*
X111831200Y-112271002D02*
G01*
X111854999Y-112300001D01*
X111970724Y-112394974D01*
X112102753Y-112465546D01*
X112147674Y-112479172D01*
X112131188Y-112533518D01*
X112118928Y-112658000D01*
X112122000Y-112872250D01*
X112280750Y-113031000D01*
X113480000Y-113031000D01*
X113480000Y-113011000D01*
X113734000Y-113011000D01*
X113734000Y-113031000D01*
X114933250Y-113031000D01*
X115092000Y-112872250D01*
X115095072Y-112658000D01*
X115082812Y-112533518D01*
X115078711Y-112520000D01*
X118435289Y-112520000D01*
X118431188Y-112533518D01*
X118418928Y-112658000D01*
X118422000Y-112872250D01*
X118580750Y-113031000D01*
X119780000Y-113031000D01*
X119780000Y-113011000D01*
X120034000Y-113011000D01*
X120034000Y-113031000D01*
X121233250Y-113031000D01*
X121392000Y-112872250D01*
X121395072Y-112658000D01*
X121382812Y-112533518D01*
X121378711Y-112520000D01*
X124038299Y-112520000D01*
X124361900Y-112843602D01*
X124385699Y-112872601D01*
X124414703Y-112896404D01*
X126026511Y-114508212D01*
X125760575Y-114569486D01*
X125421960Y-114721844D01*
X125119575Y-114937335D01*
X124865041Y-115207677D01*
X124668137Y-115522483D01*
X124536434Y-115869653D01*
X124490387Y-116144084D01*
X124438344Y-116907505D01*
X124446721Y-117185645D01*
X124530090Y-117547477D01*
X124682448Y-117886092D01*
X124897939Y-118188477D01*
X125168281Y-118443011D01*
X125252372Y-118495608D01*
X126032556Y-119900206D01*
X126190868Y-120129050D01*
X126457629Y-120387335D01*
X126769655Y-120588615D01*
X127114951Y-120725153D01*
X127480250Y-120791704D01*
X127567446Y-120790296D01*
X127476202Y-121010579D01*
X127419100Y-121297652D01*
X127419100Y-121590348D01*
X127476202Y-121877421D01*
X127588212Y-122147838D01*
X127750826Y-122391206D01*
X127957794Y-122598174D01*
X128201162Y-122760788D01*
X128218591Y-122768007D01*
X125762599Y-125224000D01*
X115738072Y-125224000D01*
X115738072Y-125020000D01*
X115725812Y-124895518D01*
X115689502Y-124775820D01*
X115630537Y-124665506D01*
X115551185Y-124568815D01*
X115454494Y-124489463D01*
X115415042Y-124468375D01*
X115430537Y-124449494D01*
X115489502Y-124339180D01*
X115525812Y-124219482D01*
X115538072Y-124095000D01*
X115538072Y-122895000D01*
X115525812Y-122770518D01*
X115489502Y-122650820D01*
X115430537Y-122540506D01*
X115351185Y-122443815D01*
X115254494Y-122364463D01*
X115144180Y-122305498D01*
X115124940Y-122299662D01*
X118163575Y-119261028D01*
X118193348Y-119424455D01*
X118329886Y-119769752D01*
X118468132Y-119984062D01*
X118311579Y-120015202D01*
X118041162Y-120127212D01*
X117797794Y-120289826D01*
X117590826Y-120496794D01*
X117428212Y-120740162D01*
X117316202Y-121010579D01*
X117259100Y-121297652D01*
X117259100Y-121590348D01*
X117316202Y-121877421D01*
X117428212Y-122147838D01*
X117590826Y-122391206D01*
X117797794Y-122598174D01*
X118041162Y-122760788D01*
X118311579Y-122872798D01*
X118598652Y-122929900D01*
X118891348Y-122929900D01*
X119178421Y-122872798D01*
X119448838Y-122760788D01*
X119692206Y-122598174D01*
X119899174Y-122391206D01*
X120061788Y-122147838D01*
X120173798Y-121877421D01*
X120230900Y-121590348D01*
X120230900Y-121297652D01*
X120208508Y-121185076D01*
X121196100Y-121185076D01*
X121196100Y-121702924D01*
X121297127Y-122210822D01*
X121495299Y-122689251D01*
X121783000Y-123119826D01*
X122149174Y-123486000D01*
X122579749Y-123773701D01*
X123058178Y-123971873D01*
X123566076Y-124072900D01*
X124083924Y-124072900D01*
X124591822Y-123971873D01*
X125070251Y-123773701D01*
X125500826Y-123486000D01*
X125867000Y-123119826D01*
X126154701Y-122689251D01*
X126352873Y-122210822D01*
X126453900Y-121702924D01*
X126453900Y-121185076D01*
X126352873Y-120677178D01*
X126154701Y-120198749D01*
X125867000Y-119768174D01*
X125500826Y-119402000D01*
X125070251Y-119114299D01*
X124591822Y-118916127D01*
X124083924Y-118815100D01*
X123566076Y-118815100D01*
X123058178Y-118916127D01*
X122579749Y-119114299D01*
X122149174Y-119402000D01*
X121783000Y-119768174D01*
X121495299Y-120198749D01*
X121297127Y-120677178D01*
X121196100Y-121185076D01*
X120208508Y-121185076D01*
X120173798Y-121010579D01*
X120082554Y-120790296D01*
X120169749Y-120791704D01*
X120535048Y-120725153D01*
X120880345Y-120588615D01*
X121192371Y-120387335D01*
X121459132Y-120129050D01*
X121617444Y-119900206D01*
X122397629Y-118495607D01*
X122481719Y-118443011D01*
X122752061Y-118188477D01*
X122967552Y-117886092D01*
X123119910Y-117547477D01*
X123203279Y-117185645D01*
X123211656Y-116907504D01*
X123159613Y-116144084D01*
X123113566Y-115869653D01*
X122981863Y-115522483D01*
X122784959Y-115207677D01*
X122530425Y-114937335D01*
X122228040Y-114721844D01*
X121889425Y-114569486D01*
X121527593Y-114486117D01*
X121156450Y-114474939D01*
X120790257Y-114536382D01*
X120443087Y-114668085D01*
X120128281Y-114864989D01*
X119857939Y-115119523D01*
X119642448Y-115421908D01*
X119490090Y-115760523D01*
X119406721Y-116122355D01*
X119404501Y-116196068D01*
X119380868Y-116218950D01*
X119222556Y-116447794D01*
X118685877Y-117414000D01*
X118213122Y-117414000D01*
X118175799Y-117410324D01*
X118138476Y-117414000D01*
X118138467Y-117414000D01*
X118026814Y-117424997D01*
X117883553Y-117468454D01*
X117751524Y-117539026D01*
X117751522Y-117539027D01*
X117751523Y-117539027D01*
X117664796Y-117610201D01*
X117664792Y-117610205D01*
X117635799Y-117633999D01*
X117612005Y-117662992D01*
X115537348Y-119737650D01*
X115525812Y-119620518D01*
X115489502Y-119500820D01*
X115430537Y-119390506D01*
X115351185Y-119293815D01*
X115254494Y-119214463D01*
X115188072Y-119178959D01*
X115188072Y-119152469D01*
X115214759Y-119134637D01*
X115414637Y-118934759D01*
X115571680Y-118699727D01*
X115679853Y-118438574D01*
X115735000Y-118161335D01*
X115735000Y-117878665D01*
X115679853Y-117601426D01*
X115571680Y-117340273D01*
X115414637Y-117105241D01*
X115214759Y-116905363D01*
X114979727Y-116748320D01*
X114718574Y-116640147D01*
X114441335Y-116585000D01*
X114158665Y-116585000D01*
X113976114Y-116621312D01*
X112635804Y-115281003D01*
X112612001Y-115251999D01*
X112496276Y-115157026D01*
X112364247Y-115086454D01*
X112220986Y-115042997D01*
X112109333Y-115032000D01*
X112109322Y-115032000D01*
X112072000Y-115028324D01*
X112034678Y-115032000D01*
X109914123Y-115032000D01*
X109377444Y-114065794D01*
X109219132Y-113836950D01*
X109195499Y-113814068D01*
X109193279Y-113740355D01*
X109174304Y-113658000D01*
X112118928Y-113658000D01*
X112131188Y-113782482D01*
X112167498Y-113902180D01*
X112226463Y-114012494D01*
X112305815Y-114109185D01*
X112402506Y-114188537D01*
X112512820Y-114247502D01*
X112632518Y-114283812D01*
X112757000Y-114296072D01*
X113321250Y-114293000D01*
X113480000Y-114134250D01*
X113480000Y-113285000D01*
X113734000Y-113285000D01*
X113734000Y-114134250D01*
X113892750Y-114293000D01*
X114457000Y-114296072D01*
X114581482Y-114283812D01*
X114701180Y-114247502D01*
X114811494Y-114188537D01*
X114908185Y-114109185D01*
X114987537Y-114012494D01*
X115046502Y-113902180D01*
X115082812Y-113782482D01*
X115095072Y-113658000D01*
X118418928Y-113658000D01*
X118431188Y-113782482D01*
X118467498Y-113902180D01*
X118526463Y-114012494D01*
X118605815Y-114109185D01*
X118702506Y-114188537D01*
X118812820Y-114247502D01*
X118932518Y-114283812D01*
X119057000Y-114296072D01*
X119621250Y-114293000D01*
X119780000Y-114134250D01*
X119780000Y-113285000D01*
X120034000Y-113285000D01*
X120034000Y-114134250D01*
X120192750Y-114293000D01*
X120757000Y-114296072D01*
X120881482Y-114283812D01*
X121001180Y-114247502D01*
X121111494Y-114188537D01*
X121208185Y-114109185D01*
X121287537Y-114012494D01*
X121346502Y-113902180D01*
X121382812Y-113782482D01*
X121395072Y-113658000D01*
X121392000Y-113443750D01*
X121233250Y-113285000D01*
X120034000Y-113285000D01*
X119780000Y-113285000D01*
X118580750Y-113285000D01*
X118422000Y-113443750D01*
X118418928Y-113658000D01*
X115095072Y-113658000D01*
X115092000Y-113443750D01*
X114933250Y-113285000D01*
X113734000Y-113285000D01*
X113480000Y-113285000D01*
X112280750Y-113285000D01*
X112122000Y-113443750D01*
X112118928Y-113658000D01*
X109174304Y-113658000D01*
X109109910Y-113378523D01*
X108957552Y-113039908D01*
X108742061Y-112737523D01*
X108471719Y-112482989D01*
X108156913Y-112286086D01*
X107809743Y-112154382D01*
X107443550Y-112092939D01*
X107072407Y-112104117D01*
X106710575Y-112187486D01*
X106371960Y-112339844D01*
X106069575Y-112555335D01*
X105815041Y-112825677D01*
X105618137Y-113140483D01*
X105486434Y-113487653D01*
X105440387Y-113762084D01*
X105388344Y-114525505D01*
X105396721Y-114803645D01*
X105480090Y-115165477D01*
X105632448Y-115504092D01*
X105847939Y-115806477D01*
X106118281Y-116061011D01*
X106202372Y-116113608D01*
X106982556Y-117518206D01*
X107140868Y-117747050D01*
X107407629Y-118005335D01*
X107719655Y-118206615D01*
X108064951Y-118343153D01*
X108430250Y-118409704D01*
X108517446Y-118408296D01*
X108426202Y-118628579D01*
X108369100Y-118915652D01*
X108369100Y-119208348D01*
X108426202Y-119495421D01*
X108538212Y-119765838D01*
X108700826Y-120009206D01*
X108907794Y-120216174D01*
X109151162Y-120378788D01*
X109421579Y-120490798D01*
X109708652Y-120547900D01*
X110001348Y-120547900D01*
X110288421Y-120490798D01*
X110558838Y-120378788D01*
X110802206Y-120216174D01*
X111009174Y-120009206D01*
X111171788Y-119765838D01*
X111283798Y-119495421D01*
X111340900Y-119208348D01*
X111340900Y-118915652D01*
X111283798Y-118628579D01*
X111171788Y-118358162D01*
X111009174Y-118114794D01*
X110802206Y-117907826D01*
X110558838Y-117745212D01*
X110288421Y-117633202D01*
X110131868Y-117602062D01*
X110270114Y-117387752D01*
X110406652Y-117042455D01*
X110473203Y-116677156D01*
X110471182Y-116552000D01*
X111757199Y-116552000D01*
X112901312Y-117696114D01*
X112865000Y-117878665D01*
X112865000Y-118161335D01*
X112920147Y-118438574D01*
X113028320Y-118699727D01*
X113185363Y-118934759D01*
X113385241Y-119134637D01*
X113411928Y-119152469D01*
X113411928Y-119178959D01*
X113345506Y-119214463D01*
X113248815Y-119293815D01*
X113169463Y-119390506D01*
X113110498Y-119500820D01*
X113074188Y-119620518D01*
X113061928Y-119745000D01*
X113061928Y-120945000D01*
X113074188Y-121069482D01*
X113110498Y-121189180D01*
X113169463Y-121299494D01*
X113248815Y-121396185D01*
X113345506Y-121475537D01*
X113455820Y-121534502D01*
X113575518Y-121570812D01*
X113692651Y-121582348D01*
X113606999Y-121668000D01*
X105149050Y-121668000D01*
X105541822Y-121589873D01*
X106020251Y-121391701D01*
X106450826Y-121104000D01*
X106817000Y-120737826D01*
X107104701Y-120307251D01*
X107302873Y-119828822D01*
X107403900Y-119320924D01*
X107403900Y-118803076D01*
X107302873Y-118295178D01*
X107104701Y-117816749D01*
X106817000Y-117386174D01*
X106450826Y-117020000D01*
X106020251Y-116732299D01*
X105541822Y-116534127D01*
X105033924Y-116433100D01*
X104516076Y-116433100D01*
X104008178Y-116534127D01*
X103529749Y-116732299D01*
X103099174Y-117020000D01*
X102733000Y-117386174D01*
X102445299Y-117816749D01*
X102247127Y-118295178D01*
X102146100Y-118803076D01*
X102146100Y-119320924D01*
X102247127Y-119828822D01*
X102445299Y-120307251D01*
X102733000Y-120737826D01*
X103099174Y-121104000D01*
X103529749Y-121391701D01*
X104008178Y-121589873D01*
X104400950Y-121668000D01*
X94629410Y-121668000D01*
X94493504Y-121464602D01*
X94282998Y-121254096D01*
X94139180Y-121158000D01*
X94282998Y-121061904D01*
X94493504Y-120851398D01*
X94658897Y-120603869D01*
X94772822Y-120328830D01*
X94830900Y-120036850D01*
X94830900Y-119739150D01*
X94783176Y-119499225D01*
X97730402Y-116552000D01*
X99078818Y-116552000D01*
X99076797Y-116677156D01*
X99143348Y-117042455D01*
X99279886Y-117387752D01*
X99418132Y-117602062D01*
X99261579Y-117633202D01*
X98991162Y-117745212D01*
X98747794Y-117907826D01*
X98540826Y-118114794D01*
X98378212Y-118358162D01*
X98266202Y-118628579D01*
X98209100Y-118915652D01*
X98209100Y-119208348D01*
X98266202Y-119495421D01*
X98378212Y-119765838D01*
X98540826Y-120009206D01*
X98747794Y-120216174D01*
X98991162Y-120378788D01*
X99261579Y-120490798D01*
X99548652Y-120547900D01*
X99841348Y-120547900D01*
X100128421Y-120490798D01*
X100398838Y-120378788D01*
X100642206Y-120216174D01*
X100849174Y-120009206D01*
X101011788Y-119765838D01*
X101123798Y-119495421D01*
X101180900Y-119208348D01*
X101180900Y-118915652D01*
X101123798Y-118628579D01*
X101032554Y-118408296D01*
X101119749Y-118409704D01*
X101485048Y-118343153D01*
X101830345Y-118206615D01*
X102142371Y-118005335D01*
X102409132Y-117747050D01*
X102567444Y-117518206D01*
X103347629Y-116113607D01*
X103431719Y-116061011D01*
X103702061Y-115806477D01*
X103917552Y-115504092D01*
X104069910Y-115165477D01*
X104153279Y-114803645D01*
X104161656Y-114525504D01*
X104109613Y-113762084D01*
X104063566Y-113487653D01*
X103931863Y-113140483D01*
X103734959Y-112825677D01*
X103480425Y-112555335D01*
X103178040Y-112339844D01*
X102839425Y-112187486D01*
X102477593Y-112104117D01*
X102106450Y-112092939D01*
X101740257Y-112154382D01*
X101393087Y-112286085D01*
X101078281Y-112482989D01*
X100807939Y-112737523D01*
X100592448Y-113039908D01*
X100440090Y-113378523D01*
X100356721Y-113740355D01*
X100354501Y-113814068D01*
X100330868Y-113836950D01*
X100172556Y-114065794D01*
X99635877Y-115032000D01*
X97452925Y-115032000D01*
X97415600Y-115028324D01*
X97378275Y-115032000D01*
X97378267Y-115032000D01*
X97266614Y-115042997D01*
X97123353Y-115086454D01*
X96991324Y-115157026D01*
X96875599Y-115251999D01*
X96851801Y-115280997D01*
X94835828Y-117296971D01*
X94836713Y-117280509D01*
X94794396Y-116985833D01*
X94695402Y-116705073D01*
X94618529Y-116561254D01*
X94366769Y-116480437D01*
X93499205Y-117348000D01*
X93513348Y-117362142D01*
X93333742Y-117541748D01*
X93319600Y-117527605D01*
X92452037Y-118395169D01*
X92519409Y-118605045D01*
X92356202Y-118714096D01*
X92145696Y-118924602D01*
X91980303Y-119172131D01*
X91866378Y-119447170D01*
X91808300Y-119739150D01*
X91808300Y-120036850D01*
X91866378Y-120328830D01*
X91919530Y-120457150D01*
X91752206Y-120289826D01*
X91508838Y-120127212D01*
X91238421Y-120015202D01*
X91081868Y-119984062D01*
X91220114Y-119769752D01*
X91356652Y-119424455D01*
X91423203Y-119059156D01*
X91417209Y-118687891D01*
X91338900Y-118324930D01*
X91228275Y-118069597D01*
X90864952Y-117415491D01*
X91802487Y-117415491D01*
X91844804Y-117710167D01*
X91943798Y-117990927D01*
X92020671Y-118134746D01*
X92272431Y-118215563D01*
X93139995Y-117348000D01*
X92272431Y-116480437D01*
X92020671Y-116561254D01*
X91892143Y-116829779D01*
X91818471Y-117118219D01*
X91802487Y-117415491D01*
X90864952Y-117415491D01*
X90327444Y-116447794D01*
X90169132Y-116218950D01*
X90145499Y-116196068D01*
X90143279Y-116122355D01*
X90081718Y-115855169D01*
X92452037Y-115855169D01*
X92523568Y-116078000D01*
X92452037Y-116300831D01*
X93319600Y-117168395D01*
X94187163Y-116300831D01*
X94115632Y-116078000D01*
X94187163Y-115855169D01*
X93319600Y-114987605D01*
X92452037Y-115855169D01*
X90081718Y-115855169D01*
X90059910Y-115760523D01*
X89907552Y-115421908D01*
X89692061Y-115119523D01*
X89421719Y-114864989D01*
X89106913Y-114668086D01*
X88850348Y-114570754D01*
X89123102Y-114298000D01*
X91890043Y-114298000D01*
X91818471Y-114578219D01*
X91802487Y-114875491D01*
X91844804Y-115170167D01*
X91943798Y-115450927D01*
X92020671Y-115594746D01*
X92272431Y-115675563D01*
X93139995Y-114808000D01*
X93125852Y-114793858D01*
X93305458Y-114614253D01*
X93319600Y-114628395D01*
X93333743Y-114614253D01*
X93513348Y-114793858D01*
X93499205Y-114808000D01*
X94366769Y-115675563D01*
X94618529Y-115594746D01*
X94747057Y-115326221D01*
X94820729Y-115037781D01*
X94836713Y-114740509D01*
X94794396Y-114445833D01*
X94742271Y-114298000D01*
X97244678Y-114298000D01*
X97282000Y-114301676D01*
X97319322Y-114298000D01*
X97319333Y-114298000D01*
X97430986Y-114287003D01*
X97574247Y-114243546D01*
X97706276Y-114172974D01*
X97822001Y-114078001D01*
X97845804Y-114048997D01*
X99374802Y-112520000D01*
X100289204Y-112520000D01*
X100326526Y-112523676D01*
X100363848Y-112520000D01*
X100363859Y-112520000D01*
X100475512Y-112509003D01*
X100618773Y-112465546D01*
X100750802Y-112394974D01*
X100866527Y-112300001D01*
X100890330Y-112270997D01*
X101911328Y-111250000D01*
X110810199Y-111250000D01*
X111831200Y-112271002D01*
G37*
X111831200Y-112271002D02*
X111854999Y-112300001D01*
X111970724Y-112394974D01*
X112102753Y-112465546D01*
X112147674Y-112479172D01*
X112131188Y-112533518D01*
X112118928Y-112658000D01*
X112122000Y-112872250D01*
X112280750Y-113031000D01*
X113480000Y-113031000D01*
X113480000Y-113011000D01*
X113734000Y-113011000D01*
X113734000Y-113031000D01*
X114933250Y-113031000D01*
X115092000Y-112872250D01*
X115095072Y-112658000D01*
X115082812Y-112533518D01*
X115078711Y-112520000D01*
X118435289Y-112520000D01*
X118431188Y-112533518D01*
X118418928Y-112658000D01*
X118422000Y-112872250D01*
X118580750Y-113031000D01*
X119780000Y-113031000D01*
X119780000Y-113011000D01*
X120034000Y-113011000D01*
X120034000Y-113031000D01*
X121233250Y-113031000D01*
X121392000Y-112872250D01*
X121395072Y-112658000D01*
X121382812Y-112533518D01*
X121378711Y-112520000D01*
X124038299Y-112520000D01*
X124361900Y-112843602D01*
X124385699Y-112872601D01*
X124414703Y-112896404D01*
X126026511Y-114508212D01*
X125760575Y-114569486D01*
X125421960Y-114721844D01*
X125119575Y-114937335D01*
X124865041Y-115207677D01*
X124668137Y-115522483D01*
X124536434Y-115869653D01*
X124490387Y-116144084D01*
X124438344Y-116907505D01*
X124446721Y-117185645D01*
X124530090Y-117547477D01*
X124682448Y-117886092D01*
X124897939Y-118188477D01*
X125168281Y-118443011D01*
X125252372Y-118495608D01*
X126032556Y-119900206D01*
X126190868Y-120129050D01*
X126457629Y-120387335D01*
X126769655Y-120588615D01*
X127114951Y-120725153D01*
X127480250Y-120791704D01*
X127567446Y-120790296D01*
X127476202Y-121010579D01*
X127419100Y-121297652D01*
X127419100Y-121590348D01*
X127476202Y-121877421D01*
X127588212Y-122147838D01*
X127750826Y-122391206D01*
X127957794Y-122598174D01*
X128201162Y-122760788D01*
X128218591Y-122768007D01*
X125762599Y-125224000D01*
X115738072Y-125224000D01*
X115738072Y-125020000D01*
X115725812Y-124895518D01*
X115689502Y-124775820D01*
X115630537Y-124665506D01*
X115551185Y-124568815D01*
X115454494Y-124489463D01*
X115415042Y-124468375D01*
X115430537Y-124449494D01*
X115489502Y-124339180D01*
X115525812Y-124219482D01*
X115538072Y-124095000D01*
X115538072Y-122895000D01*
X115525812Y-122770518D01*
X115489502Y-122650820D01*
X115430537Y-122540506D01*
X115351185Y-122443815D01*
X115254494Y-122364463D01*
X115144180Y-122305498D01*
X115124940Y-122299662D01*
X118163575Y-119261028D01*
X118193348Y-119424455D01*
X118329886Y-119769752D01*
X118468132Y-119984062D01*
X118311579Y-120015202D01*
X118041162Y-120127212D01*
X117797794Y-120289826D01*
X117590826Y-120496794D01*
X117428212Y-120740162D01*
X117316202Y-121010579D01*
X117259100Y-121297652D01*
X117259100Y-121590348D01*
X117316202Y-121877421D01*
X117428212Y-122147838D01*
X117590826Y-122391206D01*
X117797794Y-122598174D01*
X118041162Y-122760788D01*
X118311579Y-122872798D01*
X118598652Y-122929900D01*
X118891348Y-122929900D01*
X119178421Y-122872798D01*
X119448838Y-122760788D01*
X119692206Y-122598174D01*
X119899174Y-122391206D01*
X120061788Y-122147838D01*
X120173798Y-121877421D01*
X120230900Y-121590348D01*
X120230900Y-121297652D01*
X120208508Y-121185076D01*
X121196100Y-121185076D01*
X121196100Y-121702924D01*
X121297127Y-122210822D01*
X121495299Y-122689251D01*
X121783000Y-123119826D01*
X122149174Y-123486000D01*
X122579749Y-123773701D01*
X123058178Y-123971873D01*
X123566076Y-124072900D01*
X124083924Y-124072900D01*
X124591822Y-123971873D01*
X125070251Y-123773701D01*
X125500826Y-123486000D01*
X125867000Y-123119826D01*
X126154701Y-122689251D01*
X126352873Y-122210822D01*
X126453900Y-121702924D01*
X126453900Y-121185076D01*
X126352873Y-120677178D01*
X126154701Y-120198749D01*
X125867000Y-119768174D01*
X125500826Y-119402000D01*
X125070251Y-119114299D01*
X124591822Y-118916127D01*
X124083924Y-118815100D01*
X123566076Y-118815100D01*
X123058178Y-118916127D01*
X122579749Y-119114299D01*
X122149174Y-119402000D01*
X121783000Y-119768174D01*
X121495299Y-120198749D01*
X121297127Y-120677178D01*
X121196100Y-121185076D01*
X120208508Y-121185076D01*
X120173798Y-121010579D01*
X120082554Y-120790296D01*
X120169749Y-120791704D01*
X120535048Y-120725153D01*
X120880345Y-120588615D01*
X121192371Y-120387335D01*
X121459132Y-120129050D01*
X121617444Y-119900206D01*
X122397629Y-118495607D01*
X122481719Y-118443011D01*
X122752061Y-118188477D01*
X122967552Y-117886092D01*
X123119910Y-117547477D01*
X123203279Y-117185645D01*
X123211656Y-116907504D01*
X123159613Y-116144084D01*
X123113566Y-115869653D01*
X122981863Y-115522483D01*
X122784959Y-115207677D01*
X122530425Y-114937335D01*
X122228040Y-114721844D01*
X121889425Y-114569486D01*
X121527593Y-114486117D01*
X121156450Y-114474939D01*
X120790257Y-114536382D01*
X120443087Y-114668085D01*
X120128281Y-114864989D01*
X119857939Y-115119523D01*
X119642448Y-115421908D01*
X119490090Y-115760523D01*
X119406721Y-116122355D01*
X119404501Y-116196068D01*
X119380868Y-116218950D01*
X119222556Y-116447794D01*
X118685877Y-117414000D01*
X118213122Y-117414000D01*
X118175799Y-117410324D01*
X118138476Y-117414000D01*
X118138467Y-117414000D01*
X118026814Y-117424997D01*
X117883553Y-117468454D01*
X117751524Y-117539026D01*
X117751522Y-117539027D01*
X117751523Y-117539027D01*
X117664796Y-117610201D01*
X117664792Y-117610205D01*
X117635799Y-117633999D01*
X117612005Y-117662992D01*
X115537348Y-119737650D01*
X115525812Y-119620518D01*
X115489502Y-119500820D01*
X115430537Y-119390506D01*
X115351185Y-119293815D01*
X115254494Y-119214463D01*
X115188072Y-119178959D01*
X115188072Y-119152469D01*
X115214759Y-119134637D01*
X115414637Y-118934759D01*
X115571680Y-118699727D01*
X115679853Y-118438574D01*
X115735000Y-118161335D01*
X115735000Y-117878665D01*
X115679853Y-117601426D01*
X115571680Y-117340273D01*
X115414637Y-117105241D01*
X115214759Y-116905363D01*
X114979727Y-116748320D01*
X114718574Y-116640147D01*
X114441335Y-116585000D01*
X114158665Y-116585000D01*
X113976114Y-116621312D01*
X112635804Y-115281003D01*
X112612001Y-115251999D01*
X112496276Y-115157026D01*
X112364247Y-115086454D01*
X112220986Y-115042997D01*
X112109333Y-115032000D01*
X112109322Y-115032000D01*
X112072000Y-115028324D01*
X112034678Y-115032000D01*
X109914123Y-115032000D01*
X109377444Y-114065794D01*
X109219132Y-113836950D01*
X109195499Y-113814068D01*
X109193279Y-113740355D01*
X109174304Y-113658000D01*
X112118928Y-113658000D01*
X112131188Y-113782482D01*
X112167498Y-113902180D01*
X112226463Y-114012494D01*
X112305815Y-114109185D01*
X112402506Y-114188537D01*
X112512820Y-114247502D01*
X112632518Y-114283812D01*
X112757000Y-114296072D01*
X113321250Y-114293000D01*
X113480000Y-114134250D01*
X113480000Y-113285000D01*
X113734000Y-113285000D01*
X113734000Y-114134250D01*
X113892750Y-114293000D01*
X114457000Y-114296072D01*
X114581482Y-114283812D01*
X114701180Y-114247502D01*
X114811494Y-114188537D01*
X114908185Y-114109185D01*
X114987537Y-114012494D01*
X115046502Y-113902180D01*
X115082812Y-113782482D01*
X115095072Y-113658000D01*
X118418928Y-113658000D01*
X118431188Y-113782482D01*
X118467498Y-113902180D01*
X118526463Y-114012494D01*
X118605815Y-114109185D01*
X118702506Y-114188537D01*
X118812820Y-114247502D01*
X118932518Y-114283812D01*
X119057000Y-114296072D01*
X119621250Y-114293000D01*
X119780000Y-114134250D01*
X119780000Y-113285000D01*
X120034000Y-113285000D01*
X120034000Y-114134250D01*
X120192750Y-114293000D01*
X120757000Y-114296072D01*
X120881482Y-114283812D01*
X121001180Y-114247502D01*
X121111494Y-114188537D01*
X121208185Y-114109185D01*
X121287537Y-114012494D01*
X121346502Y-113902180D01*
X121382812Y-113782482D01*
X121395072Y-113658000D01*
X121392000Y-113443750D01*
X121233250Y-113285000D01*
X120034000Y-113285000D01*
X119780000Y-113285000D01*
X118580750Y-113285000D01*
X118422000Y-113443750D01*
X118418928Y-113658000D01*
X115095072Y-113658000D01*
X115092000Y-113443750D01*
X114933250Y-113285000D01*
X113734000Y-113285000D01*
X113480000Y-113285000D01*
X112280750Y-113285000D01*
X112122000Y-113443750D01*
X112118928Y-113658000D01*
X109174304Y-113658000D01*
X109109910Y-113378523D01*
X108957552Y-113039908D01*
X108742061Y-112737523D01*
X108471719Y-112482989D01*
X108156913Y-112286086D01*
X107809743Y-112154382D01*
X107443550Y-112092939D01*
X107072407Y-112104117D01*
X106710575Y-112187486D01*
X106371960Y-112339844D01*
X106069575Y-112555335D01*
X105815041Y-112825677D01*
X105618137Y-113140483D01*
X105486434Y-113487653D01*
X105440387Y-113762084D01*
X105388344Y-114525505D01*
X105396721Y-114803645D01*
X105480090Y-115165477D01*
X105632448Y-115504092D01*
X105847939Y-115806477D01*
X106118281Y-116061011D01*
X106202372Y-116113608D01*
X106982556Y-117518206D01*
X107140868Y-117747050D01*
X107407629Y-118005335D01*
X107719655Y-118206615D01*
X108064951Y-118343153D01*
X108430250Y-118409704D01*
X108517446Y-118408296D01*
X108426202Y-118628579D01*
X108369100Y-118915652D01*
X108369100Y-119208348D01*
X108426202Y-119495421D01*
X108538212Y-119765838D01*
X108700826Y-120009206D01*
X108907794Y-120216174D01*
X109151162Y-120378788D01*
X109421579Y-120490798D01*
X109708652Y-120547900D01*
X110001348Y-120547900D01*
X110288421Y-120490798D01*
X110558838Y-120378788D01*
X110802206Y-120216174D01*
X111009174Y-120009206D01*
X111171788Y-119765838D01*
X111283798Y-119495421D01*
X111340900Y-119208348D01*
X111340900Y-118915652D01*
X111283798Y-118628579D01*
X111171788Y-118358162D01*
X111009174Y-118114794D01*
X110802206Y-117907826D01*
X110558838Y-117745212D01*
X110288421Y-117633202D01*
X110131868Y-117602062D01*
X110270114Y-117387752D01*
X110406652Y-117042455D01*
X110473203Y-116677156D01*
X110471182Y-116552000D01*
X111757199Y-116552000D01*
X112901312Y-117696114D01*
X112865000Y-117878665D01*
X112865000Y-118161335D01*
X112920147Y-118438574D01*
X113028320Y-118699727D01*
X113185363Y-118934759D01*
X113385241Y-119134637D01*
X113411928Y-119152469D01*
X113411928Y-119178959D01*
X113345506Y-119214463D01*
X113248815Y-119293815D01*
X113169463Y-119390506D01*
X113110498Y-119500820D01*
X113074188Y-119620518D01*
X113061928Y-119745000D01*
X113061928Y-120945000D01*
X113074188Y-121069482D01*
X113110498Y-121189180D01*
X113169463Y-121299494D01*
X113248815Y-121396185D01*
X113345506Y-121475537D01*
X113455820Y-121534502D01*
X113575518Y-121570812D01*
X113692651Y-121582348D01*
X113606999Y-121668000D01*
X105149050Y-121668000D01*
X105541822Y-121589873D01*
X106020251Y-121391701D01*
X106450826Y-121104000D01*
X106817000Y-120737826D01*
X107104701Y-120307251D01*
X107302873Y-119828822D01*
X107403900Y-119320924D01*
X107403900Y-118803076D01*
X107302873Y-118295178D01*
X107104701Y-117816749D01*
X106817000Y-117386174D01*
X106450826Y-117020000D01*
X106020251Y-116732299D01*
X105541822Y-116534127D01*
X105033924Y-116433100D01*
X104516076Y-116433100D01*
X104008178Y-116534127D01*
X103529749Y-116732299D01*
X103099174Y-117020000D01*
X102733000Y-117386174D01*
X102445299Y-117816749D01*
X102247127Y-118295178D01*
X102146100Y-118803076D01*
X102146100Y-119320924D01*
X102247127Y-119828822D01*
X102445299Y-120307251D01*
X102733000Y-120737826D01*
X103099174Y-121104000D01*
X103529749Y-121391701D01*
X104008178Y-121589873D01*
X104400950Y-121668000D01*
X94629410Y-121668000D01*
X94493504Y-121464602D01*
X94282998Y-121254096D01*
X94139180Y-121158000D01*
X94282998Y-121061904D01*
X94493504Y-120851398D01*
X94658897Y-120603869D01*
X94772822Y-120328830D01*
X94830900Y-120036850D01*
X94830900Y-119739150D01*
X94783176Y-119499225D01*
X97730402Y-116552000D01*
X99078818Y-116552000D01*
X99076797Y-116677156D01*
X99143348Y-117042455D01*
X99279886Y-117387752D01*
X99418132Y-117602062D01*
X99261579Y-117633202D01*
X98991162Y-117745212D01*
X98747794Y-117907826D01*
X98540826Y-118114794D01*
X98378212Y-118358162D01*
X98266202Y-118628579D01*
X98209100Y-118915652D01*
X98209100Y-119208348D01*
X98266202Y-119495421D01*
X98378212Y-119765838D01*
X98540826Y-120009206D01*
X98747794Y-120216174D01*
X98991162Y-120378788D01*
X99261579Y-120490798D01*
X99548652Y-120547900D01*
X99841348Y-120547900D01*
X100128421Y-120490798D01*
X100398838Y-120378788D01*
X100642206Y-120216174D01*
X100849174Y-120009206D01*
X101011788Y-119765838D01*
X101123798Y-119495421D01*
X101180900Y-119208348D01*
X101180900Y-118915652D01*
X101123798Y-118628579D01*
X101032554Y-118408296D01*
X101119749Y-118409704D01*
X101485048Y-118343153D01*
X101830345Y-118206615D01*
X102142371Y-118005335D01*
X102409132Y-117747050D01*
X102567444Y-117518206D01*
X103347629Y-116113607D01*
X103431719Y-116061011D01*
X103702061Y-115806477D01*
X103917552Y-115504092D01*
X104069910Y-115165477D01*
X104153279Y-114803645D01*
X104161656Y-114525504D01*
X104109613Y-113762084D01*
X104063566Y-113487653D01*
X103931863Y-113140483D01*
X103734959Y-112825677D01*
X103480425Y-112555335D01*
X103178040Y-112339844D01*
X102839425Y-112187486D01*
X102477593Y-112104117D01*
X102106450Y-112092939D01*
X101740257Y-112154382D01*
X101393087Y-112286085D01*
X101078281Y-112482989D01*
X100807939Y-112737523D01*
X100592448Y-113039908D01*
X100440090Y-113378523D01*
X100356721Y-113740355D01*
X100354501Y-113814068D01*
X100330868Y-113836950D01*
X100172556Y-114065794D01*
X99635877Y-115032000D01*
X97452925Y-115032000D01*
X97415600Y-115028324D01*
X97378275Y-115032000D01*
X97378267Y-115032000D01*
X97266614Y-115042997D01*
X97123353Y-115086454D01*
X96991324Y-115157026D01*
X96875599Y-115251999D01*
X96851801Y-115280997D01*
X94835828Y-117296971D01*
X94836713Y-117280509D01*
X94794396Y-116985833D01*
X94695402Y-116705073D01*
X94618529Y-116561254D01*
X94366769Y-116480437D01*
X93499205Y-117348000D01*
X93513348Y-117362142D01*
X93333742Y-117541748D01*
X93319600Y-117527605D01*
X92452037Y-118395169D01*
X92519409Y-118605045D01*
X92356202Y-118714096D01*
X92145696Y-118924602D01*
X91980303Y-119172131D01*
X91866378Y-119447170D01*
X91808300Y-119739150D01*
X91808300Y-120036850D01*
X91866378Y-120328830D01*
X91919530Y-120457150D01*
X91752206Y-120289826D01*
X91508838Y-120127212D01*
X91238421Y-120015202D01*
X91081868Y-119984062D01*
X91220114Y-119769752D01*
X91356652Y-119424455D01*
X91423203Y-119059156D01*
X91417209Y-118687891D01*
X91338900Y-118324930D01*
X91228275Y-118069597D01*
X90864952Y-117415491D01*
X91802487Y-117415491D01*
X91844804Y-117710167D01*
X91943798Y-117990927D01*
X92020671Y-118134746D01*
X92272431Y-118215563D01*
X93139995Y-117348000D01*
X92272431Y-116480437D01*
X92020671Y-116561254D01*
X91892143Y-116829779D01*
X91818471Y-117118219D01*
X91802487Y-117415491D01*
X90864952Y-117415491D01*
X90327444Y-116447794D01*
X90169132Y-116218950D01*
X90145499Y-116196068D01*
X90143279Y-116122355D01*
X90081718Y-115855169D01*
X92452037Y-115855169D01*
X92523568Y-116078000D01*
X92452037Y-116300831D01*
X93319600Y-117168395D01*
X94187163Y-116300831D01*
X94115632Y-116078000D01*
X94187163Y-115855169D01*
X93319600Y-114987605D01*
X92452037Y-115855169D01*
X90081718Y-115855169D01*
X90059910Y-115760523D01*
X89907552Y-115421908D01*
X89692061Y-115119523D01*
X89421719Y-114864989D01*
X89106913Y-114668086D01*
X88850348Y-114570754D01*
X89123102Y-114298000D01*
X91890043Y-114298000D01*
X91818471Y-114578219D01*
X91802487Y-114875491D01*
X91844804Y-115170167D01*
X91943798Y-115450927D01*
X92020671Y-115594746D01*
X92272431Y-115675563D01*
X93139995Y-114808000D01*
X93125852Y-114793858D01*
X93305458Y-114614253D01*
X93319600Y-114628395D01*
X93333743Y-114614253D01*
X93513348Y-114793858D01*
X93499205Y-114808000D01*
X94366769Y-115675563D01*
X94618529Y-115594746D01*
X94747057Y-115326221D01*
X94820729Y-115037781D01*
X94836713Y-114740509D01*
X94794396Y-114445833D01*
X94742271Y-114298000D01*
X97244678Y-114298000D01*
X97282000Y-114301676D01*
X97319322Y-114298000D01*
X97319333Y-114298000D01*
X97430986Y-114287003D01*
X97574247Y-114243546D01*
X97706276Y-114172974D01*
X97822001Y-114078001D01*
X97845804Y-114048997D01*
X99374802Y-112520000D01*
X100289204Y-112520000D01*
X100326526Y-112523676D01*
X100363848Y-112520000D01*
X100363859Y-112520000D01*
X100475512Y-112509003D01*
X100618773Y-112465546D01*
X100750802Y-112394974D01*
X100866527Y-112300001D01*
X100890330Y-112270997D01*
X101911328Y-111250000D01*
X110810199Y-111250000D01*
X111831200Y-112271002D01*
G36*
X78273348Y-112253858D02*
G01*
X78259205Y-112268000D01*
X78273348Y-112282143D01*
X78093743Y-112461748D01*
X78079600Y-112447605D01*
X78065458Y-112461748D01*
X77885852Y-112282142D01*
X77899995Y-112268000D01*
X77885852Y-112253858D01*
X78065458Y-112074252D01*
X78079600Y-112088395D01*
X78093742Y-112074252D01*
X78273348Y-112253858D01*
G37*
X78273348Y-112253858D02*
X78259205Y-112268000D01*
X78273348Y-112282143D01*
X78093743Y-112461748D01*
X78079600Y-112447605D01*
X78065458Y-112461748D01*
X77885852Y-112282142D01*
X77899995Y-112268000D01*
X77885852Y-112253858D01*
X78065458Y-112074252D01*
X78079600Y-112088395D01*
X78093742Y-112074252D01*
X78273348Y-112253858D01*
M02*
