G04 #@! TF.GenerationSoftware,KiCad,Pcbnew,(5.1.5-0-10_14)*
G04 #@! TF.CreationDate,2020-04-20T20:44:16-04:00*
G04 #@! TF.ProjectId,minidox-routed,6d696e69-646f-4782-9d72-6f757465642e,rev?*
G04 #@! TF.SameCoordinates,Original*
G04 #@! TF.FileFunction,Paste,Top*
G04 #@! TF.FilePolarity,Positive*
%FSLAX46Y46*%
G04 Gerber Fmt 4.6, Leading zero omitted, Abs format (unit mm)*
G04 Created by KiCad (PCBNEW (5.1.5-0-10_14)) date 2020-04-20 20:44:16*
%MOMM*%
%LPD*%
G04 APERTURE LIST*
%ADD10R,1.200000X1.200000*%
%ADD11C,0.100000*%
%ADD12R,1.700000X1.000000*%
G04 APERTURE END LIST*
D10*
X64465000Y-135890000D03*
X67615000Y-135890000D03*
X105715000Y-128270000D03*
X102565000Y-128270000D03*
X114300000Y-123495000D03*
X114300000Y-120345000D03*
X122250000Y-130810000D03*
X125400000Y-130810000D03*
X141300000Y-133350000D03*
X144450000Y-133350000D03*
X64465000Y-154940000D03*
X67615000Y-154940000D03*
X84150000Y-149860000D03*
X87300000Y-149860000D03*
X114300000Y-142545000D03*
X114300000Y-139395000D03*
X122250000Y-149860000D03*
X125400000Y-149860000D03*
X133350000Y-140665000D03*
X133350000Y-143815000D03*
X76200000Y-164135000D03*
X76200000Y-160985000D03*
X103835000Y-147320000D03*
X106985000Y-147320000D03*
X114300000Y-157175000D03*
X114300000Y-160325000D03*
X133350000Y-156870000D03*
X133350000Y-160020000D03*
X144450000Y-152400000D03*
X141300000Y-152400000D03*
X95250000Y-155905000D03*
X95250000Y-159055000D03*
D11*
G36*
X148235195Y-197501315D02*
G01*
X148835195Y-196462085D01*
X149874425Y-197062085D01*
X149274425Y-198101315D01*
X148235195Y-197501315D01*
G37*
G36*
X150963175Y-199076315D02*
G01*
X151563175Y-198037085D01*
X152602405Y-198637085D01*
X152002405Y-199676315D01*
X150963175Y-199076315D01*
G37*
G36*
X149632195Y-195164515D02*
G01*
X150232195Y-194125285D01*
X151271425Y-194725285D01*
X150671425Y-195764515D01*
X149632195Y-195164515D01*
G37*
G36*
X152360175Y-196739515D02*
G01*
X152960175Y-195700285D01*
X153999405Y-196300285D01*
X153399405Y-197339515D01*
X152360175Y-196739515D01*
G37*
D12*
X113607000Y-109358000D03*
X119907000Y-109358000D03*
X113607000Y-113158000D03*
X119907000Y-113158000D03*
M02*
